<ttFont>
    <TTGlyph name=".notdef" xMin="150" yMin="0" xMax="744" yMax="1510">
      <contour>
        <pt x="150" y="0" on="1"/>
        <pt x="150" y="1510" on="1"/>
        <pt x="744" y="1510" on="1"/>
        <pt x="744" y="0" on="1"/>
      </contour>
      <contour>
        <pt x="268" y="1392" on="1"/>
        <pt x="268" y="118" on="1"/>
        <pt x="626" y="118" on="1"/>
        <pt x="626" y="1392" on="1"/>
      </contour>
    </TTGlyph>
    <TTGlyph name="A" xMin="180" yMin="-40" xMax="1304" yMax="1530">
      <contour>
        <pt x="180" y="-40" on="1"/>
        <pt x="180" y="755" on="1"/>
        <pt x="180" y="1046" on="0"/>
        <pt x="276" y="1222" on="1"/>
        <pt x="444" y="1530" on="0"/>
        <pt x="742" y="1530" on="1"/>
        <pt x="1041" y="1530" on="0"/>
        <pt x="1208" y="1222" on="1"/>
        <pt x="1304" y="1045" on="0"/>
        <pt x="1304" y="755" on="1"/>
        <pt x="1304" y="469" on="0"/>
        <pt x="1208" y="288" on="1"/>
        <pt x="1073" y="34" on="0"/>
        <pt x="856" y="-40" on="1"/>
        <pt x="846" y="-40" on="1"/>
        <pt x="771" y="109" on="1"/>
        <pt x="949" y="193" on="0"/>
        <pt x="1036" y="366" on="1"/>
        <pt x="1092" y="477" on="0"/>
        <pt x="1102" y="670" on="1"/>
        <pt x="380" y="670" on="1"/>
        <pt x="380" y="50" on="1"/>
        <pt x="190" y="-40" on="1"/>
      </contour>
      <contour>
        <pt x="382" y="840" on="1"/>
        <pt x="1102" y="840" on="1"/>
        <pt x="1092" y="1032" on="0"/>
        <pt x="1036" y="1144" on="1"/>
        <pt x="928" y="1360" on="0"/>
        <pt x="742" y="1360" on="1"/>
        <pt x="557" y="1360" on="0"/>
        <pt x="448" y="1144" on="1"/>
        <pt x="392" y="1032" on="0"/>
      </contour>
    </TTGlyph>
    <TTGlyph name="AE" xMin="180" yMin="-40" xMax="2054" yMax="1530">
      <contour>
        <pt x="382" y="840" on="1"/>
        <pt x="1102" y="840" on="1"/>
        <pt x="1092" y="1032" on="0"/>
        <pt x="1036" y="1144" on="1"/>
        <pt x="928" y="1360" on="0"/>
        <pt x="742" y="1360" on="1"/>
        <pt x="557" y="1360" on="0"/>
        <pt x="448" y="1144" on="1"/>
        <pt x="392" y="1032" on="0"/>
      </contour>
      <contour>
        <pt x="180" y="-40" on="1"/>
        <pt x="180" y="755" on="1"/>
        <pt x="180" y="1046" on="0"/>
        <pt x="276" y="1222" on="1"/>
        <pt x="444" y="1530" on="0"/>
        <pt x="742" y="1530" on="1"/>
        <pt x="1037" y="1530" on="0"/>
        <pt x="1203" y="1231" on="1"/>
        <pt x="1370" y="1530" on="0"/>
        <pt x="1664" y="1530" on="1"/>
        <pt x="1932" y="1530" on="1"/>
        <pt x="1932" y="1520" on="1"/>
        <pt x="1857" y="1360" on="1"/>
        <pt x="1664" y="1360" on="1"/>
        <pt x="1478" y="1360" on="0"/>
        <pt x="1370" y="1144" on="1"/>
        <pt x="1314" y="1032" on="0"/>
        <pt x="1304" y="840" on="1"/>
        <pt x="1872" y="840" on="1"/>
        <pt x="1872" y="830" on="1"/>
        <pt x="1797" y="670" on="1"/>
        <pt x="1302" y="670" on="1"/>
        <pt x="1302" y="214" on="1"/>
        <pt x="1302" y="170" on="0"/>
        <pt x="1352" y="170" on="1"/>
        <pt x="1746" y="170" on="1"/>
        <pt x="1864" y="170" on="0"/>
        <pt x="1894" y="287" on="1"/>
        <pt x="1904" y="287" on="1"/>
        <pt x="2054" y="216" on="1"/>
        <pt x="1994" y="0" on="0"/>
        <pt x="1746" y="0" on="1"/>
        <pt x="1352" y="0" on="1"/>
        <pt x="1102" y="0" on="0"/>
        <pt x="1102" y="214" on="1"/>
        <pt x="1102" y="670" on="1"/>
        <pt x="380" y="670" on="1"/>
        <pt x="380" y="50" on="1"/>
        <pt x="190" y="-40" on="1"/>
      </contour>
    </TTGlyph>
    <TTGlyph name="AEacute" xMin="180" yMin="-40" xMax="2054" yMax="1966">
      <contour>
        <pt x="382" y="840" on="1"/>
        <pt x="1102" y="840" on="1"/>
        <pt x="1092" y="1032" on="0"/>
        <pt x="1036" y="1144" on="1"/>
        <pt x="928" y="1360" on="0"/>
        <pt x="742" y="1360" on="1"/>
        <pt x="557" y="1360" on="0"/>
        <pt x="448" y="1144" on="1"/>
        <pt x="392" y="1032" on="0"/>
      </contour>
      <contour>
        <pt x="180" y="-40" on="1"/>
        <pt x="180" y="755" on="1"/>
        <pt x="180" y="1046" on="0"/>
        <pt x="276" y="1222" on="1"/>
        <pt x="444" y="1530" on="0"/>
        <pt x="742" y="1530" on="1"/>
        <pt x="1037" y="1530" on="0"/>
        <pt x="1203" y="1231" on="1"/>
        <pt x="1370" y="1530" on="0"/>
        <pt x="1664" y="1530" on="1"/>
        <pt x="1932" y="1530" on="1"/>
        <pt x="1932" y="1520" on="1"/>
        <pt x="1857" y="1360" on="1"/>
        <pt x="1664" y="1360" on="1"/>
        <pt x="1478" y="1360" on="0"/>
        <pt x="1370" y="1144" on="1"/>
        <pt x="1314" y="1032" on="0"/>
        <pt x="1304" y="840" on="1"/>
        <pt x="1872" y="840" on="1"/>
        <pt x="1872" y="830" on="1"/>
        <pt x="1797" y="670" on="1"/>
        <pt x="1302" y="670" on="1"/>
        <pt x="1302" y="214" on="1"/>
        <pt x="1302" y="170" on="0"/>
        <pt x="1352" y="170" on="1"/>
        <pt x="1746" y="170" on="1"/>
        <pt x="1864" y="170" on="0"/>
        <pt x="1894" y="287" on="1"/>
        <pt x="1904" y="287" on="1"/>
        <pt x="2054" y="216" on="1"/>
        <pt x="1994" y="0" on="0"/>
        <pt x="1746" y="0" on="1"/>
        <pt x="1352" y="0" on="1"/>
        <pt x="1102" y="0" on="0"/>
        <pt x="1102" y="214" on="1"/>
        <pt x="1102" y="670" on="1"/>
        <pt x="380" y="670" on="1"/>
        <pt x="380" y="50" on="1"/>
        <pt x="190" y="-40" on="1"/>
      </contour>
      <contour>
        <pt x="1235" y="1966" on="1"/>
        <pt x="1245" y="1966" on="1"/>
        <pt x="1421" y="1882" on="1"/>
        <pt x="1200" y="1566" on="1"/>
        <pt x="1190" y="1566" on="1"/>
        <pt x="1073" y="1621" on="1"/>
      </contour>
    </TTGlyph>
    <TTGlyph name="Aacute" xMin="180" yMin="-40" xMax="1304" yMax="1966">
      <contour>
        <pt x="180" y="-40" on="1"/>
        <pt x="180" y="755" on="1"/>
        <pt x="180" y="1046" on="0"/>
        <pt x="276" y="1222" on="1"/>
        <pt x="444" y="1530" on="0"/>
        <pt x="742" y="1530" on="1"/>
        <pt x="1041" y="1530" on="0"/>
        <pt x="1208" y="1222" on="1"/>
        <pt x="1304" y="1045" on="0"/>
        <pt x="1304" y="755" on="1"/>
        <pt x="1304" y="469" on="0"/>
        <pt x="1208" y="288" on="1"/>
        <pt x="1073" y="34" on="0"/>
        <pt x="856" y="-40" on="1"/>
        <pt x="846" y="-40" on="1"/>
        <pt x="771" y="109" on="1"/>
        <pt x="949" y="193" on="0"/>
        <pt x="1036" y="366" on="1"/>
        <pt x="1092" y="477" on="0"/>
        <pt x="1102" y="670" on="1"/>
        <pt x="380" y="670" on="1"/>
        <pt x="380" y="50" on="1"/>
        <pt x="190" y="-40" on="1"/>
      </contour>
      <contour>
        <pt x="382" y="840" on="1"/>
        <pt x="1102" y="840" on="1"/>
        <pt x="1092" y="1032" on="0"/>
        <pt x="1036" y="1144" on="1"/>
        <pt x="928" y="1360" on="0"/>
        <pt x="742" y="1360" on="1"/>
        <pt x="557" y="1360" on="0"/>
        <pt x="448" y="1144" on="1"/>
        <pt x="392" y="1032" on="0"/>
      </contour>
      <contour>
        <pt x="847" y="1966" on="1"/>
        <pt x="857" y="1966" on="1"/>
        <pt x="1033" y="1882" on="1"/>
        <pt x="812" y="1566" on="1"/>
        <pt x="802" y="1566" on="1"/>
        <pt x="685" y="1621" on="1"/>
      </contour>
    </TTGlyph>
    <TTGlyph name="Abreve" xMin="180" yMin="-40" xMax="1304" yMax="1947">
      <contour>
        <pt x="180" y="-40" on="1"/>
        <pt x="180" y="755" on="1"/>
        <pt x="180" y="1046" on="0"/>
        <pt x="276" y="1222" on="1"/>
        <pt x="444" y="1530" on="0"/>
        <pt x="742" y="1530" on="1"/>
        <pt x="1041" y="1530" on="0"/>
        <pt x="1208" y="1222" on="1"/>
        <pt x="1304" y="1045" on="0"/>
        <pt x="1304" y="755" on="1"/>
        <pt x="1304" y="469" on="0"/>
        <pt x="1208" y="288" on="1"/>
        <pt x="1073" y="34" on="0"/>
        <pt x="856" y="-40" on="1"/>
        <pt x="846" y="-40" on="1"/>
        <pt x="771" y="109" on="1"/>
        <pt x="949" y="193" on="0"/>
        <pt x="1036" y="366" on="1"/>
        <pt x="1092" y="477" on="0"/>
        <pt x="1102" y="670" on="1"/>
        <pt x="380" y="670" on="1"/>
        <pt x="380" y="50" on="1"/>
        <pt x="190" y="-40" on="1"/>
      </contour>
      <contour>
        <pt x="382" y="840" on="1"/>
        <pt x="1102" y="840" on="1"/>
        <pt x="1092" y="1032" on="0"/>
        <pt x="1036" y="1144" on="1"/>
        <pt x="928" y="1360" on="0"/>
        <pt x="742" y="1360" on="1"/>
        <pt x="557" y="1360" on="0"/>
        <pt x="448" y="1144" on="1"/>
        <pt x="392" y="1032" on="0"/>
      </contour>
      <contour>
        <pt x="498" y="1788" on="1"/>
        <pt x="498" y="1798" on="1"/>
        <pt x="572" y="1947" on="1"/>
        <pt x="644" y="1813" on="0"/>
        <pt x="844" y="1813" on="0"/>
        <pt x="916" y="1947" on="1"/>
        <pt x="992" y="1798" on="1"/>
        <pt x="992" y="1788" on="1"/>
        <pt x="890" y="1638" on="0"/>
        <pt x="742" y="1638" on="1"/>
        <pt x="588" y="1638" on="0"/>
      </contour>
    </TTGlyph>
    <TTGlyph name="Acircumflex" xMin="180" yMin="-40" xMax="1304" yMax="1966">
      <contour>
        <pt x="180" y="-40" on="1"/>
        <pt x="180" y="755" on="1"/>
        <pt x="180" y="1046" on="0"/>
        <pt x="276" y="1222" on="1"/>
        <pt x="444" y="1530" on="0"/>
        <pt x="742" y="1530" on="1"/>
        <pt x="1041" y="1530" on="0"/>
        <pt x="1208" y="1222" on="1"/>
        <pt x="1304" y="1045" on="0"/>
        <pt x="1304" y="755" on="1"/>
        <pt x="1304" y="469" on="0"/>
        <pt x="1208" y="288" on="1"/>
        <pt x="1073" y="34" on="0"/>
        <pt x="856" y="-40" on="1"/>
        <pt x="846" y="-40" on="1"/>
        <pt x="771" y="109" on="1"/>
        <pt x="949" y="193" on="0"/>
        <pt x="1036" y="366" on="1"/>
        <pt x="1092" y="477" on="0"/>
        <pt x="1102" y="670" on="1"/>
        <pt x="380" y="670" on="1"/>
        <pt x="380" y="50" on="1"/>
        <pt x="190" y="-40" on="1"/>
      </contour>
      <contour>
        <pt x="382" y="840" on="1"/>
        <pt x="1102" y="840" on="1"/>
        <pt x="1092" y="1032" on="0"/>
        <pt x="1036" y="1144" on="1"/>
        <pt x="928" y="1360" on="0"/>
        <pt x="742" y="1360" on="1"/>
        <pt x="557" y="1360" on="0"/>
        <pt x="448" y="1144" on="1"/>
        <pt x="392" y="1032" on="0"/>
      </contour>
      <contour>
        <pt x="464" y="1621" on="1"/>
        <pt x="617" y="1882" on="1"/>
        <pt x="793" y="1966" on="1"/>
        <pt x="803" y="1966" on="1"/>
        <pt x="1016" y="1621" on="1"/>
        <pt x="900" y="1566" on="1"/>
        <pt x="890" y="1566" on="1"/>
        <pt x="740" y="1774" on="1"/>
        <pt x="592" y="1566" on="1"/>
        <pt x="582" y="1566" on="1"/>
      </contour>
    </TTGlyph>
    <TTGlyph name="Adieresis" xMin="180" yMin="-40" xMax="1304" yMax="1925">
      <contour>
        <pt x="180" y="-40" on="1"/>
        <pt x="180" y="755" on="1"/>
        <pt x="180" y="1046" on="0"/>
        <pt x="276" y="1222" on="1"/>
        <pt x="444" y="1530" on="0"/>
        <pt x="742" y="1530" on="1"/>
        <pt x="1041" y="1530" on="0"/>
        <pt x="1208" y="1222" on="1"/>
        <pt x="1304" y="1045" on="0"/>
        <pt x="1304" y="755" on="1"/>
        <pt x="1304" y="469" on="0"/>
        <pt x="1208" y="288" on="1"/>
        <pt x="1073" y="34" on="0"/>
        <pt x="856" y="-40" on="1"/>
        <pt x="846" y="-40" on="1"/>
        <pt x="771" y="109" on="1"/>
        <pt x="949" y="193" on="0"/>
        <pt x="1036" y="366" on="1"/>
        <pt x="1092" y="477" on="0"/>
        <pt x="1102" y="670" on="1"/>
        <pt x="380" y="670" on="1"/>
        <pt x="380" y="50" on="1"/>
        <pt x="190" y="-40" on="1"/>
      </contour>
      <contour>
        <pt x="382" y="840" on="1"/>
        <pt x="1102" y="840" on="1"/>
        <pt x="1092" y="1032" on="0"/>
        <pt x="1036" y="1144" on="1"/>
        <pt x="928" y="1360" on="0"/>
        <pt x="742" y="1360" on="1"/>
        <pt x="557" y="1360" on="0"/>
        <pt x="448" y="1144" on="1"/>
        <pt x="392" y="1032" on="0"/>
      </contour>
      <contour>
        <pt x="772" y="1752" on="0"/>
        <pt x="772" y="1853" on="0"/>
        <pt x="842" y="1925" on="0"/>
        <pt x="942" y="1925" on="0"/>
        <pt x="1012" y="1853" on="0"/>
        <pt x="1012" y="1752" on="0"/>
        <pt x="942" y="1680" on="0"/>
        <pt x="842" y="1680" on="0"/>
      </contour>
      <contour>
        <pt x="472" y="1752" on="0"/>
        <pt x="472" y="1853" on="0"/>
        <pt x="542" y="1925" on="0"/>
        <pt x="642" y="1925" on="0"/>
        <pt x="712" y="1853" on="0"/>
        <pt x="712" y="1752" on="0"/>
        <pt x="642" y="1680" on="0"/>
        <pt x="542" y="1680" on="0"/>
      </contour>
    </TTGlyph>
    <TTGlyph name="Agrave" xMin="180" yMin="-40" xMax="1304" yMax="1966">
      <contour>
        <pt x="180" y="-40" on="1"/>
        <pt x="180" y="755" on="1"/>
        <pt x="180" y="1046" on="0"/>
        <pt x="276" y="1222" on="1"/>
        <pt x="444" y="1530" on="0"/>
        <pt x="742" y="1530" on="1"/>
        <pt x="1041" y="1530" on="0"/>
        <pt x="1208" y="1222" on="1"/>
        <pt x="1304" y="1045" on="0"/>
        <pt x="1304" y="755" on="1"/>
        <pt x="1304" y="469" on="0"/>
        <pt x="1208" y="288" on="1"/>
        <pt x="1073" y="34" on="0"/>
        <pt x="856" y="-40" on="1"/>
        <pt x="846" y="-40" on="1"/>
        <pt x="771" y="109" on="1"/>
        <pt x="949" y="193" on="0"/>
        <pt x="1036" y="366" on="1"/>
        <pt x="1092" y="477" on="0"/>
        <pt x="1102" y="670" on="1"/>
        <pt x="380" y="670" on="1"/>
        <pt x="380" y="50" on="1"/>
        <pt x="190" y="-40" on="1"/>
      </contour>
      <contour>
        <pt x="382" y="840" on="1"/>
        <pt x="1102" y="840" on="1"/>
        <pt x="1092" y="1032" on="0"/>
        <pt x="1036" y="1144" on="1"/>
        <pt x="928" y="1360" on="0"/>
        <pt x="742" y="1360" on="1"/>
        <pt x="557" y="1360" on="0"/>
        <pt x="448" y="1144" on="1"/>
        <pt x="392" y="1032" on="0"/>
      </contour>
      <contour>
        <pt x="626" y="1966" on="1"/>
        <pt x="636" y="1966" on="1"/>
        <pt x="798" y="1621" on="1"/>
        <pt x="681" y="1566" on="1"/>
        <pt x="671" y="1566" on="1"/>
        <pt x="450" y="1882" on="1"/>
      </contour>
    </TTGlyph>
    <TTGlyph name="Amacron" xMin="180" yMin="-40" xMax="1304" yMax="1820">
      <contour>
        <pt x="180" y="-40" on="1"/>
        <pt x="180" y="755" on="1"/>
        <pt x="180" y="1046" on="0"/>
        <pt x="276" y="1222" on="1"/>
        <pt x="444" y="1530" on="0"/>
        <pt x="742" y="1530" on="1"/>
        <pt x="1041" y="1530" on="0"/>
        <pt x="1208" y="1222" on="1"/>
        <pt x="1304" y="1045" on="0"/>
        <pt x="1304" y="755" on="1"/>
        <pt x="1304" y="469" on="0"/>
        <pt x="1208" y="288" on="1"/>
        <pt x="1073" y="34" on="0"/>
        <pt x="856" y="-40" on="1"/>
        <pt x="846" y="-40" on="1"/>
        <pt x="771" y="109" on="1"/>
        <pt x="949" y="193" on="0"/>
        <pt x="1036" y="366" on="1"/>
        <pt x="1092" y="477" on="0"/>
        <pt x="1102" y="670" on="1"/>
        <pt x="380" y="670" on="1"/>
        <pt x="380" y="50" on="1"/>
        <pt x="190" y="-40" on="1"/>
      </contour>
      <contour>
        <pt x="382" y="840" on="1"/>
        <pt x="1102" y="840" on="1"/>
        <pt x="1092" y="1032" on="0"/>
        <pt x="1036" y="1144" on="1"/>
        <pt x="928" y="1360" on="0"/>
        <pt x="742" y="1360" on="1"/>
        <pt x="557" y="1360" on="0"/>
        <pt x="448" y="1144" on="1"/>
        <pt x="392" y="1032" on="0"/>
      </contour>
      <contour>
        <pt x="497" y="1638" on="1"/>
        <pt x="497" y="1648" on="1"/>
        <pt x="578" y="1820" on="1"/>
        <pt x="1036" y="1820" on="1"/>
        <pt x="1036" y="1810" on="1"/>
        <pt x="955" y="1638" on="1"/>
      </contour>
    </TTGlyph>
    <TTGlyph name="Aogonek" xMin="180" yMin="-450" xMax="1304" yMax="1530">
      <contour>
        <pt x="382" y="840" on="1"/>
        <pt x="1102" y="840" on="1"/>
        <pt x="1092" y="1032" on="0"/>
        <pt x="1036" y="1144" on="1"/>
        <pt x="928" y="1360" on="0"/>
        <pt x="742" y="1360" on="1"/>
        <pt x="557" y="1360" on="0"/>
        <pt x="448" y="1144" on="1"/>
        <pt x="392" y="1032" on="0"/>
      </contour>
      <contour>
        <pt x="180" y="-40" on="1"/>
        <pt x="180" y="755" on="1"/>
        <pt x="180" y="1046" on="0"/>
        <pt x="276" y="1222" on="1"/>
        <pt x="444" y="1530" on="0"/>
        <pt x="742" y="1530" on="1"/>
        <pt x="1041" y="1530" on="0"/>
        <pt x="1208" y="1222" on="1"/>
        <pt x="1304" y="1045" on="0"/>
        <pt x="1304" y="755" on="1"/>
        <pt x="1304" y="470" on="0"/>
        <pt x="1208" y="288" on="1"/>
        <pt x="1107" y="97" on="0"/>
        <pt x="959" y="8" on="1"/>
        <pt x="899" y="-52" on="0"/>
        <pt x="899" y="-152" on="1"/>
        <pt x="899" y="-273" on="0"/>
        <pt x="1033" y="-360" on="1"/>
        <pt x="843" y="-450" on="1"/>
        <pt x="833" y="-450" on="1"/>
        <pt x="724" y="-343" on="0"/>
        <pt x="724" y="-206" on="1"/>
        <pt x="724" y="-86" on="0"/>
        <pt x="821" y="10" on="1"/>
        <pt x="771" y="109" on="1"/>
        <pt x="949" y="193" on="0"/>
        <pt x="1036" y="366" on="1"/>
        <pt x="1092" y="477" on="0"/>
        <pt x="1102" y="670" on="1"/>
        <pt x="380" y="670" on="1"/>
        <pt x="380" y="50" on="1"/>
        <pt x="190" y="-40" on="1"/>
      </contour>
    </TTGlyph>
    <TTGlyph name="Aring" xMin="180" yMin="-40" xMax="1304" yMax="1966">
      <contour>
        <pt x="180" y="-40" on="1"/>
        <pt x="180" y="755" on="1"/>
        <pt x="180" y="1046" on="0"/>
        <pt x="276" y="1222" on="1"/>
        <pt x="444" y="1530" on="0"/>
        <pt x="742" y="1530" on="1"/>
        <pt x="1041" y="1530" on="0"/>
        <pt x="1208" y="1222" on="1"/>
        <pt x="1304" y="1045" on="0"/>
        <pt x="1304" y="755" on="1"/>
        <pt x="1304" y="469" on="0"/>
        <pt x="1208" y="288" on="1"/>
        <pt x="1073" y="34" on="0"/>
        <pt x="856" y="-40" on="1"/>
        <pt x="846" y="-40" on="1"/>
        <pt x="771" y="109" on="1"/>
        <pt x="949" y="193" on="0"/>
        <pt x="1036" y="366" on="1"/>
        <pt x="1092" y="477" on="0"/>
        <pt x="1102" y="670" on="1"/>
        <pt x="380" y="670" on="1"/>
        <pt x="380" y="50" on="1"/>
        <pt x="190" y="-40" on="1"/>
      </contour>
      <contour>
        <pt x="382" y="840" on="1"/>
        <pt x="1102" y="840" on="1"/>
        <pt x="1092" y="1032" on="0"/>
        <pt x="1036" y="1144" on="1"/>
        <pt x="928" y="1360" on="0"/>
        <pt x="742" y="1360" on="1"/>
        <pt x="557" y="1360" on="0"/>
        <pt x="448" y="1144" on="1"/>
        <pt x="392" y="1032" on="0"/>
      </contour>
      <contour>
        <pt x="815" y="1588" on="0"/>
        <pt x="655" y="1588" on="0"/>
        <pt x="600" y="1637" on="1"/>
        <pt x="538" y="1692" on="0"/>
        <pt x="538" y="1777" on="1"/>
        <pt x="538" y="1860" on="0"/>
        <pt x="600" y="1917" on="1"/>
        <pt x="653" y="1966" on="0"/>
        <pt x="735" y="1966" on="1"/>
        <pt x="815" y="1966" on="0"/>
        <pt x="870" y="1917" on="1"/>
        <pt x="932" y="1862" on="0"/>
        <pt x="932" y="1692" on="0"/>
        <pt x="870" y="1637" on="1"/>
      </contour>
      <contour>
        <pt x="735" y="1862" on="1"/>
        <pt x="701" y="1862" on="0"/>
        <pt x="661" y="1820" on="0"/>
        <pt x="661" y="1777" on="1"/>
        <pt x="661" y="1731" on="0"/>
        <pt x="682" y="1712" on="1"/>
        <pt x="704" y="1692" on="0"/>
        <pt x="734" y="1692" on="1"/>
        <pt x="765" y="1692" on="0"/>
        <pt x="787" y="1714" on="1"/>
        <pt x="807" y="1733" on="0"/>
        <pt x="807" y="1777" on="1"/>
        <pt x="807" y="1822" on="0"/>
        <pt x="785" y="1843" on="1"/>
        <pt x="765" y="1862" on="0"/>
      </contour>
    </TTGlyph>
    <TTGlyph name="Atilde" xMin="180" yMin="-40" xMax="1304" yMax="1924">
      <contour>
        <pt x="180" y="-40" on="1"/>
        <pt x="180" y="755" on="1"/>
        <pt x="180" y="1046" on="0"/>
        <pt x="276" y="1222" on="1"/>
        <pt x="444" y="1530" on="0"/>
        <pt x="742" y="1530" on="1"/>
        <pt x="1041" y="1530" on="0"/>
        <pt x="1208" y="1222" on="1"/>
        <pt x="1304" y="1045" on="0"/>
        <pt x="1304" y="755" on="1"/>
        <pt x="1304" y="469" on="0"/>
        <pt x="1208" y="288" on="1"/>
        <pt x="1073" y="34" on="0"/>
        <pt x="856" y="-40" on="1"/>
        <pt x="846" y="-40" on="1"/>
        <pt x="771" y="109" on="1"/>
        <pt x="949" y="193" on="0"/>
        <pt x="1036" y="366" on="1"/>
        <pt x="1092" y="477" on="0"/>
        <pt x="1102" y="670" on="1"/>
        <pt x="380" y="670" on="1"/>
        <pt x="380" y="50" on="1"/>
        <pt x="190" y="-40" on="1"/>
      </contour>
      <contour>
        <pt x="382" y="840" on="1"/>
        <pt x="1102" y="840" on="1"/>
        <pt x="1092" y="1032" on="0"/>
        <pt x="1036" y="1144" on="1"/>
        <pt x="928" y="1360" on="0"/>
        <pt x="742" y="1360" on="1"/>
        <pt x="557" y="1360" on="0"/>
        <pt x="448" y="1144" on="1"/>
        <pt x="392" y="1032" on="0"/>
      </contour>
      <contour>
        <pt x="501" y="1638" on="1"/>
        <pt x="501" y="1924" on="0"/>
        <pt x="642" y="1924" on="1"/>
        <pt x="706" y="1924" on="0"/>
        <pt x="779" y="1854" on="1"/>
        <pt x="830" y="1805" on="0"/>
        <pt x="854" y="1805" on="1"/>
        <pt x="888" y="1805" on="0"/>
        <pt x="888" y="1877" on="1"/>
        <pt x="998" y="1924" on="1"/>
        <pt x="1004" y="1924" on="1"/>
        <pt x="1004" y="1638" on="0"/>
        <pt x="863" y="1638" on="1"/>
        <pt x="799" y="1638" on="0"/>
        <pt x="726" y="1708" on="1"/>
        <pt x="675" y="1757" on="0"/>
        <pt x="651" y="1757" on="1"/>
        <pt x="617" y="1757" on="0"/>
        <pt x="617" y="1685" on="1"/>
        <pt x="507" y="1638" on="1"/>
      </contour>
    </TTGlyph>
    <TTGlyph name="B" xMin="180" yMin="0" xMax="1247" yMax="1530">
      <contour>
        <pt x="430" y="0" on="1"/>
        <pt x="180" y="0" on="0"/>
        <pt x="180" y="214" on="1"/>
        <pt x="180" y="755" on="1"/>
        <pt x="180" y="1046" on="0"/>
        <pt x="276" y="1222" on="1"/>
        <pt x="444" y="1530" on="0"/>
        <pt x="742" y="1530" on="1"/>
        <pt x="910" y="1530" on="0"/>
        <pt x="1023" y="1438" on="1"/>
        <pt x="1156" y="1329" on="0"/>
        <pt x="1156" y="1141" on="1"/>
        <pt x="1156" y="969" on="0"/>
        <pt x="1004" y="855" on="1"/>
        <pt x="1053" y="834" on="0"/>
        <pt x="1101" y="792" on="1"/>
        <pt x="1247" y="659" on="0"/>
        <pt x="1247" y="462" on="1"/>
        <pt x="1247" y="264" on="0"/>
        <pt x="1119" y="137" on="1"/>
        <pt x="981" y="0" on="0"/>
        <pt x="742" y="0" on="1"/>
      </contour>
      <contour>
        <pt x="742" y="756" on="1"/>
        <pt x="380" y="756" on="1"/>
        <pt x="380" y="755" on="1"/>
        <pt x="380" y="214" on="1"/>
        <pt x="380" y="170" on="0"/>
        <pt x="430" y="170" on="1"/>
        <pt x="742" y="170" on="1"/>
        <pt x="888" y="170" on="0"/>
        <pt x="980" y="268" on="1"/>
        <pt x="1047" y="339" on="0"/>
        <pt x="1047" y="456" on="1"/>
        <pt x="1047" y="579" on="0"/>
        <pt x="982" y="654" on="1"/>
        <pt x="894" y="756" on="0"/>
      </contour>
      <contour>
        <pt x="389" y="926" on="1"/>
        <pt x="742" y="926" on="1"/>
        <pt x="842" y="926" on="0"/>
        <pt x="903" y="991" on="1"/>
        <pt x="957" y="1050" on="0"/>
        <pt x="957" y="1146" on="1"/>
        <pt x="957" y="1241" on="0"/>
        <pt x="842" y="1360" on="0"/>
        <pt x="742" y="1360" on="1"/>
        <pt x="557" y="1360" on="0"/>
        <pt x="448" y="1144" on="1"/>
        <pt x="405" y="1059" on="0"/>
      </contour>
    </TTGlyph>
    <TTGlyph name="C" xMin="150" yMin="-20" xMax="1246" yMax="1530">
      <contour>
        <pt x="1246" y="474" on="1"/>
        <pt x="1227" y="378" on="0"/>
        <pt x="1178" y="288" on="1"/>
        <pt x="1010" y="-20" on="0"/>
        <pt x="414" y="-20" on="0"/>
        <pt x="246" y="288" on="1"/>
        <pt x="150" y="464" on="0"/>
        <pt x="150" y="1046" on="0"/>
        <pt x="246" y="1222" on="1"/>
        <pt x="414" y="1530" on="0"/>
        <pt x="712" y="1530" on="1"/>
        <pt x="1011" y="1530" on="0"/>
        <pt x="1178" y="1222" on="1"/>
        <pt x="1016" y="1144" on="1"/>
        <pt x="1006" y="1144" on="1"/>
        <pt x="898" y="1360" on="0"/>
        <pt x="712" y="1360" on="1"/>
        <pt x="527" y="1360" on="0"/>
        <pt x="418" y="1144" on="1"/>
        <pt x="350" y="1009" on="0"/>
        <pt x="350" y="755" on="1"/>
        <pt x="350" y="498" on="0"/>
        <pt x="418" y="366" on="1"/>
        <pt x="529" y="150" on="0"/>
        <pt x="712" y="150" on="1"/>
        <pt x="897" y="150" on="0"/>
        <pt x="1006" y="366" on="1"/>
        <pt x="1236" y="474" on="1"/>
      </contour>
    </TTGlyph>
    <TTGlyph name="Cacute" xMin="150" yMin="-20" xMax="1246" yMax="1966">
      <contour>
        <pt x="1246" y="474" on="1"/>
        <pt x="1227" y="378" on="0"/>
        <pt x="1178" y="288" on="1"/>
        <pt x="1010" y="-20" on="0"/>
        <pt x="414" y="-20" on="0"/>
        <pt x="246" y="288" on="1"/>
        <pt x="150" y="464" on="0"/>
        <pt x="150" y="1046" on="0"/>
        <pt x="246" y="1222" on="1"/>
        <pt x="414" y="1530" on="0"/>
        <pt x="712" y="1530" on="1"/>
        <pt x="1011" y="1530" on="0"/>
        <pt x="1178" y="1222" on="1"/>
        <pt x="1016" y="1144" on="1"/>
        <pt x="1006" y="1144" on="1"/>
        <pt x="898" y="1360" on="0"/>
        <pt x="712" y="1360" on="1"/>
        <pt x="527" y="1360" on="0"/>
        <pt x="418" y="1144" on="1"/>
        <pt x="350" y="1009" on="0"/>
        <pt x="350" y="755" on="1"/>
        <pt x="350" y="498" on="0"/>
        <pt x="418" y="366" on="1"/>
        <pt x="529" y="150" on="0"/>
        <pt x="712" y="150" on="1"/>
        <pt x="897" y="150" on="0"/>
        <pt x="1006" y="366" on="1"/>
        <pt x="1236" y="474" on="1"/>
      </contour>
      <contour>
        <pt x="817" y="1966" on="1"/>
        <pt x="827" y="1966" on="1"/>
        <pt x="1003" y="1882" on="1"/>
        <pt x="782" y="1566" on="1"/>
        <pt x="772" y="1566" on="1"/>
        <pt x="655" y="1621" on="1"/>
      </contour>
    </TTGlyph>
    <TTGlyph name="Ccaron" xMin="150" yMin="-20" xMax="1246" yMax="1966">
      <contour>
        <pt x="1246" y="474" on="1"/>
        <pt x="1227" y="378" on="0"/>
        <pt x="1178" y="288" on="1"/>
        <pt x="1010" y="-20" on="0"/>
        <pt x="414" y="-20" on="0"/>
        <pt x="246" y="288" on="1"/>
        <pt x="150" y="464" on="0"/>
        <pt x="150" y="1046" on="0"/>
        <pt x="246" y="1222" on="1"/>
        <pt x="414" y="1530" on="0"/>
        <pt x="712" y="1530" on="1"/>
        <pt x="1011" y="1530" on="0"/>
        <pt x="1178" y="1222" on="1"/>
        <pt x="1016" y="1144" on="1"/>
        <pt x="1006" y="1144" on="1"/>
        <pt x="898" y="1360" on="0"/>
        <pt x="712" y="1360" on="1"/>
        <pt x="527" y="1360" on="0"/>
        <pt x="418" y="1144" on="1"/>
        <pt x="350" y="1009" on="0"/>
        <pt x="350" y="755" on="1"/>
        <pt x="350" y="498" on="0"/>
        <pt x="418" y="366" on="1"/>
        <pt x="529" y="150" on="0"/>
        <pt x="712" y="150" on="1"/>
        <pt x="897" y="150" on="0"/>
        <pt x="1006" y="366" on="1"/>
        <pt x="1236" y="474" on="1"/>
      </contour>
      <contour>
        <pt x="647" y="1566" on="1"/>
        <pt x="434" y="1911" on="1"/>
        <pt x="550" y="1966" on="1"/>
        <pt x="560" y="1966" on="1"/>
        <pt x="710" y="1758" on="1"/>
        <pt x="858" y="1966" on="1"/>
        <pt x="868" y="1966" on="1"/>
        <pt x="986" y="1911" on="1"/>
        <pt x="833" y="1650" on="1"/>
        <pt x="657" y="1566" on="1"/>
      </contour>
    </TTGlyph>
    <TTGlyph name="Ccedilla" xMin="150" yMin="-450" xMax="1246" yMax="1530">
      <contour>
        <pt x="1246" y="474" on="1"/>
        <pt x="1227" y="378" on="0"/>
        <pt x="1178" y="288" on="1"/>
        <pt x="1029" y="14" on="0"/>
        <pt x="776" y="-16" on="1"/>
        <pt x="849" y="-102" on="0"/>
        <pt x="849" y="-206" on="1"/>
        <pt x="849" y="-343" on="0"/>
        <pt x="740" y="-450" on="1"/>
        <pt x="730" y="-450" on="1"/>
        <pt x="540" y="-360" on="1"/>
        <pt x="674" y="-273" on="0"/>
        <pt x="674" y="-152" on="1"/>
        <pt x="674" y="-88" on="0"/>
        <pt x="626" y="-13" on="1"/>
        <pt x="389" y="26" on="0"/>
        <pt x="246" y="288" on="1"/>
        <pt x="150" y="464" on="0"/>
        <pt x="150" y="1046" on="0"/>
        <pt x="246" y="1222" on="1"/>
        <pt x="414" y="1530" on="0"/>
        <pt x="712" y="1530" on="1"/>
        <pt x="1011" y="1530" on="0"/>
        <pt x="1178" y="1222" on="1"/>
        <pt x="1016" y="1144" on="1"/>
        <pt x="1006" y="1144" on="1"/>
        <pt x="898" y="1360" on="0"/>
        <pt x="712" y="1360" on="1"/>
        <pt x="527" y="1360" on="0"/>
        <pt x="418" y="1144" on="1"/>
        <pt x="350" y="1009" on="0"/>
        <pt x="350" y="755" on="1"/>
        <pt x="350" y="498" on="0"/>
        <pt x="418" y="366" on="1"/>
        <pt x="529" y="150" on="0"/>
        <pt x="712" y="150" on="1"/>
        <pt x="897" y="150" on="0"/>
        <pt x="1006" y="366" on="1"/>
        <pt x="1236" y="474" on="1"/>
      </contour>
    </TTGlyph>
    <TTGlyph name="Ccircumflex" xMin="150" yMin="-20" xMax="1246" yMax="1966">
      <contour>
        <pt x="1246" y="474" on="1"/>
        <pt x="1227" y="378" on="0"/>
        <pt x="1178" y="288" on="1"/>
        <pt x="1010" y="-20" on="0"/>
        <pt x="414" y="-20" on="0"/>
        <pt x="246" y="288" on="1"/>
        <pt x="150" y="464" on="0"/>
        <pt x="150" y="1046" on="0"/>
        <pt x="246" y="1222" on="1"/>
        <pt x="414" y="1530" on="0"/>
        <pt x="712" y="1530" on="1"/>
        <pt x="1011" y="1530" on="0"/>
        <pt x="1178" y="1222" on="1"/>
        <pt x="1016" y="1144" on="1"/>
        <pt x="1006" y="1144" on="1"/>
        <pt x="898" y="1360" on="0"/>
        <pt x="712" y="1360" on="1"/>
        <pt x="527" y="1360" on="0"/>
        <pt x="418" y="1144" on="1"/>
        <pt x="350" y="1009" on="0"/>
        <pt x="350" y="755" on="1"/>
        <pt x="350" y="498" on="0"/>
        <pt x="418" y="366" on="1"/>
        <pt x="529" y="150" on="0"/>
        <pt x="712" y="150" on="1"/>
        <pt x="897" y="150" on="0"/>
        <pt x="1006" y="366" on="1"/>
        <pt x="1236" y="474" on="1"/>
      </contour>
      <contour>
        <pt x="434" y="1621" on="1"/>
        <pt x="587" y="1882" on="1"/>
        <pt x="763" y="1966" on="1"/>
        <pt x="773" y="1966" on="1"/>
        <pt x="986" y="1621" on="1"/>
        <pt x="870" y="1566" on="1"/>
        <pt x="860" y="1566" on="1"/>
        <pt x="710" y="1774" on="1"/>
        <pt x="562" y="1566" on="1"/>
        <pt x="552" y="1566" on="1"/>
      </contour>
    </TTGlyph>
    <TTGlyph name="Cdotaccent" xMin="150" yMin="-20" xMax="1246" yMax="1925">
      <contour>
        <pt x="1246" y="474" on="1"/>
        <pt x="1227" y="378" on="0"/>
        <pt x="1178" y="288" on="1"/>
        <pt x="1010" y="-20" on="0"/>
        <pt x="414" y="-20" on="0"/>
        <pt x="246" y="288" on="1"/>
        <pt x="150" y="464" on="0"/>
        <pt x="150" y="1046" on="0"/>
        <pt x="246" y="1222" on="1"/>
        <pt x="414" y="1530" on="0"/>
        <pt x="712" y="1530" on="1"/>
        <pt x="1011" y="1530" on="0"/>
        <pt x="1178" y="1222" on="1"/>
        <pt x="1016" y="1144" on="1"/>
        <pt x="1006" y="1144" on="1"/>
        <pt x="898" y="1360" on="0"/>
        <pt x="712" y="1360" on="1"/>
        <pt x="527" y="1360" on="0"/>
        <pt x="418" y="1144" on="1"/>
        <pt x="350" y="1009" on="0"/>
        <pt x="350" y="755" on="1"/>
        <pt x="350" y="498" on="0"/>
        <pt x="418" y="366" on="1"/>
        <pt x="529" y="150" on="0"/>
        <pt x="712" y="150" on="1"/>
        <pt x="897" y="150" on="0"/>
        <pt x="1006" y="366" on="1"/>
        <pt x="1236" y="474" on="1"/>
      </contour>
      <contour>
        <pt x="585" y="1752" on="0"/>
        <pt x="585" y="1853" on="0"/>
        <pt x="655" y="1925" on="0"/>
        <pt x="755" y="1925" on="0"/>
        <pt x="825" y="1853" on="0"/>
        <pt x="825" y="1752" on="0"/>
        <pt x="755" y="1680" on="0"/>
        <pt x="655" y="1680" on="0"/>
      </contour>
    </TTGlyph>
    <TTGlyph name="D" xMin="180" yMin="0" xMax="1304" yMax="1530">
      <contour>
        <pt x="430" y="0" on="1"/>
        <pt x="180" y="0" on="0"/>
        <pt x="180" y="214" on="1"/>
        <pt x="180" y="755" on="1"/>
        <pt x="180" y="1046" on="0"/>
        <pt x="276" y="1222" on="1"/>
        <pt x="444" y="1530" on="0"/>
        <pt x="742" y="1530" on="1"/>
        <pt x="1041" y="1530" on="0"/>
        <pt x="1208" y="1222" on="1"/>
        <pt x="1304" y="1046" on="0"/>
        <pt x="1304" y="755" on="1"/>
        <pt x="1304" y="504" on="0"/>
        <pt x="1206" y="314" on="1"/>
        <pt x="1044" y="0" on="0"/>
        <pt x="742" y="0" on="1"/>
      </contour>
      <contour>
        <pt x="742" y="170" on="1"/>
        <pt x="929" y="170" on="0"/>
        <pt x="1034" y="392" on="1"/>
        <pt x="1104" y="540" on="0"/>
        <pt x="1104" y="755" on="1"/>
        <pt x="1104" y="1008" on="0"/>
        <pt x="1036" y="1144" on="1"/>
        <pt x="928" y="1360" on="0"/>
        <pt x="742" y="1360" on="1"/>
        <pt x="557" y="1360" on="0"/>
        <pt x="448" y="1144" on="1"/>
        <pt x="380" y="1010" on="0"/>
        <pt x="380" y="755" on="1"/>
        <pt x="380" y="214" on="1"/>
        <pt x="380" y="170" on="0"/>
        <pt x="430" y="170" on="1"/>
      </contour>
    </TTGlyph>
    <TTGlyph name="Dcaron" xMin="180" yMin="0" xMax="1304" yMax="1966">
      <contour>
        <pt x="430" y="0" on="1"/>
        <pt x="180" y="0" on="0"/>
        <pt x="180" y="214" on="1"/>
        <pt x="180" y="755" on="1"/>
        <pt x="180" y="1046" on="0"/>
        <pt x="276" y="1222" on="1"/>
        <pt x="444" y="1530" on="0"/>
        <pt x="742" y="1530" on="1"/>
        <pt x="1041" y="1530" on="0"/>
        <pt x="1208" y="1222" on="1"/>
        <pt x="1304" y="1046" on="0"/>
        <pt x="1304" y="755" on="1"/>
        <pt x="1304" y="504" on="0"/>
        <pt x="1206" y="314" on="1"/>
        <pt x="1044" y="0" on="0"/>
        <pt x="742" y="0" on="1"/>
      </contour>
      <contour>
        <pt x="742" y="170" on="1"/>
        <pt x="929" y="170" on="0"/>
        <pt x="1034" y="392" on="1"/>
        <pt x="1104" y="540" on="0"/>
        <pt x="1104" y="755" on="1"/>
        <pt x="1104" y="1008" on="0"/>
        <pt x="1036" y="1144" on="1"/>
        <pt x="928" y="1360" on="0"/>
        <pt x="742" y="1360" on="1"/>
        <pt x="557" y="1360" on="0"/>
        <pt x="448" y="1144" on="1"/>
        <pt x="380" y="1010" on="0"/>
        <pt x="380" y="755" on="1"/>
        <pt x="380" y="214" on="1"/>
        <pt x="380" y="170" on="0"/>
        <pt x="430" y="170" on="1"/>
      </contour>
      <contour>
        <pt x="628" y="1566" on="1"/>
        <pt x="415" y="1911" on="1"/>
        <pt x="531" y="1966" on="1"/>
        <pt x="541" y="1966" on="1"/>
        <pt x="691" y="1758" on="1"/>
        <pt x="839" y="1966" on="1"/>
        <pt x="849" y="1966" on="1"/>
        <pt x="967" y="1911" on="1"/>
        <pt x="814" y="1650" on="1"/>
        <pt x="638" y="1566" on="1"/>
      </contour>
    </TTGlyph>
    <TTGlyph name="Dcroat" xMin="50" yMin="0" xMax="1304" yMax="1530">
      <contour>
        <pt x="742" y="170" on="1"/>
        <pt x="929" y="170" on="0"/>
        <pt x="1034" y="392" on="1"/>
        <pt x="1104" y="540" on="0"/>
        <pt x="1104" y="755" on="1"/>
        <pt x="1104" y="1008" on="0"/>
        <pt x="1036" y="1144" on="1"/>
        <pt x="928" y="1360" on="0"/>
        <pt x="742" y="1360" on="1"/>
        <pt x="557" y="1360" on="0"/>
        <pt x="448" y="1144" on="1"/>
        <pt x="392" y="1033" on="0"/>
        <pt x="382" y="840" on="1"/>
        <pt x="851" y="840" on="1"/>
        <pt x="851" y="830" on="1"/>
        <pt x="776" y="670" on="1"/>
        <pt x="380" y="670" on="1"/>
        <pt x="380" y="214" on="1"/>
        <pt x="380" y="170" on="0"/>
        <pt x="430" y="170" on="1"/>
      </contour>
      <contour>
        <pt x="430" y="0" on="1"/>
        <pt x="180" y="0" on="0"/>
        <pt x="180" y="214" on="1"/>
        <pt x="180" y="670" on="1"/>
        <pt x="50" y="670" on="1"/>
        <pt x="50" y="680" on="1"/>
        <pt x="125" y="840" on="1"/>
        <pt x="182" y="840" on="1"/>
        <pt x="194" y="1072" on="0"/>
        <pt x="276" y="1222" on="1"/>
        <pt x="444" y="1530" on="0"/>
        <pt x="742" y="1530" on="1"/>
        <pt x="1041" y="1530" on="0"/>
        <pt x="1208" y="1222" on="1"/>
        <pt x="1304" y="1045" on="0"/>
        <pt x="1304" y="755" on="1"/>
        <pt x="1304" y="504" on="0"/>
        <pt x="1206" y="314" on="1"/>
        <pt x="1044" y="0" on="0"/>
        <pt x="742" y="0" on="1"/>
      </contour>
    </TTGlyph>
    <TTGlyph name="Delta" xMin="50" yMin="0" xMax="1088" yMax="1550">
      <contour>
        <pt x="243" y="0" on="1"/>
        <pt x="50" y="0" on="0"/>
        <pt x="50" y="134" on="1"/>
        <pt x="50" y="228" on="0"/>
        <pt x="123" y="435" on="1"/>
        <pt x="466" y="1468" on="1"/>
        <pt x="639" y="1550" on="1"/>
        <pt x="649" y="1550" on="1"/>
        <pt x="1015" y="435" on="1"/>
        <pt x="1088" y="230" on="0"/>
        <pt x="1088" y="134" on="1"/>
        <pt x="1088" y="0" on="0"/>
        <pt x="895" y="0" on="1"/>
      </contour>
      <contour>
        <pt x="243" y="170" on="1"/>
        <pt x="892" y="170" on="1"/>
        <pt x="571" y="1215" on="1"/>
      </contour>
    </TTGlyph>
    <TTGlyph name="E" xMin="180" yMin="0" xMax="1132" yMax="1530">
      <contour>
        <pt x="430" y="0" on="1"/>
        <pt x="180" y="0" on="0"/>
        <pt x="180" y="214" on="1"/>
        <pt x="180" y="755" on="1"/>
        <pt x="180" y="1046" on="0"/>
        <pt x="276" y="1222" on="1"/>
        <pt x="444" y="1530" on="0"/>
        <pt x="742" y="1530" on="1"/>
        <pt x="1010" y="1530" on="1"/>
        <pt x="1010" y="1520" on="1"/>
        <pt x="935" y="1360" on="1"/>
        <pt x="742" y="1360" on="1"/>
        <pt x="556" y="1360" on="0"/>
        <pt x="448" y="1144" on="1"/>
        <pt x="392" y="1032" on="0"/>
        <pt x="382" y="840" on="1"/>
        <pt x="950" y="840" on="1"/>
        <pt x="950" y="830" on="1"/>
        <pt x="875" y="670" on="1"/>
        <pt x="380" y="670" on="1"/>
        <pt x="380" y="214" on="1"/>
        <pt x="380" y="170" on="0"/>
        <pt x="430" y="170" on="1"/>
        <pt x="824" y="170" on="1"/>
        <pt x="942" y="170" on="0"/>
        <pt x="972" y="287" on="1"/>
        <pt x="982" y="287" on="1"/>
        <pt x="1132" y="216" on="1"/>
        <pt x="1072" y="0" on="0"/>
        <pt x="824" y="0" on="1"/>
      </contour>
    </TTGlyph>
    <TTGlyph name="Eacute" xMin="180" yMin="0" xMax="1132" yMax="1966">
      <contour>
        <pt x="430" y="0" on="1"/>
        <pt x="180" y="0" on="0"/>
        <pt x="180" y="214" on="1"/>
        <pt x="180" y="755" on="1"/>
        <pt x="180" y="1046" on="0"/>
        <pt x="276" y="1222" on="1"/>
        <pt x="444" y="1530" on="0"/>
        <pt x="742" y="1530" on="1"/>
        <pt x="1010" y="1530" on="1"/>
        <pt x="1010" y="1520" on="1"/>
        <pt x="935" y="1360" on="1"/>
        <pt x="742" y="1360" on="1"/>
        <pt x="556" y="1360" on="0"/>
        <pt x="448" y="1144" on="1"/>
        <pt x="392" y="1032" on="0"/>
        <pt x="382" y="840" on="1"/>
        <pt x="950" y="840" on="1"/>
        <pt x="950" y="830" on="1"/>
        <pt x="875" y="670" on="1"/>
        <pt x="380" y="670" on="1"/>
        <pt x="380" y="214" on="1"/>
        <pt x="380" y="170" on="0"/>
        <pt x="430" y="170" on="1"/>
        <pt x="824" y="170" on="1"/>
        <pt x="942" y="170" on="0"/>
        <pt x="972" y="287" on="1"/>
        <pt x="982" y="287" on="1"/>
        <pt x="1132" y="216" on="1"/>
        <pt x="1072" y="0" on="0"/>
        <pt x="824" y="0" on="1"/>
      </contour>
      <contour>
        <pt x="714" y="1966" on="1"/>
        <pt x="724" y="1966" on="1"/>
        <pt x="900" y="1882" on="1"/>
        <pt x="679" y="1566" on="1"/>
        <pt x="669" y="1566" on="1"/>
        <pt x="552" y="1621" on="1"/>
      </contour>
    </TTGlyph>
    <TTGlyph name="Ebreve" xMin="180" yMin="0" xMax="1132" yMax="1947">
      <contour>
        <pt x="430" y="0" on="1"/>
        <pt x="180" y="0" on="0"/>
        <pt x="180" y="214" on="1"/>
        <pt x="180" y="755" on="1"/>
        <pt x="180" y="1046" on="0"/>
        <pt x="276" y="1222" on="1"/>
        <pt x="444" y="1530" on="0"/>
        <pt x="742" y="1530" on="1"/>
        <pt x="1010" y="1530" on="1"/>
        <pt x="1010" y="1520" on="1"/>
        <pt x="935" y="1360" on="1"/>
        <pt x="742" y="1360" on="1"/>
        <pt x="556" y="1360" on="0"/>
        <pt x="448" y="1144" on="1"/>
        <pt x="392" y="1032" on="0"/>
        <pt x="382" y="840" on="1"/>
        <pt x="950" y="840" on="1"/>
        <pt x="950" y="830" on="1"/>
        <pt x="875" y="670" on="1"/>
        <pt x="380" y="670" on="1"/>
        <pt x="380" y="214" on="1"/>
        <pt x="380" y="170" on="0"/>
        <pt x="430" y="170" on="1"/>
        <pt x="824" y="170" on="1"/>
        <pt x="942" y="170" on="0"/>
        <pt x="972" y="287" on="1"/>
        <pt x="982" y="287" on="1"/>
        <pt x="1132" y="216" on="1"/>
        <pt x="1072" y="0" on="0"/>
        <pt x="824" y="0" on="1"/>
      </contour>
      <contour>
        <pt x="368" y="1788" on="1"/>
        <pt x="368" y="1798" on="1"/>
        <pt x="442" y="1947" on="1"/>
        <pt x="514" y="1813" on="0"/>
        <pt x="714" y="1813" on="0"/>
        <pt x="786" y="1947" on="1"/>
        <pt x="862" y="1798" on="1"/>
        <pt x="862" y="1788" on="1"/>
        <pt x="760" y="1638" on="0"/>
        <pt x="612" y="1638" on="1"/>
        <pt x="458" y="1638" on="0"/>
      </contour>
    </TTGlyph>
    <TTGlyph name="Ecaron" xMin="180" yMin="0" xMax="1132" yMax="1966">
      <contour>
        <pt x="430" y="0" on="1"/>
        <pt x="180" y="0" on="0"/>
        <pt x="180" y="214" on="1"/>
        <pt x="180" y="755" on="1"/>
        <pt x="180" y="1046" on="0"/>
        <pt x="276" y="1222" on="1"/>
        <pt x="444" y="1530" on="0"/>
        <pt x="742" y="1530" on="1"/>
        <pt x="1010" y="1530" on="1"/>
        <pt x="1010" y="1520" on="1"/>
        <pt x="935" y="1360" on="1"/>
        <pt x="742" y="1360" on="1"/>
        <pt x="556" y="1360" on="0"/>
        <pt x="448" y="1144" on="1"/>
        <pt x="392" y="1032" on="0"/>
        <pt x="382" y="840" on="1"/>
        <pt x="950" y="840" on="1"/>
        <pt x="950" y="830" on="1"/>
        <pt x="875" y="670" on="1"/>
        <pt x="380" y="670" on="1"/>
        <pt x="380" y="214" on="1"/>
        <pt x="380" y="170" on="0"/>
        <pt x="430" y="170" on="1"/>
        <pt x="824" y="170" on="1"/>
        <pt x="942" y="170" on="0"/>
        <pt x="972" y="287" on="1"/>
        <pt x="982" y="287" on="1"/>
        <pt x="1132" y="216" on="1"/>
        <pt x="1072" y="0" on="0"/>
        <pt x="824" y="0" on="1"/>
      </contour>
      <contour>
        <pt x="563" y="1566" on="1"/>
        <pt x="350" y="1911" on="1"/>
        <pt x="466" y="1966" on="1"/>
        <pt x="476" y="1966" on="1"/>
        <pt x="626" y="1758" on="1"/>
        <pt x="774" y="1966" on="1"/>
        <pt x="784" y="1966" on="1"/>
        <pt x="902" y="1911" on="1"/>
        <pt x="749" y="1650" on="1"/>
        <pt x="573" y="1566" on="1"/>
      </contour>
    </TTGlyph>
    <TTGlyph name="Ecircumflex" xMin="180" yMin="0" xMax="1132" yMax="1966">
      <contour>
        <pt x="430" y="0" on="1"/>
        <pt x="180" y="0" on="0"/>
        <pt x="180" y="214" on="1"/>
        <pt x="180" y="755" on="1"/>
        <pt x="180" y="1046" on="0"/>
        <pt x="276" y="1222" on="1"/>
        <pt x="444" y="1530" on="0"/>
        <pt x="742" y="1530" on="1"/>
        <pt x="1010" y="1530" on="1"/>
        <pt x="1010" y="1520" on="1"/>
        <pt x="935" y="1360" on="1"/>
        <pt x="742" y="1360" on="1"/>
        <pt x="556" y="1360" on="0"/>
        <pt x="448" y="1144" on="1"/>
        <pt x="392" y="1032" on="0"/>
        <pt x="382" y="840" on="1"/>
        <pt x="950" y="840" on="1"/>
        <pt x="950" y="830" on="1"/>
        <pt x="875" y="670" on="1"/>
        <pt x="380" y="670" on="1"/>
        <pt x="380" y="214" on="1"/>
        <pt x="380" y="170" on="0"/>
        <pt x="430" y="170" on="1"/>
        <pt x="824" y="170" on="1"/>
        <pt x="942" y="170" on="0"/>
        <pt x="972" y="287" on="1"/>
        <pt x="982" y="287" on="1"/>
        <pt x="1132" y="216" on="1"/>
        <pt x="1072" y="0" on="0"/>
        <pt x="824" y="0" on="1"/>
      </contour>
      <contour>
        <pt x="343" y="1621" on="1"/>
        <pt x="496" y="1882" on="1"/>
        <pt x="672" y="1966" on="1"/>
        <pt x="682" y="1966" on="1"/>
        <pt x="895" y="1621" on="1"/>
        <pt x="779" y="1566" on="1"/>
        <pt x="769" y="1566" on="1"/>
        <pt x="619" y="1774" on="1"/>
        <pt x="471" y="1566" on="1"/>
        <pt x="461" y="1566" on="1"/>
      </contour>
    </TTGlyph>
    <TTGlyph name="Edieresis" xMin="180" yMin="0" xMax="1132" yMax="1925">
      <contour>
        <pt x="430" y="0" on="1"/>
        <pt x="180" y="0" on="0"/>
        <pt x="180" y="214" on="1"/>
        <pt x="180" y="755" on="1"/>
        <pt x="180" y="1046" on="0"/>
        <pt x="276" y="1222" on="1"/>
        <pt x="444" y="1530" on="0"/>
        <pt x="742" y="1530" on="1"/>
        <pt x="1010" y="1530" on="1"/>
        <pt x="1010" y="1520" on="1"/>
        <pt x="935" y="1360" on="1"/>
        <pt x="742" y="1360" on="1"/>
        <pt x="556" y="1360" on="0"/>
        <pt x="448" y="1144" on="1"/>
        <pt x="392" y="1032" on="0"/>
        <pt x="382" y="840" on="1"/>
        <pt x="950" y="840" on="1"/>
        <pt x="950" y="830" on="1"/>
        <pt x="875" y="670" on="1"/>
        <pt x="380" y="670" on="1"/>
        <pt x="380" y="214" on="1"/>
        <pt x="380" y="170" on="0"/>
        <pt x="430" y="170" on="1"/>
        <pt x="824" y="170" on="1"/>
        <pt x="942" y="170" on="0"/>
        <pt x="972" y="287" on="1"/>
        <pt x="982" y="287" on="1"/>
        <pt x="1132" y="216" on="1"/>
        <pt x="1072" y="0" on="0"/>
        <pt x="824" y="0" on="1"/>
      </contour>
      <contour>
        <pt x="647" y="1752" on="0"/>
        <pt x="647" y="1853" on="0"/>
        <pt x="717" y="1925" on="0"/>
        <pt x="817" y="1925" on="0"/>
        <pt x="887" y="1853" on="0"/>
        <pt x="887" y="1752" on="0"/>
        <pt x="817" y="1680" on="0"/>
        <pt x="717" y="1680" on="0"/>
      </contour>
      <contour>
        <pt x="347" y="1752" on="0"/>
        <pt x="347" y="1853" on="0"/>
        <pt x="417" y="1925" on="0"/>
        <pt x="517" y="1925" on="0"/>
        <pt x="587" y="1853" on="0"/>
        <pt x="587" y="1752" on="0"/>
        <pt x="517" y="1680" on="0"/>
        <pt x="417" y="1680" on="0"/>
      </contour>
    </TTGlyph>
    <TTGlyph name="Edotaccent" xMin="180" yMin="0" xMax="1132" yMax="1925">
      <contour>
        <pt x="430" y="0" on="1"/>
        <pt x="180" y="0" on="0"/>
        <pt x="180" y="214" on="1"/>
        <pt x="180" y="755" on="1"/>
        <pt x="180" y="1046" on="0"/>
        <pt x="276" y="1222" on="1"/>
        <pt x="444" y="1530" on="0"/>
        <pt x="742" y="1530" on="1"/>
        <pt x="1010" y="1530" on="1"/>
        <pt x="1010" y="1520" on="1"/>
        <pt x="935" y="1360" on="1"/>
        <pt x="742" y="1360" on="1"/>
        <pt x="556" y="1360" on="0"/>
        <pt x="448" y="1144" on="1"/>
        <pt x="392" y="1032" on="0"/>
        <pt x="382" y="840" on="1"/>
        <pt x="950" y="840" on="1"/>
        <pt x="950" y="830" on="1"/>
        <pt x="875" y="670" on="1"/>
        <pt x="380" y="670" on="1"/>
        <pt x="380" y="214" on="1"/>
        <pt x="380" y="170" on="0"/>
        <pt x="430" y="170" on="1"/>
        <pt x="824" y="170" on="1"/>
        <pt x="942" y="170" on="0"/>
        <pt x="972" y="287" on="1"/>
        <pt x="982" y="287" on="1"/>
        <pt x="1132" y="216" on="1"/>
        <pt x="1072" y="0" on="0"/>
        <pt x="824" y="0" on="1"/>
      </contour>
      <contour>
        <pt x="496" y="1752" on="0"/>
        <pt x="496" y="1853" on="0"/>
        <pt x="566" y="1925" on="0"/>
        <pt x="666" y="1925" on="0"/>
        <pt x="736" y="1853" on="0"/>
        <pt x="736" y="1752" on="0"/>
        <pt x="666" y="1680" on="0"/>
        <pt x="566" y="1680" on="0"/>
      </contour>
    </TTGlyph>
    <TTGlyph name="Egrave" xMin="180" yMin="0" xMax="1132" yMax="1966">
      <contour>
        <pt x="430" y="0" on="1"/>
        <pt x="180" y="0" on="0"/>
        <pt x="180" y="214" on="1"/>
        <pt x="180" y="755" on="1"/>
        <pt x="180" y="1046" on="0"/>
        <pt x="276" y="1222" on="1"/>
        <pt x="444" y="1530" on="0"/>
        <pt x="742" y="1530" on="1"/>
        <pt x="1010" y="1530" on="1"/>
        <pt x="1010" y="1520" on="1"/>
        <pt x="935" y="1360" on="1"/>
        <pt x="742" y="1360" on="1"/>
        <pt x="556" y="1360" on="0"/>
        <pt x="448" y="1144" on="1"/>
        <pt x="392" y="1032" on="0"/>
        <pt x="382" y="840" on="1"/>
        <pt x="950" y="840" on="1"/>
        <pt x="950" y="830" on="1"/>
        <pt x="875" y="670" on="1"/>
        <pt x="380" y="670" on="1"/>
        <pt x="380" y="214" on="1"/>
        <pt x="380" y="170" on="0"/>
        <pt x="430" y="170" on="1"/>
        <pt x="824" y="170" on="1"/>
        <pt x="942" y="170" on="0"/>
        <pt x="972" y="287" on="1"/>
        <pt x="982" y="287" on="1"/>
        <pt x="1132" y="216" on="1"/>
        <pt x="1072" y="0" on="0"/>
        <pt x="824" y="0" on="1"/>
      </contour>
      <contour>
        <pt x="536" y="1966" on="1"/>
        <pt x="546" y="1966" on="1"/>
        <pt x="708" y="1621" on="1"/>
        <pt x="591" y="1566" on="1"/>
        <pt x="581" y="1566" on="1"/>
        <pt x="360" y="1882" on="1"/>
      </contour>
    </TTGlyph>
    <TTGlyph name="Emacron" xMin="180" yMin="0" xMax="1132" yMax="1820">
      <contour>
        <pt x="430" y="0" on="1"/>
        <pt x="180" y="0" on="0"/>
        <pt x="180" y="214" on="1"/>
        <pt x="180" y="755" on="1"/>
        <pt x="180" y="1046" on="0"/>
        <pt x="276" y="1222" on="1"/>
        <pt x="444" y="1530" on="0"/>
        <pt x="742" y="1530" on="1"/>
        <pt x="1010" y="1530" on="1"/>
        <pt x="1010" y="1520" on="1"/>
        <pt x="935" y="1360" on="1"/>
        <pt x="742" y="1360" on="1"/>
        <pt x="556" y="1360" on="0"/>
        <pt x="448" y="1144" on="1"/>
        <pt x="392" y="1032" on="0"/>
        <pt x="382" y="840" on="1"/>
        <pt x="950" y="840" on="1"/>
        <pt x="950" y="830" on="1"/>
        <pt x="875" y="670" on="1"/>
        <pt x="380" y="670" on="1"/>
        <pt x="380" y="214" on="1"/>
        <pt x="380" y="170" on="0"/>
        <pt x="430" y="170" on="1"/>
        <pt x="824" y="170" on="1"/>
        <pt x="942" y="170" on="0"/>
        <pt x="972" y="287" on="1"/>
        <pt x="982" y="287" on="1"/>
        <pt x="1132" y="216" on="1"/>
        <pt x="1072" y="0" on="0"/>
        <pt x="824" y="0" on="1"/>
      </contour>
      <contour>
        <pt x="376" y="1638" on="1"/>
        <pt x="376" y="1648" on="1"/>
        <pt x="457" y="1820" on="1"/>
        <pt x="915" y="1820" on="1"/>
        <pt x="915" y="1810" on="1"/>
        <pt x="834" y="1638" on="1"/>
      </contour>
    </TTGlyph>
    <TTGlyph name="Eng" xMin="180" yMin="-440" xMax="1304" yMax="1530">
      <contour>
        <pt x="180" y="-40" on="1"/>
        <pt x="180" y="755" on="1"/>
        <pt x="180" y="1046" on="0"/>
        <pt x="276" y="1222" on="1"/>
        <pt x="444" y="1530" on="0"/>
        <pt x="742" y="1530" on="1"/>
        <pt x="1041" y="1530" on="0"/>
        <pt x="1208" y="1222" on="1"/>
        <pt x="1304" y="1046" on="0"/>
        <pt x="1304" y="755" on="1"/>
        <pt x="1304" y="355" on="1"/>
        <pt x="1304" y="69" on="0"/>
        <pt x="1208" y="-112" on="1"/>
        <pt x="1073" y="-366" on="0"/>
        <pt x="856" y="-440" on="1"/>
        <pt x="846" y="-440" on="1"/>
        <pt x="771" y="-291" on="1"/>
        <pt x="949" y="-207" on="0"/>
        <pt x="1036" y="-34" on="1"/>
        <pt x="1104" y="99" on="0"/>
        <pt x="1104" y="355" on="1"/>
        <pt x="1104" y="755" on="1"/>
        <pt x="1104" y="1009" on="0"/>
        <pt x="1036" y="1144" on="1"/>
        <pt x="928" y="1360" on="0"/>
        <pt x="556" y="1360" on="0"/>
        <pt x="448" y="1144" on="1"/>
        <pt x="380" y="1009" on="0"/>
        <pt x="380" y="755" on="1"/>
        <pt x="380" y="50" on="1"/>
        <pt x="190" y="-40" on="1"/>
      </contour>
    </TTGlyph>
    <TTGlyph name="Eogonek" xMin="180" yMin="-450" xMax="1132" yMax="1530">
      <contour>
        <pt x="430" y="0" on="1"/>
        <pt x="180" y="0" on="0"/>
        <pt x="180" y="214" on="1"/>
        <pt x="180" y="755" on="1"/>
        <pt x="180" y="1046" on="0"/>
        <pt x="276" y="1222" on="1"/>
        <pt x="444" y="1530" on="0"/>
        <pt x="742" y="1530" on="1"/>
        <pt x="1010" y="1530" on="1"/>
        <pt x="1010" y="1520" on="1"/>
        <pt x="935" y="1360" on="1"/>
        <pt x="742" y="1360" on="1"/>
        <pt x="556" y="1360" on="0"/>
        <pt x="448" y="1144" on="1"/>
        <pt x="392" y="1032" on="0"/>
        <pt x="382" y="840" on="1"/>
        <pt x="950" y="840" on="1"/>
        <pt x="950" y="830" on="1"/>
        <pt x="875" y="670" on="1"/>
        <pt x="380" y="670" on="1"/>
        <pt x="380" y="214" on="1"/>
        <pt x="380" y="170" on="0"/>
        <pt x="430" y="170" on="1"/>
        <pt x="824" y="170" on="1"/>
        <pt x="942" y="170" on="0"/>
        <pt x="972" y="287" on="1"/>
        <pt x="982" y="287" on="1"/>
        <pt x="1132" y="216" on="1"/>
        <pt x="1104" y="115" on="0"/>
        <pt x="1035" y="62" on="1"/>
        <pt x="937" y="-18" on="0"/>
        <pt x="937" y="-152" on="1"/>
        <pt x="937" y="-273" on="0"/>
        <pt x="1071" y="-360" on="1"/>
        <pt x="881" y="-450" on="1"/>
        <pt x="871" y="-450" on="1"/>
        <pt x="762" y="-343" on="0"/>
        <pt x="762" y="-206" on="1"/>
        <pt x="762" y="-91" on="0"/>
        <pt x="849" y="1" on="1"/>
        <pt x="837" y="0" on="0"/>
        <pt x="824" y="0" on="1"/>
      </contour>
    </TTGlyph>
    <TTGlyph name="Eth" xMin="50" yMin="0" xMax="1304" yMax="1530">
      <contour>
        <pt x="742" y="170" on="1"/>
        <pt x="929" y="170" on="0"/>
        <pt x="1034" y="392" on="1"/>
        <pt x="1104" y="540" on="0"/>
        <pt x="1104" y="755" on="1"/>
        <pt x="1104" y="1008" on="0"/>
        <pt x="1036" y="1144" on="1"/>
        <pt x="928" y="1360" on="0"/>
        <pt x="742" y="1360" on="1"/>
        <pt x="557" y="1360" on="0"/>
        <pt x="448" y="1144" on="1"/>
        <pt x="392" y="1033" on="0"/>
        <pt x="382" y="840" on="1"/>
        <pt x="851" y="840" on="1"/>
        <pt x="851" y="830" on="1"/>
        <pt x="776" y="670" on="1"/>
        <pt x="380" y="670" on="1"/>
        <pt x="380" y="214" on="1"/>
        <pt x="380" y="170" on="0"/>
        <pt x="430" y="170" on="1"/>
      </contour>
      <contour>
        <pt x="430" y="0" on="1"/>
        <pt x="180" y="0" on="0"/>
        <pt x="180" y="214" on="1"/>
        <pt x="180" y="670" on="1"/>
        <pt x="50" y="670" on="1"/>
        <pt x="50" y="680" on="1"/>
        <pt x="125" y="840" on="1"/>
        <pt x="182" y="840" on="1"/>
        <pt x="194" y="1072" on="0"/>
        <pt x="276" y="1222" on="1"/>
        <pt x="444" y="1530" on="0"/>
        <pt x="742" y="1530" on="1"/>
        <pt x="1041" y="1530" on="0"/>
        <pt x="1208" y="1222" on="1"/>
        <pt x="1304" y="1045" on="0"/>
        <pt x="1304" y="755" on="1"/>
        <pt x="1304" y="504" on="0"/>
        <pt x="1206" y="314" on="1"/>
        <pt x="1044" y="0" on="0"/>
        <pt x="742" y="0" on="1"/>
      </contour>
    </TTGlyph>
    <TTGlyph name="Euro" xMin="150" yMin="-20" xMax="1432" yMax="1530">
      <contour>
        <pt x="1064" y="689" on="1"/>
        <pt x="1064" y="679" on="1"/>
        <pt x="983" y="507" on="1"/>
        <pt x="557" y="507" on="1"/>
        <pt x="574" y="424" on="0"/>
        <pt x="604" y="366" on="1"/>
        <pt x="716" y="150" on="0"/>
        <pt x="898" y="150" on="1"/>
        <pt x="1083" y="150" on="0"/>
        <pt x="1192" y="366" on="1"/>
        <pt x="1422" y="474" on="1"/>
        <pt x="1432" y="474" on="1"/>
        <pt x="1413" y="378" on="0"/>
        <pt x="1364" y="288" on="1"/>
        <pt x="1196" y="-20" on="0"/>
        <pt x="898" y="-20" on="1"/>
        <pt x="601" y="-20" on="0"/>
        <pt x="432" y="288" on="1"/>
        <pt x="381" y="381" on="0"/>
        <pt x="357" y="507" on="1"/>
        <pt x="150" y="507" on="1"/>
        <pt x="150" y="517" on="1"/>
        <pt x="231" y="689" on="1"/>
        <pt x="337" y="689" on="1"/>
        <pt x="336" y="721" on="0"/>
        <pt x="336" y="755" on="1"/>
        <pt x="336" y="792" on="0"/>
        <pt x="338" y="828" on="1"/>
        <pt x="150" y="828" on="1"/>
        <pt x="150" y="838" on="1"/>
        <pt x="231" y="1010" on="1"/>
        <pt x="359" y="1010" on="1"/>
        <pt x="383" y="1131" on="0"/>
        <pt x="432" y="1222" on="1"/>
        <pt x="598" y="1530" on="0"/>
        <pt x="898" y="1530" on="1"/>
        <pt x="1197" y="1530" on="0"/>
        <pt x="1364" y="1222" on="1"/>
        <pt x="1202" y="1144" on="1"/>
        <pt x="1192" y="1144" on="1"/>
        <pt x="1084" y="1360" on="0"/>
        <pt x="898" y="1360" on="1"/>
        <pt x="710" y="1360" on="0"/>
        <pt x="604" y="1144" on="1"/>
        <pt x="576" y="1087" on="0"/>
        <pt x="559" y="1010" on="1"/>
        <pt x="1064" y="1010" on="1"/>
        <pt x="1064" y="1000" on="1"/>
        <pt x="983" y="828" on="1"/>
        <pt x="538" y="828" on="1"/>
        <pt x="536" y="793" on="0"/>
        <pt x="536" y="755" on="1"/>
        <pt x="536" y="721" on="0"/>
        <pt x="537" y="689" on="1"/>
      </contour>
    </TTGlyph>
    <TTGlyph name="F" xMin="180" yMin="-40" xMax="1010" yMax="1530">
      <contour>
        <pt x="180" y="-40" on="1"/>
        <pt x="180" y="755" on="1"/>
        <pt x="180" y="1047" on="0"/>
        <pt x="276" y="1222" on="1"/>
        <pt x="444" y="1530" on="0"/>
        <pt x="742" y="1530" on="1"/>
        <pt x="1010" y="1530" on="1"/>
        <pt x="1010" y="1520" on="1"/>
        <pt x="935" y="1360" on="1"/>
        <pt x="742" y="1360" on="1"/>
        <pt x="556" y="1360" on="0"/>
        <pt x="448" y="1144" on="1"/>
        <pt x="392" y="1032" on="0"/>
        <pt x="382" y="840" on="1"/>
        <pt x="950" y="840" on="1"/>
        <pt x="950" y="830" on="1"/>
        <pt x="875" y="670" on="1"/>
        <pt x="380" y="670" on="1"/>
        <pt x="380" y="50" on="1"/>
        <pt x="380" y="50" on="0"/>
        <pt x="190" y="-40" on="1"/>
      </contour>
    </TTGlyph>
    <TTGlyph name="G" xMin="150" yMin="-20" xMax="1274" yMax="1530">
      <contour>
        <pt x="1274" y="840" on="1"/>
        <pt x="1274" y="755" on="1"/>
        <pt x="1274" y="464" on="0"/>
        <pt x="1178" y="288" on="1"/>
        <pt x="1011" y="-20" on="0"/>
        <pt x="712" y="-20" on="1"/>
        <pt x="414" y="-20" on="0"/>
        <pt x="246" y="288" on="1"/>
        <pt x="150" y="464" on="0"/>
        <pt x="150" y="1046" on="0"/>
        <pt x="246" y="1222" on="1"/>
        <pt x="414" y="1530" on="0"/>
        <pt x="712" y="1530" on="1"/>
        <pt x="1011" y="1530" on="0"/>
        <pt x="1178" y="1222" on="1"/>
        <pt x="1016" y="1144" on="1"/>
        <pt x="1006" y="1144" on="1"/>
        <pt x="898" y="1360" on="0"/>
        <pt x="712" y="1360" on="1"/>
        <pt x="528" y="1360" on="0"/>
        <pt x="418" y="1144" on="1"/>
        <pt x="350" y="1009" on="0"/>
        <pt x="350" y="755" on="1"/>
        <pt x="350" y="498" on="0"/>
        <pt x="418" y="366" on="1"/>
        <pt x="529" y="150" on="0"/>
        <pt x="712" y="150" on="1"/>
        <pt x="897" y="150" on="0"/>
        <pt x="1006" y="366" on="1"/>
        <pt x="1062" y="478" on="0"/>
        <pt x="1072" y="670" on="1"/>
        <pt x="695" y="670" on="1"/>
        <pt x="695" y="680" on="1"/>
        <pt x="770" y="840" on="1"/>
      </contour>
    </TTGlyph>
    <TTGlyph name="Gbreve" xMin="150" yMin="-20" xMax="1274" yMax="1947">
      <contour>
        <pt x="1274" y="840" on="1"/>
        <pt x="1274" y="755" on="1"/>
        <pt x="1274" y="464" on="0"/>
        <pt x="1178" y="288" on="1"/>
        <pt x="1011" y="-20" on="0"/>
        <pt x="712" y="-20" on="1"/>
        <pt x="414" y="-20" on="0"/>
        <pt x="246" y="288" on="1"/>
        <pt x="150" y="464" on="0"/>
        <pt x="150" y="1046" on="0"/>
        <pt x="246" y="1222" on="1"/>
        <pt x="414" y="1530" on="0"/>
        <pt x="712" y="1530" on="1"/>
        <pt x="1011" y="1530" on="0"/>
        <pt x="1178" y="1222" on="1"/>
        <pt x="1016" y="1144" on="1"/>
        <pt x="1006" y="1144" on="1"/>
        <pt x="898" y="1360" on="0"/>
        <pt x="712" y="1360" on="1"/>
        <pt x="528" y="1360" on="0"/>
        <pt x="418" y="1144" on="1"/>
        <pt x="350" y="1009" on="0"/>
        <pt x="350" y="755" on="1"/>
        <pt x="350" y="498" on="0"/>
        <pt x="418" y="366" on="1"/>
        <pt x="529" y="150" on="0"/>
        <pt x="712" y="150" on="1"/>
        <pt x="897" y="150" on="0"/>
        <pt x="1006" y="366" on="1"/>
        <pt x="1062" y="478" on="0"/>
        <pt x="1072" y="670" on="1"/>
        <pt x="695" y="670" on="1"/>
        <pt x="695" y="680" on="1"/>
        <pt x="770" y="840" on="1"/>
      </contour>
      <contour>
        <pt x="468" y="1788" on="1"/>
        <pt x="468" y="1798" on="1"/>
        <pt x="542" y="1947" on="1"/>
        <pt x="614" y="1813" on="0"/>
        <pt x="814" y="1813" on="0"/>
        <pt x="886" y="1947" on="1"/>
        <pt x="962" y="1798" on="1"/>
        <pt x="962" y="1788" on="1"/>
        <pt x="860" y="1638" on="0"/>
        <pt x="712" y="1638" on="1"/>
        <pt x="558" y="1638" on="0"/>
      </contour>
    </TTGlyph>
    <TTGlyph name="Gcircumflex" xMin="150" yMin="-20" xMax="1274" yMax="1966">
      <contour>
        <pt x="1274" y="840" on="1"/>
        <pt x="1274" y="755" on="1"/>
        <pt x="1274" y="464" on="0"/>
        <pt x="1178" y="288" on="1"/>
        <pt x="1011" y="-20" on="0"/>
        <pt x="712" y="-20" on="1"/>
        <pt x="414" y="-20" on="0"/>
        <pt x="246" y="288" on="1"/>
        <pt x="150" y="464" on="0"/>
        <pt x="150" y="1046" on="0"/>
        <pt x="246" y="1222" on="1"/>
        <pt x="414" y="1530" on="0"/>
        <pt x="712" y="1530" on="1"/>
        <pt x="1011" y="1530" on="0"/>
        <pt x="1178" y="1222" on="1"/>
        <pt x="1016" y="1144" on="1"/>
        <pt x="1006" y="1144" on="1"/>
        <pt x="898" y="1360" on="0"/>
        <pt x="712" y="1360" on="1"/>
        <pt x="528" y="1360" on="0"/>
        <pt x="418" y="1144" on="1"/>
        <pt x="350" y="1009" on="0"/>
        <pt x="350" y="755" on="1"/>
        <pt x="350" y="498" on="0"/>
        <pt x="418" y="366" on="1"/>
        <pt x="529" y="150" on="0"/>
        <pt x="712" y="150" on="1"/>
        <pt x="897" y="150" on="0"/>
        <pt x="1006" y="366" on="1"/>
        <pt x="1062" y="478" on="0"/>
        <pt x="1072" y="670" on="1"/>
        <pt x="695" y="670" on="1"/>
        <pt x="695" y="680" on="1"/>
        <pt x="770" y="840" on="1"/>
      </contour>
      <contour>
        <pt x="434" y="1621" on="1"/>
        <pt x="587" y="1882" on="1"/>
        <pt x="763" y="1966" on="1"/>
        <pt x="773" y="1966" on="1"/>
        <pt x="986" y="1621" on="1"/>
        <pt x="870" y="1566" on="1"/>
        <pt x="860" y="1566" on="1"/>
        <pt x="710" y="1774" on="1"/>
        <pt x="562" y="1566" on="1"/>
        <pt x="552" y="1566" on="1"/>
      </contour>
    </TTGlyph>
    <TTGlyph name="Gcommaaccent" xMin="150" yMin="-450" xMax="1274" yMax="1530">
      <contour>
        <pt x="1274" y="840" on="1"/>
        <pt x="1274" y="755" on="1"/>
        <pt x="1274" y="464" on="0"/>
        <pt x="1178" y="288" on="1"/>
        <pt x="1011" y="-20" on="0"/>
        <pt x="712" y="-20" on="1"/>
        <pt x="414" y="-20" on="0"/>
        <pt x="246" y="288" on="1"/>
        <pt x="150" y="464" on="0"/>
        <pt x="150" y="1046" on="0"/>
        <pt x="246" y="1222" on="1"/>
        <pt x="414" y="1530" on="0"/>
        <pt x="712" y="1530" on="1"/>
        <pt x="1011" y="1530" on="0"/>
        <pt x="1178" y="1222" on="1"/>
        <pt x="1016" y="1144" on="1"/>
        <pt x="1006" y="1144" on="1"/>
        <pt x="898" y="1360" on="0"/>
        <pt x="712" y="1360" on="1"/>
        <pt x="528" y="1360" on="0"/>
        <pt x="418" y="1144" on="1"/>
        <pt x="350" y="1009" on="0"/>
        <pt x="350" y="755" on="1"/>
        <pt x="350" y="498" on="0"/>
        <pt x="418" y="366" on="1"/>
        <pt x="529" y="150" on="0"/>
        <pt x="712" y="150" on="1"/>
        <pt x="897" y="150" on="0"/>
        <pt x="1006" y="366" on="1"/>
        <pt x="1062" y="478" on="0"/>
        <pt x="1072" y="670" on="1"/>
        <pt x="695" y="670" on="1"/>
        <pt x="695" y="680" on="1"/>
        <pt x="770" y="840" on="1"/>
      </contour>
      <contour>
        <pt x="596" y="-450" on="1"/>
        <pt x="586" y="-450" on="1"/>
        <pt x="410" y="-366" on="1"/>
        <pt x="631" y="-50" on="1"/>
        <pt x="641" y="-50" on="1"/>
        <pt x="758" y="-105" on="1"/>
      </contour>
    </TTGlyph>
    <TTGlyph name="Gdotaccent" xMin="150" yMin="-20" xMax="1274" yMax="1925">
      <contour>
        <pt x="1274" y="840" on="1"/>
        <pt x="1274" y="755" on="1"/>
        <pt x="1274" y="464" on="0"/>
        <pt x="1178" y="288" on="1"/>
        <pt x="1011" y="-20" on="0"/>
        <pt x="712" y="-20" on="1"/>
        <pt x="414" y="-20" on="0"/>
        <pt x="246" y="288" on="1"/>
        <pt x="150" y="464" on="0"/>
        <pt x="150" y="1046" on="0"/>
        <pt x="246" y="1222" on="1"/>
        <pt x="414" y="1530" on="0"/>
        <pt x="712" y="1530" on="1"/>
        <pt x="1011" y="1530" on="0"/>
        <pt x="1178" y="1222" on="1"/>
        <pt x="1016" y="1144" on="1"/>
        <pt x="1006" y="1144" on="1"/>
        <pt x="898" y="1360" on="0"/>
        <pt x="712" y="1360" on="1"/>
        <pt x="528" y="1360" on="0"/>
        <pt x="418" y="1144" on="1"/>
        <pt x="350" y="1009" on="0"/>
        <pt x="350" y="755" on="1"/>
        <pt x="350" y="498" on="0"/>
        <pt x="418" y="366" on="1"/>
        <pt x="529" y="150" on="0"/>
        <pt x="712" y="150" on="1"/>
        <pt x="897" y="150" on="0"/>
        <pt x="1006" y="366" on="1"/>
        <pt x="1062" y="478" on="0"/>
        <pt x="1072" y="670" on="1"/>
        <pt x="695" y="670" on="1"/>
        <pt x="695" y="680" on="1"/>
        <pt x="770" y="840" on="1"/>
      </contour>
      <contour>
        <pt x="585" y="1752" on="0"/>
        <pt x="585" y="1853" on="0"/>
        <pt x="655" y="1925" on="0"/>
        <pt x="755" y="1925" on="0"/>
        <pt x="825" y="1853" on="0"/>
        <pt x="825" y="1752" on="0"/>
        <pt x="755" y="1680" on="0"/>
        <pt x="655" y="1680" on="0"/>
      </contour>
    </TTGlyph>
    <TTGlyph name="H" xMin="200" yMin="-40" xMax="1304" yMax="1550">
      <contour>
        <pt x="200" y="-40" on="1"/>
        <pt x="200" y="1460" on="1"/>
        <pt x="390" y="1550" on="1"/>
        <pt x="400" y="1550" on="1"/>
        <pt x="400" y="840" on="1"/>
        <pt x="1102" y="840" on="1"/>
        <pt x="1092" y="1033" on="0"/>
        <pt x="1036" y="1144" on="1"/>
        <pt x="949" y="1317" on="0"/>
        <pt x="771" y="1401" on="1"/>
        <pt x="846" y="1550" on="1"/>
        <pt x="856" y="1550" on="1"/>
        <pt x="1073" y="1476" on="0"/>
        <pt x="1208" y="1222" on="1"/>
        <pt x="1304" y="1041" on="0"/>
        <pt x="1304" y="469" on="0"/>
        <pt x="1208" y="288" on="1"/>
        <pt x="1073" y="34" on="0"/>
        <pt x="856" y="-40" on="1"/>
        <pt x="846" y="-40" on="1"/>
        <pt x="771" y="109" on="1"/>
        <pt x="949" y="193" on="0"/>
        <pt x="1036" y="366" on="1"/>
        <pt x="1092" y="477" on="0"/>
        <pt x="1102" y="670" on="1"/>
        <pt x="400" y="670" on="1"/>
        <pt x="400" y="50" on="1"/>
        <pt x="210" y="-40" on="1"/>
      </contour>
    </TTGlyph>
    <TTGlyph name="Hbar" xMin="50" yMin="-40" xMax="1404" yMax="1550">
      <contour>
        <pt x="200" y="-40" on="1"/>
        <pt x="200" y="1230" on="1"/>
        <pt x="50" y="1230" on="1"/>
        <pt x="50" y="1240" on="1"/>
        <pt x="125" y="1400" on="1"/>
        <pt x="200" y="1400" on="1"/>
        <pt x="200" y="1460" on="1"/>
        <pt x="390" y="1550" on="1"/>
        <pt x="400" y="1550" on="1"/>
        <pt x="400" y="1400" on="1"/>
        <pt x="773" y="1400" on="1"/>
        <pt x="771" y="1401" on="1"/>
        <pt x="846" y="1550" on="1"/>
        <pt x="856" y="1550" on="1"/>
        <pt x="984" y="1506" on="0"/>
        <pt x="1084" y="1400" on="1"/>
        <pt x="1404" y="1400" on="1"/>
        <pt x="1404" y="1390" on="1"/>
        <pt x="1329" y="1230" on="1"/>
        <pt x="1204" y="1230" on="1"/>
        <pt x="1302" y="1049" on="0"/>
        <pt x="1302" y="470" on="0"/>
        <pt x="1208" y="288" on="1"/>
        <pt x="1075" y="35" on="0"/>
        <pt x="856" y="-40" on="1"/>
        <pt x="846" y="-40" on="1"/>
        <pt x="771" y="109" on="1"/>
        <pt x="949" y="193" on="0"/>
        <pt x="1036" y="366" on="1"/>
        <pt x="1092" y="477" on="0"/>
        <pt x="1102" y="670" on="1"/>
        <pt x="400" y="670" on="1"/>
        <pt x="400" y="50" on="1"/>
        <pt x="210" y="-40" on="1"/>
      </contour>
      <contour>
        <pt x="983" y="1230" on="1"/>
        <pt x="400" y="1230" on="1"/>
        <pt x="400" y="840" on="1"/>
        <pt x="1102" y="840" on="1"/>
        <pt x="1092" y="1032" on="0"/>
        <pt x="1036" y="1144" on="1"/>
        <pt x="1013" y="1190" on="0"/>
      </contour>
    </TTGlyph>
    <TTGlyph name="Hcircumflex" xMin="200" yMin="-40" xMax="1304" yMax="1966">
      <contour>
        <pt x="200" y="-40" on="1"/>
        <pt x="200" y="1460" on="1"/>
        <pt x="390" y="1550" on="1"/>
        <pt x="400" y="1550" on="1"/>
        <pt x="400" y="840" on="1"/>
        <pt x="1102" y="840" on="1"/>
        <pt x="1092" y="1033" on="0"/>
        <pt x="1036" y="1144" on="1"/>
        <pt x="949" y="1317" on="0"/>
        <pt x="771" y="1401" on="1"/>
        <pt x="846" y="1550" on="1"/>
        <pt x="856" y="1550" on="1"/>
        <pt x="1073" y="1476" on="0"/>
        <pt x="1208" y="1222" on="1"/>
        <pt x="1304" y="1041" on="0"/>
        <pt x="1304" y="469" on="0"/>
        <pt x="1208" y="288" on="1"/>
        <pt x="1073" y="34" on="0"/>
        <pt x="856" y="-40" on="1"/>
        <pt x="846" y="-40" on="1"/>
        <pt x="771" y="109" on="1"/>
        <pt x="949" y="193" on="0"/>
        <pt x="1036" y="366" on="1"/>
        <pt x="1092" y="477" on="0"/>
        <pt x="1102" y="670" on="1"/>
        <pt x="400" y="670" on="1"/>
        <pt x="400" y="50" on="1"/>
        <pt x="210" y="-40" on="1"/>
      </contour>
      <contour>
        <pt x="374" y="1621" on="1"/>
        <pt x="527" y="1882" on="1"/>
        <pt x="703" y="1966" on="1"/>
        <pt x="713" y="1966" on="1"/>
        <pt x="926" y="1621" on="1"/>
        <pt x="810" y="1566" on="1"/>
        <pt x="800" y="1566" on="1"/>
        <pt x="650" y="1774" on="1"/>
        <pt x="502" y="1566" on="1"/>
        <pt x="492" y="1566" on="1"/>
      </contour>
    </TTGlyph>
    <TTGlyph name="I" xMin="200" yMin="-40" xMax="400" yMax="1550">
      <contour>
        <pt x="200" y="-40" on="1"/>
        <pt x="200" y="1460" on="1"/>
        <pt x="390" y="1550" on="1"/>
        <pt x="400" y="1550" on="1"/>
        <pt x="400" y="50" on="1"/>
        <pt x="210" y="-40" on="1"/>
      </contour>
    </TTGlyph>
    <TTGlyph name="IJ" xMin="200" yMin="-40" xMax="1577" yMax="1550">
      <contour>
        <pt x="549" y="288" on="1"/>
        <pt x="711" y="366" on="1"/>
        <pt x="721" y="366" on="1"/>
        <pt x="829" y="150" on="0"/>
        <pt x="1015" y="150" on="1"/>
        <pt x="1203" y="150" on="0"/>
        <pt x="1309" y="366" on="1"/>
        <pt x="1377" y="505" on="0"/>
        <pt x="1377" y="755" on="1"/>
        <pt x="1377" y="1296" on="1"/>
        <pt x="1377" y="1340" on="0"/>
        <pt x="1327" y="1340" on="1"/>
        <pt x="795" y="1340" on="1"/>
        <pt x="795" y="1350" on="1"/>
        <pt x="870" y="1510" on="1"/>
        <pt x="1327" y="1510" on="1"/>
        <pt x="1577" y="1510" on="0"/>
        <pt x="1577" y="1296" on="1"/>
        <pt x="1577" y="755" on="1"/>
        <pt x="1577" y="464" on="0"/>
        <pt x="1481" y="288" on="1"/>
        <pt x="1313" y="-20" on="0"/>
        <pt x="1015" y="-20" on="1"/>
        <pt x="716" y="-20" on="0"/>
      </contour>
      <contour>
        <pt x="200" y="-40" on="1"/>
        <pt x="200" y="1460" on="1"/>
        <pt x="390" y="1550" on="1"/>
        <pt x="400" y="1550" on="1"/>
        <pt x="400" y="50" on="1"/>
        <pt x="210" y="-40" on="1"/>
      </contour>
    </TTGlyph>
    <TTGlyph name="Iacute" xMin="186" yMin="-40" xMax="534" yMax="1966">
      <contour>
        <pt x="348" y="1966" on="1"/>
        <pt x="358" y="1966" on="1"/>
        <pt x="534" y="1882" on="1"/>
        <pt x="313" y="1566" on="1"/>
        <pt x="303" y="1566" on="1"/>
        <pt x="186" y="1621" on="1"/>
      </contour>
      <contour>
        <pt x="200" y="-40" on="1"/>
        <pt x="200" y="1460" on="1"/>
        <pt x="390" y="1550" on="1"/>
        <pt x="400" y="1550" on="1"/>
        <pt x="400" y="50" on="1"/>
        <pt x="210" y="-40" on="1"/>
      </contour>
    </TTGlyph>
    <TTGlyph name="Ibreve" xMin="53" yMin="-40" xMax="547" yMax="1947">
      <contour>
        <pt x="200" y="-40" on="1"/>
        <pt x="200" y="1460" on="1"/>
        <pt x="390" y="1550" on="1"/>
        <pt x="400" y="1550" on="1"/>
        <pt x="400" y="50" on="1"/>
        <pt x="210" y="-40" on="1"/>
      </contour>
      <contour>
        <pt x="53" y="1788" on="1"/>
        <pt x="53" y="1798" on="1"/>
        <pt x="127" y="1947" on="1"/>
        <pt x="199" y="1813" on="0"/>
        <pt x="399" y="1813" on="0"/>
        <pt x="471" y="1947" on="1"/>
        <pt x="547" y="1798" on="1"/>
        <pt x="547" y="1788" on="1"/>
        <pt x="445" y="1638" on="0"/>
        <pt x="297" y="1638" on="1"/>
        <pt x="143" y="1638" on="0"/>
      </contour>
    </TTGlyph>
    <TTGlyph name="Icircumflex" xMin="24" yMin="-40" xMax="576" yMax="1966">
      <contour>
        <pt x="200" y="-40" on="1"/>
        <pt x="200" y="1460" on="1"/>
        <pt x="390" y="1550" on="1"/>
        <pt x="400" y="1550" on="1"/>
        <pt x="400" y="50" on="1"/>
        <pt x="210" y="-40" on="1"/>
      </contour>
      <contour>
        <pt x="24" y="1621" on="1"/>
        <pt x="176" y="1882" on="1"/>
        <pt x="352" y="1966" on="1"/>
        <pt x="362" y="1966" on="1"/>
        <pt x="576" y="1621" on="1"/>
        <pt x="459" y="1566" on="1"/>
        <pt x="449" y="1566" on="1"/>
        <pt x="299" y="1774" on="1"/>
        <pt x="151" y="1566" on="1"/>
        <pt x="141" y="1566" on="1"/>
      </contour>
    </TTGlyph>
    <TTGlyph name="Idieresis" xMin="30" yMin="-40" xMax="570" yMax="1925">
      <contour>
        <pt x="200" y="-40" on="1"/>
        <pt x="200" y="1460" on="1"/>
        <pt x="390" y="1550" on="1"/>
        <pt x="400" y="1550" on="1"/>
        <pt x="400" y="50" on="1"/>
        <pt x="210" y="-40" on="1"/>
      </contour>
      <contour>
        <pt x="330" y="1752" on="0"/>
        <pt x="330" y="1853" on="0"/>
        <pt x="400" y="1925" on="0"/>
        <pt x="500" y="1925" on="0"/>
        <pt x="570" y="1853" on="0"/>
        <pt x="570" y="1752" on="0"/>
        <pt x="500" y="1680" on="0"/>
        <pt x="400" y="1680" on="0"/>
      </contour>
      <contour>
        <pt x="30" y="1752" on="0"/>
        <pt x="30" y="1853" on="0"/>
        <pt x="100" y="1925" on="0"/>
        <pt x="200" y="1925" on="0"/>
        <pt x="270" y="1853" on="0"/>
        <pt x="270" y="1752" on="0"/>
        <pt x="200" y="1680" on="0"/>
        <pt x="100" y="1680" on="0"/>
      </contour>
    </TTGlyph>
    <TTGlyph name="Idotaccent" xMin="180" yMin="-40" xMax="420" yMax="1925">
      <contour>
        <pt x="200" y="-40" on="1"/>
        <pt x="200" y="1460" on="1"/>
        <pt x="390" y="1550" on="1"/>
        <pt x="400" y="1550" on="1"/>
        <pt x="400" y="50" on="1"/>
        <pt x="210" y="-40" on="1"/>
      </contour>
      <contour>
        <pt x="180" y="1752" on="0"/>
        <pt x="180" y="1853" on="0"/>
        <pt x="250" y="1925" on="0"/>
        <pt x="350" y="1925" on="0"/>
        <pt x="420" y="1853" on="0"/>
        <pt x="420" y="1752" on="0"/>
        <pt x="350" y="1680" on="0"/>
        <pt x="250" y="1680" on="0"/>
      </contour>
    </TTGlyph>
    <TTGlyph name="Igrave" xMin="66" yMin="-40" xMax="414" yMax="1966">
      <contour>
        <pt x="242" y="1966" on="1"/>
        <pt x="252" y="1966" on="1"/>
        <pt x="414" y="1621" on="1"/>
        <pt x="297" y="1566" on="1"/>
        <pt x="287" y="1566" on="1"/>
        <pt x="66" y="1882" on="1"/>
      </contour>
      <contour>
        <pt x="200" y="-40" on="1"/>
        <pt x="200" y="1460" on="1"/>
        <pt x="390" y="1550" on="1"/>
        <pt x="400" y="1550" on="1"/>
        <pt x="400" y="50" on="1"/>
        <pt x="210" y="-40" on="1"/>
      </contour>
    </TTGlyph>
    <TTGlyph name="Imacron" xMin="30" yMin="-40" xMax="569" yMax="1820">
      <contour>
        <pt x="200" y="-40" on="1"/>
        <pt x="200" y="1460" on="1"/>
        <pt x="390" y="1550" on="1"/>
        <pt x="400" y="1550" on="1"/>
        <pt x="400" y="50" on="1"/>
        <pt x="210" y="-40" on="1"/>
      </contour>
      <contour>
        <pt x="30" y="1638" on="1"/>
        <pt x="30" y="1648" on="1"/>
        <pt x="111" y="1820" on="1"/>
        <pt x="569" y="1820" on="1"/>
        <pt x="569" y="1810" on="1"/>
        <pt x="488" y="1638" on="1"/>
      </contour>
    </TTGlyph>
    <TTGlyph name="Iogonek" xMin="103" yMin="-450" xMax="412" yMax="1550">
      <contour>
        <pt x="200" y="10" on="1"/>
        <pt x="200" y="1460" on="1"/>
        <pt x="390" y="1550" on="1"/>
        <pt x="400" y="1550" on="1"/>
        <pt x="400" y="50" on="1"/>
        <pt x="361" y="32" on="1"/>
        <pt x="278" y="-65" on="0"/>
        <pt x="278" y="-152" on="1"/>
        <pt x="278" y="-273" on="0"/>
        <pt x="412" y="-360" on="1"/>
        <pt x="222" y="-450" on="1"/>
        <pt x="212" y="-450" on="1"/>
        <pt x="103" y="-343" on="0"/>
        <pt x="103" y="-206" on="1"/>
        <pt x="103" y="-86" on="0"/>
      </contour>
    </TTGlyph>
    <TTGlyph name="Itilde" xMin="48" yMin="-40" xMax="551" yMax="1924">
      <contour>
        <pt x="200" y="-40" on="1"/>
        <pt x="200" y="1460" on="1"/>
        <pt x="390" y="1550" on="1"/>
        <pt x="400" y="1550" on="1"/>
        <pt x="400" y="50" on="1"/>
        <pt x="210" y="-40" on="1"/>
      </contour>
      <contour>
        <pt x="48" y="1638" on="1"/>
        <pt x="48" y="1924" on="0"/>
        <pt x="189" y="1924" on="1"/>
        <pt x="253" y="1924" on="0"/>
        <pt x="326" y="1854" on="1"/>
        <pt x="377" y="1805" on="0"/>
        <pt x="401" y="1805" on="1"/>
        <pt x="435" y="1805" on="0"/>
        <pt x="435" y="1877" on="1"/>
        <pt x="545" y="1924" on="1"/>
        <pt x="551" y="1924" on="1"/>
        <pt x="551" y="1638" on="0"/>
        <pt x="410" y="1638" on="1"/>
        <pt x="346" y="1638" on="0"/>
        <pt x="273" y="1708" on="1"/>
        <pt x="222" y="1757" on="0"/>
        <pt x="198" y="1757" on="1"/>
        <pt x="164" y="1757" on="0"/>
        <pt x="164" y="1685" on="1"/>
        <pt x="54" y="1638" on="1"/>
      </contour>
    </TTGlyph>
    <TTGlyph name="J" xMin="80" yMin="-20" xMax="1108" yMax="1510">
      <contour>
        <pt x="80" y="288" on="1"/>
        <pt x="242" y="366" on="1"/>
        <pt x="252" y="366" on="1"/>
        <pt x="360" y="150" on="0"/>
        <pt x="546" y="150" on="1"/>
        <pt x="734" y="150" on="0"/>
        <pt x="840" y="366" on="1"/>
        <pt x="908" y="505" on="0"/>
        <pt x="908" y="755" on="1"/>
        <pt x="908" y="1296" on="1"/>
        <pt x="908" y="1340" on="0"/>
        <pt x="858" y="1340" on="1"/>
        <pt x="326" y="1340" on="1"/>
        <pt x="326" y="1350" on="1"/>
        <pt x="401" y="1510" on="1"/>
        <pt x="858" y="1510" on="1"/>
        <pt x="1108" y="1510" on="0"/>
        <pt x="1108" y="1296" on="1"/>
        <pt x="1108" y="755" on="1"/>
        <pt x="1108" y="464" on="0"/>
        <pt x="1012" y="288" on="1"/>
        <pt x="844" y="-20" on="0"/>
        <pt x="546" y="-20" on="1"/>
        <pt x="247" y="-20" on="0"/>
      </contour>
    </TTGlyph>
    <TTGlyph name="Jcircumflex" xMin="80" yMin="-20" xMax="1108" yMax="1966">
      <contour>
        <pt x="80" y="288" on="1"/>
        <pt x="242" y="366" on="1"/>
        <pt x="252" y="366" on="1"/>
        <pt x="360" y="150" on="0"/>
        <pt x="546" y="150" on="1"/>
        <pt x="734" y="150" on="0"/>
        <pt x="840" y="366" on="1"/>
        <pt x="908" y="505" on="0"/>
        <pt x="908" y="755" on="1"/>
        <pt x="908" y="1296" on="1"/>
        <pt x="908" y="1340" on="0"/>
        <pt x="858" y="1340" on="1"/>
        <pt x="326" y="1340" on="1"/>
        <pt x="326" y="1350" on="1"/>
        <pt x="401" y="1510" on="1"/>
        <pt x="858" y="1510" on="1"/>
        <pt x="1108" y="1510" on="0"/>
        <pt x="1108" y="1296" on="1"/>
        <pt x="1108" y="755" on="1"/>
        <pt x="1108" y="464" on="0"/>
        <pt x="1012" y="288" on="1"/>
        <pt x="844" y="-20" on="0"/>
        <pt x="546" y="-20" on="1"/>
        <pt x="247" y="-20" on="0"/>
      </contour>
      <contour>
        <pt x="468" y="1621" on="1"/>
        <pt x="621" y="1882" on="1"/>
        <pt x="797" y="1966" on="1"/>
        <pt x="807" y="1966" on="1"/>
        <pt x="1020" y="1621" on="1"/>
        <pt x="904" y="1566" on="1"/>
        <pt x="894" y="1566" on="1"/>
        <pt x="744" y="1774" on="1"/>
        <pt x="596" y="1566" on="1"/>
        <pt x="586" y="1566" on="1"/>
      </contour>
    </TTGlyph>
    <TTGlyph name="K" xMin="200" yMin="-40" xMax="1202" yMax="1550">
      <contour>
        <pt x="200" y="-40" on="1"/>
        <pt x="200" y="1460" on="1"/>
        <pt x="390" y="1550" on="1"/>
        <pt x="400" y="1550" on="1"/>
        <pt x="400" y="797" on="1"/>
        <pt x="943" y="1550" on="1"/>
        <pt x="953" y="1550" on="1"/>
        <pt x="1129" y="1467" on="1"/>
        <pt x="690" y="874" on="1"/>
        <pt x="965" y="874" on="0"/>
        <pt x="1103" y="693" on="1"/>
        <pt x="1202" y="563" on="0"/>
        <pt x="1202" y="399" on="1"/>
        <pt x="1202" y="229" on="0"/>
        <pt x="1087" y="104" on="1"/>
        <pt x="986" y="-8" on="0"/>
        <pt x="856" y="-40" on="1"/>
        <pt x="846" y="-40" on="1"/>
        <pt x="771" y="109" on="1"/>
        <pt x="862" y="128" on="0"/>
        <pt x="915" y="182" on="1"/>
        <pt x="1002" y="270" on="0"/>
        <pt x="1002" y="399" on="1"/>
        <pt x="1002" y="540" on="0"/>
        <pt x="926" y="614" on="1"/>
        <pt x="834" y="704" on="0"/>
        <pt x="690" y="704" on="1"/>
        <pt x="559" y="704" on="0"/>
        <pt x="472" y="601" on="1"/>
        <pt x="400" y="516" on="0"/>
        <pt x="400" y="384" on="1"/>
        <pt x="400" y="50" on="1"/>
        <pt x="210" y="-40" on="1"/>
      </contour>
    </TTGlyph>
    <TTGlyph name="Kcommaaccent" xMin="200" yMin="-450" xMax="1202" yMax="1550">
      <contour>
        <pt x="200" y="-40" on="1"/>
        <pt x="200" y="1460" on="1"/>
        <pt x="390" y="1550" on="1"/>
        <pt x="400" y="1550" on="1"/>
        <pt x="400" y="797" on="1"/>
        <pt x="943" y="1550" on="1"/>
        <pt x="953" y="1550" on="1"/>
        <pt x="1129" y="1467" on="1"/>
        <pt x="690" y="874" on="1"/>
        <pt x="965" y="874" on="0"/>
        <pt x="1103" y="693" on="1"/>
        <pt x="1202" y="563" on="0"/>
        <pt x="1202" y="399" on="1"/>
        <pt x="1202" y="229" on="0"/>
        <pt x="1087" y="104" on="1"/>
        <pt x="986" y="-8" on="0"/>
        <pt x="856" y="-40" on="1"/>
        <pt x="846" y="-40" on="1"/>
        <pt x="771" y="109" on="1"/>
        <pt x="862" y="128" on="0"/>
        <pt x="915" y="182" on="1"/>
        <pt x="1002" y="270" on="0"/>
        <pt x="1002" y="399" on="1"/>
        <pt x="1002" y="540" on="0"/>
        <pt x="926" y="614" on="1"/>
        <pt x="834" y="704" on="0"/>
        <pt x="690" y="704" on="1"/>
        <pt x="559" y="704" on="0"/>
        <pt x="472" y="601" on="1"/>
        <pt x="400" y="516" on="0"/>
        <pt x="400" y="384" on="1"/>
        <pt x="400" y="50" on="1"/>
        <pt x="210" y="-40" on="1"/>
      </contour>
      <contour>
        <pt x="596" y="-450" on="1"/>
        <pt x="586" y="-450" on="1"/>
        <pt x="410" y="-366" on="1"/>
        <pt x="631" y="-50" on="1"/>
        <pt x="641" y="-50" on="1"/>
        <pt x="758" y="-105" on="1"/>
      </contour>
    </TTGlyph>
    <TTGlyph name="L" xMin="200" yMin="0" xMax="1103" yMax="1550">
      <contour>
        <pt x="450" y="0" on="1"/>
        <pt x="200" y="0" on="0"/>
        <pt x="200" y="214" on="1"/>
        <pt x="200" y="1460" on="1"/>
        <pt x="390" y="1550" on="1"/>
        <pt x="400" y="1550" on="1"/>
        <pt x="400" y="214" on="1"/>
        <pt x="400" y="170" on="0"/>
        <pt x="450" y="170" on="1"/>
        <pt x="795" y="170" on="1"/>
        <pt x="913" y="170" on="0"/>
        <pt x="943" y="287" on="1"/>
        <pt x="953" y="287" on="1"/>
        <pt x="1103" y="216" on="1"/>
        <pt x="1043" y="0" on="0"/>
        <pt x="795" y="0" on="1"/>
      </contour>
    </TTGlyph>
    <TTGlyph name="Lacute" xMin="186" yMin="0" xMax="1103" yMax="1966">
      <contour>
        <pt x="450" y="0" on="1"/>
        <pt x="200" y="0" on="0"/>
        <pt x="200" y="214" on="1"/>
        <pt x="200" y="1460" on="1"/>
        <pt x="390" y="1550" on="1"/>
        <pt x="400" y="1550" on="1"/>
        <pt x="400" y="214" on="1"/>
        <pt x="400" y="170" on="0"/>
        <pt x="450" y="170" on="1"/>
        <pt x="795" y="170" on="1"/>
        <pt x="913" y="170" on="0"/>
        <pt x="943" y="287" on="1"/>
        <pt x="953" y="287" on="1"/>
        <pt x="1103" y="216" on="1"/>
        <pt x="1043" y="0" on="0"/>
        <pt x="795" y="0" on="1"/>
      </contour>
      <contour>
        <pt x="348" y="1966" on="1"/>
        <pt x="358" y="1966" on="1"/>
        <pt x="534" y="1882" on="1"/>
        <pt x="313" y="1566" on="1"/>
        <pt x="303" y="1566" on="1"/>
        <pt x="186" y="1621" on="1"/>
      </contour>
    </TTGlyph>
    <TTGlyph name="Lcaron" xMin="200" yMin="0" xMax="1103" yMax="1566">
      <contour>
        <pt x="450" y="0" on="1"/>
        <pt x="200" y="0" on="0"/>
        <pt x="200" y="214" on="1"/>
        <pt x="200" y="1460" on="1"/>
        <pt x="390" y="1550" on="1"/>
        <pt x="400" y="1550" on="1"/>
        <pt x="400" y="214" on="1"/>
        <pt x="400" y="170" on="0"/>
        <pt x="450" y="170" on="1"/>
        <pt x="795" y="170" on="1"/>
        <pt x="913" y="170" on="0"/>
        <pt x="943" y="287" on="1"/>
        <pt x="953" y="287" on="1"/>
        <pt x="1103" y="216" on="1"/>
        <pt x="1043" y="0" on="0"/>
        <pt x="795" y="0" on="1"/>
      </contour>
      <contour>
        <pt x="594" y="1566" on="1"/>
        <pt x="604" y="1566" on="1"/>
        <pt x="780" y="1482" on="1"/>
        <pt x="559" y="1166" on="1"/>
        <pt x="549" y="1166" on="1"/>
        <pt x="432" y="1221" on="1"/>
      </contour>
    </TTGlyph>
    <TTGlyph name="Lcommaaccent" xMin="200" yMin="-450" xMax="1103" yMax="1550">
      <contour>
        <pt x="450" y="0" on="1"/>
        <pt x="200" y="0" on="0"/>
        <pt x="200" y="214" on="1"/>
        <pt x="200" y="1460" on="1"/>
        <pt x="390" y="1550" on="1"/>
        <pt x="400" y="1550" on="1"/>
        <pt x="400" y="214" on="1"/>
        <pt x="400" y="170" on="0"/>
        <pt x="450" y="170" on="1"/>
        <pt x="795" y="170" on="1"/>
        <pt x="913" y="170" on="0"/>
        <pt x="943" y="287" on="1"/>
        <pt x="953" y="287" on="1"/>
        <pt x="1103" y="216" on="1"/>
        <pt x="1043" y="0" on="0"/>
        <pt x="795" y="0" on="1"/>
      </contour>
      <contour>
        <pt x="548" y="-450" on="1"/>
        <pt x="538" y="-450" on="1"/>
        <pt x="362" y="-366" on="1"/>
        <pt x="583" y="-50" on="1"/>
        <pt x="593" y="-50" on="1"/>
        <pt x="710" y="-105" on="1"/>
      </contour>
    </TTGlyph>
    <TTGlyph name="Ldot" xMin="200" yMin="0" xMax="1103" yMax="1550">
      <contour>
        <pt x="450" y="0" on="1"/>
        <pt x="200" y="0" on="0"/>
        <pt x="200" y="214" on="1"/>
        <pt x="200" y="1460" on="1"/>
        <pt x="390" y="1550" on="1"/>
        <pt x="400" y="1550" on="1"/>
        <pt x="400" y="214" on="1"/>
        <pt x="400" y="170" on="0"/>
        <pt x="450" y="170" on="1"/>
        <pt x="795" y="170" on="1"/>
        <pt x="913" y="170" on="0"/>
        <pt x="943" y="287" on="1"/>
        <pt x="953" y="287" on="1"/>
        <pt x="1103" y="216" on="1"/>
        <pt x="1043" y="0" on="0"/>
        <pt x="795" y="0" on="1"/>
      </contour>
      <contour>
        <pt x="505" y="947" on="0"/>
        <pt x="505" y="1048" on="0"/>
        <pt x="575" y="1120" on="0"/>
        <pt x="675" y="1120" on="0"/>
        <pt x="745" y="1048" on="0"/>
        <pt x="745" y="947" on="0"/>
        <pt x="675" y="875" on="0"/>
        <pt x="575" y="875" on="0"/>
      </contour>
    </TTGlyph>
    <TTGlyph name="Lslash" xMin="200" yMin="0" xMax="1103" yMax="1550">
      <contour>
        <pt x="450" y="0" on="1"/>
        <pt x="200" y="0" on="0"/>
        <pt x="200" y="214" on="1"/>
        <pt x="200" y="1460" on="1"/>
        <pt x="390" y="1550" on="1"/>
        <pt x="400" y="1550" on="1"/>
        <pt x="400" y="717" on="1"/>
        <pt x="717" y="1140" on="1"/>
        <pt x="727" y="1140" on="1"/>
        <pt x="885" y="1060" on="1"/>
        <pt x="400" y="458" on="1"/>
        <pt x="400" y="214" on="1"/>
        <pt x="400" y="170" on="0"/>
        <pt x="450" y="170" on="1"/>
        <pt x="795" y="170" on="1"/>
        <pt x="913" y="170" on="0"/>
        <pt x="943" y="287" on="1"/>
        <pt x="953" y="287" on="1"/>
        <pt x="1103" y="216" on="1"/>
        <pt x="1043" y="0" on="0"/>
        <pt x="795" y="0" on="1"/>
      </contour>
    </TTGlyph>
    <TTGlyph name="M" xMin="150" yMin="-40" xMax="2198" yMax="1530">
      <contour>
        <pt x="1074" y="-40" on="1"/>
        <pt x="1074" y="755" on="1"/>
        <pt x="1074" y="1009" on="0"/>
        <pt x="1006" y="1144" on="1"/>
        <pt x="896" y="1360" on="0"/>
        <pt x="712" y="1360" on="1"/>
        <pt x="526" y="1360" on="0"/>
        <pt x="418" y="1144" on="1"/>
        <pt x="350" y="1009" on="0"/>
        <pt x="350" y="755" on="1"/>
        <pt x="350" y="499" on="0"/>
        <pt x="418" y="366" on="1"/>
        <pt x="507" y="192" on="0"/>
        <pt x="683" y="109" on="1"/>
        <pt x="608" y="-40" on="1"/>
        <pt x="598" y="-40" on="1"/>
        <pt x="381" y="34" on="0"/>
        <pt x="246" y="288" on="1"/>
        <pt x="150" y="469" on="0"/>
        <pt x="150" y="755" on="1"/>
        <pt x="150" y="1045" on="0"/>
        <pt x="246" y="1222" on="1"/>
        <pt x="413" y="1530" on="0"/>
        <pt x="712" y="1530" on="1"/>
        <pt x="1006" y="1530" on="0"/>
        <pt x="1174" y="1229" on="1"/>
        <pt x="1342" y="1530" on="0"/>
        <pt x="1636" y="1530" on="1"/>
        <pt x="1935" y="1530" on="0"/>
        <pt x="2102" y="1222" on="1"/>
        <pt x="2198" y="1045" on="0"/>
        <pt x="2198" y="755" on="1"/>
        <pt x="2198" y="469" on="0"/>
        <pt x="2102" y="288" on="1"/>
        <pt x="1967" y="34" on="0"/>
        <pt x="1750" y="-40" on="1"/>
        <pt x="1740" y="-40" on="1"/>
        <pt x="1665" y="109" on="1"/>
        <pt x="1842" y="193" on="0"/>
        <pt x="1930" y="366" on="1"/>
        <pt x="1998" y="500" on="0"/>
        <pt x="1998" y="755" on="1"/>
        <pt x="1998" y="1009" on="0"/>
        <pt x="1930" y="1144" on="1"/>
        <pt x="1821" y="1360" on="0"/>
        <pt x="1451" y="1360" on="0"/>
        <pt x="1342" y="1144" on="1"/>
        <pt x="1274" y="1009" on="0"/>
        <pt x="1274" y="755" on="1"/>
        <pt x="1274" y="50" on="1"/>
        <pt x="1084" y="-40" on="1"/>
      </contour>
    </TTGlyph>
    <TTGlyph name="N" xMin="180" yMin="-40" xMax="1304" yMax="1530">
      <contour>
        <pt x="180" y="-40" on="1"/>
        <pt x="180" y="755" on="1"/>
        <pt x="180" y="1046" on="0"/>
        <pt x="276" y="1222" on="1"/>
        <pt x="444" y="1530" on="0"/>
        <pt x="742" y="1530" on="1"/>
        <pt x="1041" y="1530" on="0"/>
        <pt x="1208" y="1222" on="1"/>
        <pt x="1304" y="1046" on="0"/>
        <pt x="1304" y="755" on="1"/>
        <pt x="1304" y="469" on="0"/>
        <pt x="1208" y="288" on="1"/>
        <pt x="1073" y="34" on="0"/>
        <pt x="856" y="-40" on="1"/>
        <pt x="846" y="-40" on="1"/>
        <pt x="771" y="109" on="1"/>
        <pt x="949" y="193" on="0"/>
        <pt x="1036" y="366" on="1"/>
        <pt x="1104" y="499" on="0"/>
        <pt x="1104" y="755" on="1"/>
        <pt x="1104" y="1009" on="0"/>
        <pt x="1036" y="1144" on="1"/>
        <pt x="928" y="1360" on="0"/>
        <pt x="556" y="1360" on="0"/>
        <pt x="448" y="1144" on="1"/>
        <pt x="380" y="1009" on="0"/>
        <pt x="380" y="755" on="1"/>
        <pt x="380" y="50" on="1"/>
        <pt x="190" y="-40" on="1"/>
      </contour>
    </TTGlyph>
    <TTGlyph name="Nacute" xMin="180" yMin="-40" xMax="1304" yMax="1966">
      <contour>
        <pt x="180" y="-40" on="1"/>
        <pt x="180" y="755" on="1"/>
        <pt x="180" y="1046" on="0"/>
        <pt x="276" y="1222" on="1"/>
        <pt x="444" y="1530" on="0"/>
        <pt x="742" y="1530" on="1"/>
        <pt x="1041" y="1530" on="0"/>
        <pt x="1208" y="1222" on="1"/>
        <pt x="1304" y="1046" on="0"/>
        <pt x="1304" y="755" on="1"/>
        <pt x="1304" y="469" on="0"/>
        <pt x="1208" y="288" on="1"/>
        <pt x="1073" y="34" on="0"/>
        <pt x="856" y="-40" on="1"/>
        <pt x="846" y="-40" on="1"/>
        <pt x="771" y="109" on="1"/>
        <pt x="949" y="193" on="0"/>
        <pt x="1036" y="366" on="1"/>
        <pt x="1104" y="499" on="0"/>
        <pt x="1104" y="755" on="1"/>
        <pt x="1104" y="1009" on="0"/>
        <pt x="1036" y="1144" on="1"/>
        <pt x="928" y="1360" on="0"/>
        <pt x="556" y="1360" on="0"/>
        <pt x="448" y="1144" on="1"/>
        <pt x="380" y="1009" on="0"/>
        <pt x="380" y="755" on="1"/>
        <pt x="380" y="50" on="1"/>
        <pt x="190" y="-40" on="1"/>
      </contour>
      <contour>
        <pt x="847" y="1966" on="1"/>
        <pt x="857" y="1966" on="1"/>
        <pt x="1033" y="1882" on="1"/>
        <pt x="812" y="1566" on="1"/>
        <pt x="802" y="1566" on="1"/>
        <pt x="685" y="1621" on="1"/>
      </contour>
    </TTGlyph>
    <TTGlyph name="Ncaron" xMin="180" yMin="-40" xMax="1304" yMax="1966">
      <contour>
        <pt x="180" y="-40" on="1"/>
        <pt x="180" y="755" on="1"/>
        <pt x="180" y="1046" on="0"/>
        <pt x="276" y="1222" on="1"/>
        <pt x="444" y="1530" on="0"/>
        <pt x="742" y="1530" on="1"/>
        <pt x="1041" y="1530" on="0"/>
        <pt x="1208" y="1222" on="1"/>
        <pt x="1304" y="1046" on="0"/>
        <pt x="1304" y="755" on="1"/>
        <pt x="1304" y="469" on="0"/>
        <pt x="1208" y="288" on="1"/>
        <pt x="1073" y="34" on="0"/>
        <pt x="856" y="-40" on="1"/>
        <pt x="846" y="-40" on="1"/>
        <pt x="771" y="109" on="1"/>
        <pt x="949" y="193" on="0"/>
        <pt x="1036" y="366" on="1"/>
        <pt x="1104" y="499" on="0"/>
        <pt x="1104" y="755" on="1"/>
        <pt x="1104" y="1009" on="0"/>
        <pt x="1036" y="1144" on="1"/>
        <pt x="928" y="1360" on="0"/>
        <pt x="556" y="1360" on="0"/>
        <pt x="448" y="1144" on="1"/>
        <pt x="380" y="1009" on="0"/>
        <pt x="380" y="755" on="1"/>
        <pt x="380" y="50" on="1"/>
        <pt x="190" y="-40" on="1"/>
      </contour>
      <contour>
        <pt x="647" y="1566" on="1"/>
        <pt x="434" y="1911" on="1"/>
        <pt x="550" y="1966" on="1"/>
        <pt x="560" y="1966" on="1"/>
        <pt x="710" y="1758" on="1"/>
        <pt x="858" y="1966" on="1"/>
        <pt x="868" y="1966" on="1"/>
        <pt x="986" y="1911" on="1"/>
        <pt x="833" y="1650" on="1"/>
        <pt x="657" y="1566" on="1"/>
      </contour>
    </TTGlyph>
    <TTGlyph name="Ncommaaccent" xMin="180" yMin="-450" xMax="1304" yMax="1530">
      <contour>
        <pt x="180" y="-40" on="1"/>
        <pt x="180" y="755" on="1"/>
        <pt x="180" y="1046" on="0"/>
        <pt x="276" y="1222" on="1"/>
        <pt x="444" y="1530" on="0"/>
        <pt x="742" y="1530" on="1"/>
        <pt x="1041" y="1530" on="0"/>
        <pt x="1208" y="1222" on="1"/>
        <pt x="1304" y="1046" on="0"/>
        <pt x="1304" y="755" on="1"/>
        <pt x="1304" y="469" on="0"/>
        <pt x="1208" y="288" on="1"/>
        <pt x="1073" y="34" on="0"/>
        <pt x="856" y="-40" on="1"/>
        <pt x="846" y="-40" on="1"/>
        <pt x="771" y="109" on="1"/>
        <pt x="949" y="193" on="0"/>
        <pt x="1036" y="366" on="1"/>
        <pt x="1104" y="499" on="0"/>
        <pt x="1104" y="755" on="1"/>
        <pt x="1104" y="1009" on="0"/>
        <pt x="1036" y="1144" on="1"/>
        <pt x="928" y="1360" on="0"/>
        <pt x="556" y="1360" on="0"/>
        <pt x="448" y="1144" on="1"/>
        <pt x="380" y="1009" on="0"/>
        <pt x="380" y="755" on="1"/>
        <pt x="380" y="50" on="1"/>
        <pt x="190" y="-40" on="1"/>
      </contour>
      <contour>
        <pt x="596" y="-450" on="1"/>
        <pt x="586" y="-450" on="1"/>
        <pt x="410" y="-366" on="1"/>
        <pt x="631" y="-50" on="1"/>
        <pt x="641" y="-50" on="1"/>
        <pt x="758" y="-105" on="1"/>
      </contour>
    </TTGlyph>
    <TTGlyph name="Ntilde" xMin="180" yMin="-40" xMax="1304" yMax="1924">
      <contour>
        <pt x="180" y="-40" on="1"/>
        <pt x="180" y="755" on="1"/>
        <pt x="180" y="1046" on="0"/>
        <pt x="276" y="1222" on="1"/>
        <pt x="444" y="1530" on="0"/>
        <pt x="742" y="1530" on="1"/>
        <pt x="1041" y="1530" on="0"/>
        <pt x="1208" y="1222" on="1"/>
        <pt x="1304" y="1046" on="0"/>
        <pt x="1304" y="755" on="1"/>
        <pt x="1304" y="469" on="0"/>
        <pt x="1208" y="288" on="1"/>
        <pt x="1073" y="34" on="0"/>
        <pt x="856" y="-40" on="1"/>
        <pt x="846" y="-40" on="1"/>
        <pt x="771" y="109" on="1"/>
        <pt x="949" y="193" on="0"/>
        <pt x="1036" y="366" on="1"/>
        <pt x="1104" y="499" on="0"/>
        <pt x="1104" y="755" on="1"/>
        <pt x="1104" y="1009" on="0"/>
        <pt x="1036" y="1144" on="1"/>
        <pt x="928" y="1360" on="0"/>
        <pt x="556" y="1360" on="0"/>
        <pt x="448" y="1144" on="1"/>
        <pt x="380" y="1009" on="0"/>
        <pt x="380" y="755" on="1"/>
        <pt x="380" y="50" on="1"/>
        <pt x="190" y="-40" on="1"/>
      </contour>
      <contour>
        <pt x="501" y="1638" on="1"/>
        <pt x="501" y="1924" on="0"/>
        <pt x="642" y="1924" on="1"/>
        <pt x="706" y="1924" on="0"/>
        <pt x="779" y="1854" on="1"/>
        <pt x="830" y="1805" on="0"/>
        <pt x="854" y="1805" on="1"/>
        <pt x="888" y="1805" on="0"/>
        <pt x="888" y="1877" on="1"/>
        <pt x="998" y="1924" on="1"/>
        <pt x="1004" y="1924" on="1"/>
        <pt x="1004" y="1638" on="0"/>
        <pt x="863" y="1638" on="1"/>
        <pt x="799" y="1638" on="0"/>
        <pt x="726" y="1708" on="1"/>
        <pt x="675" y="1757" on="0"/>
        <pt x="651" y="1757" on="1"/>
        <pt x="617" y="1757" on="0"/>
        <pt x="617" y="1685" on="1"/>
        <pt x="507" y="1638" on="1"/>
      </contour>
    </TTGlyph>
    <TTGlyph name="O" xMin="150" yMin="-20" xMax="1274" yMax="1530">
      <contour>
        <pt x="350" y="755" on="1"/>
        <pt x="350" y="498" on="0"/>
        <pt x="418" y="366" on="1"/>
        <pt x="529" y="150" on="0"/>
        <pt x="712" y="150" on="1"/>
        <pt x="897" y="150" on="0"/>
        <pt x="1006" y="366" on="1"/>
        <pt x="1074" y="501" on="0"/>
        <pt x="1074" y="1009" on="0"/>
        <pt x="1006" y="1144" on="1"/>
        <pt x="898" y="1360" on="0"/>
        <pt x="712" y="1360" on="1"/>
        <pt x="527" y="1360" on="0"/>
        <pt x="418" y="1144" on="1"/>
        <pt x="350" y="1009" on="0"/>
      </contour>
      <contour>
        <pt x="150" y="464" on="0"/>
        <pt x="150" y="1046" on="0"/>
        <pt x="246" y="1222" on="1"/>
        <pt x="414" y="1530" on="0"/>
        <pt x="712" y="1530" on="1"/>
        <pt x="1011" y="1530" on="0"/>
        <pt x="1178" y="1222" on="1"/>
        <pt x="1274" y="1045" on="0"/>
        <pt x="1274" y="755" on="1"/>
        <pt x="1274" y="464" on="0"/>
        <pt x="1178" y="288" on="1"/>
        <pt x="1011" y="-20" on="0"/>
        <pt x="712" y="-20" on="1"/>
        <pt x="414" y="-20" on="0"/>
        <pt x="246" y="288" on="1"/>
      </contour>
    </TTGlyph>
    <TTGlyph name="OE" xMin="150" yMin="-20" xMax="2026" yMax="1530">
      <contour>
        <pt x="1324" y="0" on="1"/>
        <pt x="1116" y="0" on="0"/>
        <pt x="1081" y="148" on="1"/>
        <pt x="932" y="-20" on="0"/>
        <pt x="712" y="-20" on="1"/>
        <pt x="414" y="-20" on="0"/>
        <pt x="246" y="288" on="1"/>
        <pt x="150" y="464" on="0"/>
        <pt x="150" y="1046" on="0"/>
        <pt x="246" y="1222" on="1"/>
        <pt x="414" y="1530" on="0"/>
        <pt x="712" y="1530" on="1"/>
        <pt x="1007" y="1530" on="0"/>
        <pt x="1174" y="1229" on="1"/>
        <pt x="1342" y="1530" on="0"/>
        <pt x="1636" y="1530" on="1"/>
        <pt x="1904" y="1530" on="1"/>
        <pt x="1904" y="1520" on="1"/>
        <pt x="1829" y="1360" on="1"/>
        <pt x="1636" y="1360" on="1"/>
        <pt x="1450" y="1360" on="0"/>
        <pt x="1342" y="1144" on="1"/>
        <pt x="1286" y="1032" on="0"/>
        <pt x="1276" y="840" on="1"/>
        <pt x="1844" y="840" on="1"/>
        <pt x="1844" y="830" on="1"/>
        <pt x="1769" y="670" on="1"/>
        <pt x="1274" y="670" on="1"/>
        <pt x="1274" y="214" on="1"/>
        <pt x="1274" y="170" on="0"/>
        <pt x="1324" y="170" on="1"/>
        <pt x="1718" y="170" on="1"/>
        <pt x="1836" y="170" on="0"/>
        <pt x="1866" y="287" on="1"/>
        <pt x="1876" y="287" on="1"/>
        <pt x="2026" y="216" on="1"/>
        <pt x="1966" y="0" on="0"/>
        <pt x="1718" y="0" on="1"/>
      </contour>
      <contour>
        <pt x="350" y="755" on="1"/>
        <pt x="350" y="498" on="0"/>
        <pt x="418" y="366" on="1"/>
        <pt x="529" y="150" on="0"/>
        <pt x="712" y="150" on="1"/>
        <pt x="897" y="150" on="0"/>
        <pt x="1006" y="366" on="1"/>
        <pt x="1074" y="501" on="0"/>
        <pt x="1074" y="1009" on="0"/>
        <pt x="1006" y="1144" on="1"/>
        <pt x="898" y="1360" on="0"/>
        <pt x="712" y="1360" on="1"/>
        <pt x="527" y="1360" on="0"/>
        <pt x="418" y="1144" on="1"/>
        <pt x="350" y="1009" on="0"/>
      </contour>
    </TTGlyph>
    <TTGlyph name="Oacute" xMin="150" yMin="-20" xMax="1274" yMax="1966">
      <contour>
        <pt x="350" y="755" on="1"/>
        <pt x="350" y="498" on="0"/>
        <pt x="418" y="366" on="1"/>
        <pt x="529" y="150" on="0"/>
        <pt x="712" y="150" on="1"/>
        <pt x="897" y="150" on="0"/>
        <pt x="1006" y="366" on="1"/>
        <pt x="1074" y="501" on="0"/>
        <pt x="1074" y="1009" on="0"/>
        <pt x="1006" y="1144" on="1"/>
        <pt x="898" y="1360" on="0"/>
        <pt x="712" y="1360" on="1"/>
        <pt x="527" y="1360" on="0"/>
        <pt x="418" y="1144" on="1"/>
        <pt x="350" y="1009" on="0"/>
      </contour>
      <contour>
        <pt x="150" y="464" on="0"/>
        <pt x="150" y="1046" on="0"/>
        <pt x="246" y="1222" on="1"/>
        <pt x="414" y="1530" on="0"/>
        <pt x="712" y="1530" on="1"/>
        <pt x="1011" y="1530" on="0"/>
        <pt x="1178" y="1222" on="1"/>
        <pt x="1274" y="1045" on="0"/>
        <pt x="1274" y="755" on="1"/>
        <pt x="1274" y="464" on="0"/>
        <pt x="1178" y="288" on="1"/>
        <pt x="1011" y="-20" on="0"/>
        <pt x="712" y="-20" on="1"/>
        <pt x="414" y="-20" on="0"/>
        <pt x="246" y="288" on="1"/>
      </contour>
      <contour>
        <pt x="817" y="1966" on="1"/>
        <pt x="827" y="1966" on="1"/>
        <pt x="1003" y="1882" on="1"/>
        <pt x="782" y="1566" on="1"/>
        <pt x="772" y="1566" on="1"/>
        <pt x="655" y="1621" on="1"/>
      </contour>
    </TTGlyph>
    <TTGlyph name="Obreve" xMin="150" yMin="-20" xMax="1274" yMax="1947">
      <contour>
        <pt x="350" y="755" on="1"/>
        <pt x="350" y="498" on="0"/>
        <pt x="418" y="366" on="1"/>
        <pt x="529" y="150" on="0"/>
        <pt x="712" y="150" on="1"/>
        <pt x="897" y="150" on="0"/>
        <pt x="1006" y="366" on="1"/>
        <pt x="1074" y="501" on="0"/>
        <pt x="1074" y="1009" on="0"/>
        <pt x="1006" y="1144" on="1"/>
        <pt x="898" y="1360" on="0"/>
        <pt x="712" y="1360" on="1"/>
        <pt x="527" y="1360" on="0"/>
        <pt x="418" y="1144" on="1"/>
        <pt x="350" y="1009" on="0"/>
      </contour>
      <contour>
        <pt x="150" y="464" on="0"/>
        <pt x="150" y="1046" on="0"/>
        <pt x="246" y="1222" on="1"/>
        <pt x="414" y="1530" on="0"/>
        <pt x="712" y="1530" on="1"/>
        <pt x="1011" y="1530" on="0"/>
        <pt x="1178" y="1222" on="1"/>
        <pt x="1274" y="1045" on="0"/>
        <pt x="1274" y="755" on="1"/>
        <pt x="1274" y="464" on="0"/>
        <pt x="1178" y="288" on="1"/>
        <pt x="1011" y="-20" on="0"/>
        <pt x="712" y="-20" on="1"/>
        <pt x="414" y="-20" on="0"/>
        <pt x="246" y="288" on="1"/>
      </contour>
      <contour>
        <pt x="468" y="1788" on="1"/>
        <pt x="468" y="1798" on="1"/>
        <pt x="542" y="1947" on="1"/>
        <pt x="614" y="1813" on="0"/>
        <pt x="814" y="1813" on="0"/>
        <pt x="886" y="1947" on="1"/>
        <pt x="962" y="1798" on="1"/>
        <pt x="962" y="1788" on="1"/>
        <pt x="860" y="1638" on="0"/>
        <pt x="712" y="1638" on="1"/>
        <pt x="558" y="1638" on="0"/>
      </contour>
    </TTGlyph>
    <TTGlyph name="Ocircumflex" xMin="150" yMin="-20" xMax="1274" yMax="1966">
      <contour>
        <pt x="350" y="755" on="1"/>
        <pt x="350" y="498" on="0"/>
        <pt x="418" y="366" on="1"/>
        <pt x="529" y="150" on="0"/>
        <pt x="712" y="150" on="1"/>
        <pt x="897" y="150" on="0"/>
        <pt x="1006" y="366" on="1"/>
        <pt x="1074" y="501" on="0"/>
        <pt x="1074" y="1009" on="0"/>
        <pt x="1006" y="1144" on="1"/>
        <pt x="898" y="1360" on="0"/>
        <pt x="712" y="1360" on="1"/>
        <pt x="527" y="1360" on="0"/>
        <pt x="418" y="1144" on="1"/>
        <pt x="350" y="1009" on="0"/>
      </contour>
      <contour>
        <pt x="150" y="464" on="0"/>
        <pt x="150" y="1046" on="0"/>
        <pt x="246" y="1222" on="1"/>
        <pt x="414" y="1530" on="0"/>
        <pt x="712" y="1530" on="1"/>
        <pt x="1011" y="1530" on="0"/>
        <pt x="1178" y="1222" on="1"/>
        <pt x="1274" y="1045" on="0"/>
        <pt x="1274" y="755" on="1"/>
        <pt x="1274" y="464" on="0"/>
        <pt x="1178" y="288" on="1"/>
        <pt x="1011" y="-20" on="0"/>
        <pt x="712" y="-20" on="1"/>
        <pt x="414" y="-20" on="0"/>
        <pt x="246" y="288" on="1"/>
      </contour>
      <contour>
        <pt x="434" y="1621" on="1"/>
        <pt x="587" y="1882" on="1"/>
        <pt x="763" y="1966" on="1"/>
        <pt x="773" y="1966" on="1"/>
        <pt x="986" y="1621" on="1"/>
        <pt x="870" y="1566" on="1"/>
        <pt x="860" y="1566" on="1"/>
        <pt x="710" y="1774" on="1"/>
        <pt x="562" y="1566" on="1"/>
        <pt x="552" y="1566" on="1"/>
      </contour>
    </TTGlyph>
    <TTGlyph name="Odieresis" xMin="150" yMin="-20" xMax="1274" yMax="1925">
      <contour>
        <pt x="350" y="755" on="1"/>
        <pt x="350" y="498" on="0"/>
        <pt x="418" y="366" on="1"/>
        <pt x="529" y="150" on="0"/>
        <pt x="712" y="150" on="1"/>
        <pt x="897" y="150" on="0"/>
        <pt x="1006" y="366" on="1"/>
        <pt x="1074" y="501" on="0"/>
        <pt x="1074" y="1009" on="0"/>
        <pt x="1006" y="1144" on="1"/>
        <pt x="898" y="1360" on="0"/>
        <pt x="712" y="1360" on="1"/>
        <pt x="527" y="1360" on="0"/>
        <pt x="418" y="1144" on="1"/>
        <pt x="350" y="1009" on="0"/>
      </contour>
      <contour>
        <pt x="150" y="464" on="0"/>
        <pt x="150" y="1046" on="0"/>
        <pt x="246" y="1222" on="1"/>
        <pt x="414" y="1530" on="0"/>
        <pt x="712" y="1530" on="1"/>
        <pt x="1011" y="1530" on="0"/>
        <pt x="1178" y="1222" on="1"/>
        <pt x="1274" y="1045" on="0"/>
        <pt x="1274" y="755" on="1"/>
        <pt x="1274" y="464" on="0"/>
        <pt x="1178" y="288" on="1"/>
        <pt x="1011" y="-20" on="0"/>
        <pt x="712" y="-20" on="1"/>
        <pt x="414" y="-20" on="0"/>
        <pt x="246" y="288" on="1"/>
      </contour>
      <contour>
        <pt x="742" y="1752" on="0"/>
        <pt x="742" y="1853" on="0"/>
        <pt x="812" y="1925" on="0"/>
        <pt x="912" y="1925" on="0"/>
        <pt x="982" y="1853" on="0"/>
        <pt x="982" y="1752" on="0"/>
        <pt x="912" y="1680" on="0"/>
        <pt x="812" y="1680" on="0"/>
      </contour>
      <contour>
        <pt x="442" y="1752" on="0"/>
        <pt x="442" y="1853" on="0"/>
        <pt x="512" y="1925" on="0"/>
        <pt x="612" y="1925" on="0"/>
        <pt x="682" y="1853" on="0"/>
        <pt x="682" y="1752" on="0"/>
        <pt x="612" y="1680" on="0"/>
        <pt x="512" y="1680" on="0"/>
      </contour>
    </TTGlyph>
    <TTGlyph name="Ograve" xMin="150" yMin="-20" xMax="1274" yMax="1966">
      <contour>
        <pt x="350" y="755" on="1"/>
        <pt x="350" y="498" on="0"/>
        <pt x="418" y="366" on="1"/>
        <pt x="529" y="150" on="0"/>
        <pt x="712" y="150" on="1"/>
        <pt x="897" y="150" on="0"/>
        <pt x="1006" y="366" on="1"/>
        <pt x="1074" y="501" on="0"/>
        <pt x="1074" y="1009" on="0"/>
        <pt x="1006" y="1144" on="1"/>
        <pt x="898" y="1360" on="0"/>
        <pt x="712" y="1360" on="1"/>
        <pt x="527" y="1360" on="0"/>
        <pt x="418" y="1144" on="1"/>
        <pt x="350" y="1009" on="0"/>
      </contour>
      <contour>
        <pt x="150" y="464" on="0"/>
        <pt x="150" y="1046" on="0"/>
        <pt x="246" y="1222" on="1"/>
        <pt x="414" y="1530" on="0"/>
        <pt x="712" y="1530" on="1"/>
        <pt x="1011" y="1530" on="0"/>
        <pt x="1178" y="1222" on="1"/>
        <pt x="1274" y="1045" on="0"/>
        <pt x="1274" y="755" on="1"/>
        <pt x="1274" y="464" on="0"/>
        <pt x="1178" y="288" on="1"/>
        <pt x="1011" y="-20" on="0"/>
        <pt x="712" y="-20" on="1"/>
        <pt x="414" y="-20" on="0"/>
        <pt x="246" y="288" on="1"/>
      </contour>
      <contour>
        <pt x="596" y="1966" on="1"/>
        <pt x="606" y="1966" on="1"/>
        <pt x="768" y="1621" on="1"/>
        <pt x="651" y="1566" on="1"/>
        <pt x="641" y="1566" on="1"/>
        <pt x="420" y="1882" on="1"/>
      </contour>
    </TTGlyph>
    <TTGlyph name="Ohungarumlaut" xMin="150" yMin="-20" xMax="1274" yMax="1966">
      <contour>
        <pt x="350" y="755" on="1"/>
        <pt x="350" y="498" on="0"/>
        <pt x="418" y="366" on="1"/>
        <pt x="529" y="150" on="0"/>
        <pt x="712" y="150" on="1"/>
        <pt x="897" y="150" on="0"/>
        <pt x="1006" y="366" on="1"/>
        <pt x="1074" y="501" on="0"/>
        <pt x="1074" y="1009" on="0"/>
        <pt x="1006" y="1144" on="1"/>
        <pt x="898" y="1360" on="0"/>
        <pt x="712" y="1360" on="1"/>
        <pt x="527" y="1360" on="0"/>
        <pt x="418" y="1144" on="1"/>
        <pt x="350" y="1009" on="0"/>
      </contour>
      <contour>
        <pt x="150" y="464" on="0"/>
        <pt x="150" y="1046" on="0"/>
        <pt x="246" y="1222" on="1"/>
        <pt x="414" y="1530" on="0"/>
        <pt x="712" y="1530" on="1"/>
        <pt x="1011" y="1530" on="0"/>
        <pt x="1178" y="1222" on="1"/>
        <pt x="1274" y="1045" on="0"/>
        <pt x="1274" y="755" on="1"/>
        <pt x="1274" y="464" on="0"/>
        <pt x="1178" y="288" on="1"/>
        <pt x="1011" y="-20" on="0"/>
        <pt x="712" y="-20" on="1"/>
        <pt x="414" y="-20" on="0"/>
        <pt x="246" y="288" on="1"/>
      </contour>
      <contour>
        <pt x="933" y="1966" on="1"/>
        <pt x="943" y="1966" on="1"/>
        <pt x="1119" y="1882" on="1"/>
        <pt x="898" y="1566" on="1"/>
        <pt x="888" y="1566" on="1"/>
        <pt x="771" y="1621" on="1"/>
      </contour>
      <contour>
        <pt x="656" y="1966" on="1"/>
        <pt x="666" y="1966" on="1"/>
        <pt x="842" y="1882" on="1"/>
        <pt x="621" y="1566" on="1"/>
        <pt x="611" y="1566" on="1"/>
        <pt x="494" y="1621" on="1"/>
      </contour>
    </TTGlyph>
    <TTGlyph name="Omacron" xMin="150" yMin="-20" xMax="1274" yMax="1820">
      <contour>
        <pt x="350" y="755" on="1"/>
        <pt x="350" y="498" on="0"/>
        <pt x="418" y="366" on="1"/>
        <pt x="529" y="150" on="0"/>
        <pt x="712" y="150" on="1"/>
        <pt x="897" y="150" on="0"/>
        <pt x="1006" y="366" on="1"/>
        <pt x="1074" y="501" on="0"/>
        <pt x="1074" y="1009" on="0"/>
        <pt x="1006" y="1144" on="1"/>
        <pt x="898" y="1360" on="0"/>
        <pt x="712" y="1360" on="1"/>
        <pt x="527" y="1360" on="0"/>
        <pt x="418" y="1144" on="1"/>
        <pt x="350" y="1009" on="0"/>
      </contour>
      <contour>
        <pt x="150" y="464" on="0"/>
        <pt x="150" y="1046" on="0"/>
        <pt x="246" y="1222" on="1"/>
        <pt x="414" y="1530" on="0"/>
        <pt x="712" y="1530" on="1"/>
        <pt x="1011" y="1530" on="0"/>
        <pt x="1178" y="1222" on="1"/>
        <pt x="1274" y="1045" on="0"/>
        <pt x="1274" y="755" on="1"/>
        <pt x="1274" y="464" on="0"/>
        <pt x="1178" y="288" on="1"/>
        <pt x="1011" y="-20" on="0"/>
        <pt x="712" y="-20" on="1"/>
        <pt x="414" y="-20" on="0"/>
        <pt x="246" y="288" on="1"/>
      </contour>
      <contour>
        <pt x="467" y="1638" on="1"/>
        <pt x="467" y="1648" on="1"/>
        <pt x="548" y="1820" on="1"/>
        <pt x="1006" y="1820" on="1"/>
        <pt x="1006" y="1810" on="1"/>
        <pt x="925" y="1638" on="1"/>
      </contour>
    </TTGlyph>
    <TTGlyph name="Omega" xMin="100" yMin="0" xMax="1374" yMax="1530">
      <contour>
        <pt x="630" y="0" on="1"/>
        <pt x="408" y="0" on="1"/>
        <pt x="160" y="0" on="0"/>
        <pt x="100" y="216" on="1"/>
        <pt x="250" y="287" on="1"/>
        <pt x="260" y="287" on="1"/>
        <pt x="292" y="170" on="0"/>
        <pt x="408" y="170" on="1"/>
        <pt x="468" y="170" on="1"/>
        <pt x="468" y="267" on="1"/>
        <pt x="172" y="445" on="0"/>
        <pt x="172" y="898" on="1"/>
        <pt x="172" y="1118" on="0"/>
        <pt x="298" y="1297" on="1"/>
        <pt x="462" y="1530" on="0"/>
        <pt x="737" y="1530" on="1"/>
        <pt x="1010" y="1530" on="0"/>
        <pt x="1176" y="1297" on="1"/>
        <pt x="1302" y="1120" on="0"/>
        <pt x="1302" y="898" on="1"/>
        <pt x="1302" y="445" on="0"/>
        <pt x="1006" y="267" on="1"/>
        <pt x="1006" y="170" on="1"/>
        <pt x="1066" y="170" on="1"/>
        <pt x="1182" y="170" on="0"/>
        <pt x="1214" y="287" on="1"/>
        <pt x="1224" y="287" on="1"/>
        <pt x="1374" y="216" on="1"/>
        <pt x="1314" y="0" on="0"/>
        <pt x="1066" y="0" on="1"/>
        <pt x="844" y="0" on="1"/>
        <pt x="844" y="368" on="1"/>
        <pt x="1102" y="499" on="0"/>
        <pt x="1102" y="898" on="1"/>
        <pt x="1102" y="1075" on="0"/>
        <pt x="1011" y="1211" on="1"/>
        <pt x="909" y="1364" on="0"/>
        <pt x="739" y="1364" on="1"/>
        <pt x="565" y="1364" on="0"/>
        <pt x="463" y="1211" on="1"/>
        <pt x="372" y="1075" on="0"/>
        <pt x="372" y="898" on="1"/>
        <pt x="372" y="499" on="0"/>
        <pt x="630" y="368" on="1"/>
      </contour>
    </TTGlyph>
    <TTGlyph name="Oslash" xMin="150" yMin="-40" xMax="1274" yMax="1550">
      <contour>
        <pt x="411" y="-40" on="1"/>
        <pt x="401" y="-40" on="1"/>
        <pt x="297" y="10" on="1"/>
        <pt x="355" y="135" on="1"/>
        <pt x="295" y="198" on="0"/>
        <pt x="246" y="288" on="1"/>
        <pt x="150" y="464" on="0"/>
        <pt x="150" y="1046" on="0"/>
        <pt x="246" y="1222" on="1"/>
        <pt x="414" y="1530" on="0"/>
        <pt x="712" y="1530" on="1"/>
        <pt x="857" y="1530" on="0"/>
        <pt x="970" y="1458" on="1"/>
        <pt x="1013" y="1550" on="1"/>
        <pt x="1023" y="1550" on="1"/>
        <pt x="1127" y="1499" on="1"/>
        <pt x="1069" y="1375" on="1"/>
        <pt x="1129" y="1312" on="0"/>
        <pt x="1178" y="1222" on="1"/>
        <pt x="1274" y="1045" on="0"/>
        <pt x="1274" y="465" on="0"/>
        <pt x="1178" y="288" on="1"/>
        <pt x="1011" y="-20" on="0"/>
        <pt x="712" y="-20" on="1"/>
        <pt x="568" y="-20" on="0"/>
        <pt x="454" y="52" on="1"/>
      </contour>
      <contour>
        <pt x="350" y="755" on="1"/>
        <pt x="350" y="496" on="0"/>
        <pt x="418" y="366" on="1"/>
        <pt x="430" y="343" on="0"/>
        <pt x="442" y="323" on="1"/>
        <pt x="894" y="1294" on="1"/>
        <pt x="815" y="1360" on="0"/>
        <pt x="712" y="1360" on="1"/>
        <pt x="527" y="1360" on="0"/>
        <pt x="418" y="1144" on="1"/>
        <pt x="350" y="1009" on="0"/>
      </contour>
      <contour>
        <pt x="982" y="1188" on="1"/>
        <pt x="531" y="217" on="1"/>
        <pt x="610" y="150" on="0"/>
        <pt x="712" y="150" on="1"/>
        <pt x="897" y="150" on="0"/>
        <pt x="1006" y="366" on="1"/>
        <pt x="1074" y="501" on="0"/>
        <pt x="1074" y="755" on="1"/>
        <pt x="1074" y="1014" on="0"/>
        <pt x="1006" y="1144" on="1"/>
        <pt x="994" y="1167" on="0"/>
      </contour>
    </TTGlyph>
    <TTGlyph name="Oslashacute" xMin="150" yMin="-40" xMax="1274" yMax="1966">
      <contour>
        <pt x="411" y="-40" on="1"/>
        <pt x="401" y="-40" on="1"/>
        <pt x="297" y="10" on="1"/>
        <pt x="355" y="135" on="1"/>
        <pt x="295" y="198" on="0"/>
        <pt x="246" y="288" on="1"/>
        <pt x="150" y="464" on="0"/>
        <pt x="150" y="1046" on="0"/>
        <pt x="246" y="1222" on="1"/>
        <pt x="414" y="1530" on="0"/>
        <pt x="712" y="1530" on="1"/>
        <pt x="857" y="1530" on="0"/>
        <pt x="970" y="1458" on="1"/>
        <pt x="1013" y="1550" on="1"/>
        <pt x="1023" y="1550" on="1"/>
        <pt x="1127" y="1499" on="1"/>
        <pt x="1069" y="1375" on="1"/>
        <pt x="1129" y="1312" on="0"/>
        <pt x="1178" y="1222" on="1"/>
        <pt x="1274" y="1045" on="0"/>
        <pt x="1274" y="465" on="0"/>
        <pt x="1178" y="288" on="1"/>
        <pt x="1011" y="-20" on="0"/>
        <pt x="712" y="-20" on="1"/>
        <pt x="568" y="-20" on="0"/>
        <pt x="454" y="52" on="1"/>
      </contour>
      <contour>
        <pt x="350" y="755" on="1"/>
        <pt x="350" y="496" on="0"/>
        <pt x="418" y="366" on="1"/>
        <pt x="430" y="343" on="0"/>
        <pt x="442" y="323" on="1"/>
        <pt x="894" y="1294" on="1"/>
        <pt x="815" y="1360" on="0"/>
        <pt x="712" y="1360" on="1"/>
        <pt x="527" y="1360" on="0"/>
        <pt x="418" y="1144" on="1"/>
        <pt x="350" y="1009" on="0"/>
      </contour>
      <contour>
        <pt x="982" y="1188" on="1"/>
        <pt x="531" y="217" on="1"/>
        <pt x="610" y="150" on="0"/>
        <pt x="712" y="150" on="1"/>
        <pt x="897" y="150" on="0"/>
        <pt x="1006" y="366" on="1"/>
        <pt x="1074" y="501" on="0"/>
        <pt x="1074" y="755" on="1"/>
        <pt x="1074" y="1014" on="0"/>
        <pt x="1006" y="1144" on="1"/>
        <pt x="994" y="1167" on="0"/>
      </contour>
      <contour>
        <pt x="817" y="1966" on="1"/>
        <pt x="827" y="1966" on="1"/>
        <pt x="1003" y="1882" on="1"/>
        <pt x="782" y="1566" on="1"/>
        <pt x="772" y="1566" on="1"/>
        <pt x="655" y="1621" on="1"/>
      </contour>
    </TTGlyph>
    <TTGlyph name="Otilde" xMin="150" yMin="-20" xMax="1274" yMax="1924">
      <contour>
        <pt x="350" y="755" on="1"/>
        <pt x="350" y="498" on="0"/>
        <pt x="418" y="366" on="1"/>
        <pt x="529" y="150" on="0"/>
        <pt x="712" y="150" on="1"/>
        <pt x="897" y="150" on="0"/>
        <pt x="1006" y="366" on="1"/>
        <pt x="1074" y="501" on="0"/>
        <pt x="1074" y="1009" on="0"/>
        <pt x="1006" y="1144" on="1"/>
        <pt x="898" y="1360" on="0"/>
        <pt x="712" y="1360" on="1"/>
        <pt x="527" y="1360" on="0"/>
        <pt x="418" y="1144" on="1"/>
        <pt x="350" y="1009" on="0"/>
      </contour>
      <contour>
        <pt x="150" y="464" on="0"/>
        <pt x="150" y="1046" on="0"/>
        <pt x="246" y="1222" on="1"/>
        <pt x="414" y="1530" on="0"/>
        <pt x="712" y="1530" on="1"/>
        <pt x="1011" y="1530" on="0"/>
        <pt x="1178" y="1222" on="1"/>
        <pt x="1274" y="1045" on="0"/>
        <pt x="1274" y="755" on="1"/>
        <pt x="1274" y="464" on="0"/>
        <pt x="1178" y="288" on="1"/>
        <pt x="1011" y="-20" on="0"/>
        <pt x="712" y="-20" on="1"/>
        <pt x="414" y="-20" on="0"/>
        <pt x="246" y="288" on="1"/>
      </contour>
      <contour>
        <pt x="471" y="1638" on="1"/>
        <pt x="471" y="1924" on="0"/>
        <pt x="612" y="1924" on="1"/>
        <pt x="676" y="1924" on="0"/>
        <pt x="749" y="1854" on="1"/>
        <pt x="800" y="1805" on="0"/>
        <pt x="824" y="1805" on="1"/>
        <pt x="858" y="1805" on="0"/>
        <pt x="858" y="1877" on="1"/>
        <pt x="968" y="1924" on="1"/>
        <pt x="974" y="1924" on="1"/>
        <pt x="974" y="1638" on="0"/>
        <pt x="833" y="1638" on="1"/>
        <pt x="769" y="1638" on="0"/>
        <pt x="696" y="1708" on="1"/>
        <pt x="645" y="1757" on="0"/>
        <pt x="621" y="1757" on="1"/>
        <pt x="587" y="1757" on="0"/>
        <pt x="587" y="1685" on="1"/>
        <pt x="477" y="1638" on="1"/>
      </contour>
    </TTGlyph>
    <TTGlyph name="P" xMin="180" yMin="-40" xMax="1254" yMax="1530">
      <contour>
        <pt x="180" y="-40" on="1"/>
        <pt x="180" y="755" on="1"/>
        <pt x="180" y="1046" on="0"/>
        <pt x="276" y="1222" on="1"/>
        <pt x="444" y="1530" on="0"/>
        <pt x="742" y="1530" on="1"/>
        <pt x="991" y="1530" on="0"/>
        <pt x="1135" y="1346" on="1"/>
        <pt x="1254" y="1194" on="0"/>
        <pt x="1254" y="1005" on="1"/>
        <pt x="1254" y="833" on="0"/>
        <pt x="1133" y="684" on="1"/>
        <pt x="983" y="500" on="0"/>
        <pt x="692" y="500" on="1"/>
        <pt x="380" y="500" on="1"/>
        <pt x="380" y="50" on="1"/>
        <pt x="190" y="-40" on="1"/>
      </contour>
      <contour>
        <pt x="380" y="670" on="1"/>
        <pt x="692" y="670" on="1"/>
        <pt x="880" y="670" on="0"/>
        <pt x="961" y="762" on="1"/>
        <pt x="1054" y="868" on="0"/>
        <pt x="1054" y="1005" on="1"/>
        <pt x="1054" y="1167" on="0"/>
        <pt x="958" y="1267" on="1"/>
        <pt x="868" y="1360" on="0"/>
        <pt x="742" y="1360" on="1"/>
        <pt x="558" y="1360" on="0"/>
        <pt x="448" y="1144" on="1"/>
        <pt x="380" y="1010" on="0"/>
        <pt x="380" y="755" on="1"/>
      </contour>
    </TTGlyph>
    <TTGlyph name="Pi" xMin="200" yMin="-40" xMax="1190" yMax="1510">
      <contour>
        <pt x="200" y="-40" on="1"/>
        <pt x="200" y="1296" on="1"/>
        <pt x="200" y="1510" on="0"/>
        <pt x="450" y="1510" on="1"/>
        <pt x="940" y="1510" on="1"/>
        <pt x="1190" y="1510" on="0"/>
        <pt x="1190" y="1296" on="1"/>
        <pt x="1190" y="50" on="1"/>
        <pt x="1000" y="-40" on="1"/>
        <pt x="990" y="-40" on="1"/>
        <pt x="990" y="1296" on="1"/>
        <pt x="990" y="1340" on="0"/>
        <pt x="940" y="1340" on="1"/>
        <pt x="450" y="1340" on="1"/>
        <pt x="400" y="1340" on="0"/>
        <pt x="400" y="1296" on="1"/>
        <pt x="400" y="50" on="1"/>
        <pt x="210" y="-40" on="1"/>
      </contour>
    </TTGlyph>
    <TTGlyph name="Q" xMin="150" yMin="-40" xMax="1274" yMax="1530">
      <contour>
        <pt x="987" y="-40" on="1"/>
        <pt x="977" y="-40" on="1"/>
        <pt x="929" y="29" on="1"/>
        <pt x="831" y="-20" on="0"/>
        <pt x="712" y="-20" on="1"/>
        <pt x="414" y="-20" on="0"/>
        <pt x="246" y="288" on="1"/>
        <pt x="150" y="464" on="0"/>
        <pt x="150" y="1046" on="0"/>
        <pt x="246" y="1222" on="1"/>
        <pt x="414" y="1530" on="0"/>
        <pt x="712" y="1530" on="1"/>
        <pt x="1011" y="1530" on="0"/>
        <pt x="1178" y="1222" on="1"/>
        <pt x="1274" y="1045" on="0"/>
        <pt x="1274" y="755" on="1"/>
        <pt x="1274" y="464" on="0"/>
        <pt x="1178" y="288" on="1"/>
        <pt x="1136" y="211" on="0"/>
        <pt x="1086" y="153" on="1"/>
        <pt x="1163" y="43" on="1"/>
      </contour>
      <contour>
        <pt x="350" y="1009" on="0"/>
        <pt x="350" y="501" on="0"/>
        <pt x="418" y="366" on="1"/>
        <pt x="529" y="150" on="0"/>
        <pt x="712" y="150" on="1"/>
        <pt x="774" y="150" on="0"/>
        <pt x="827" y="174" on="1"/>
        <pt x="631" y="455" on="1"/>
        <pt x="807" y="538" on="1"/>
        <pt x="817" y="538" on="1"/>
        <pt x="975" y="312" on="1"/>
        <pt x="991" y="337" on="0"/>
        <pt x="1006" y="366" on="1"/>
        <pt x="1074" y="497" on="0"/>
        <pt x="1074" y="755" on="1"/>
        <pt x="1074" y="1009" on="0"/>
        <pt x="1006" y="1144" on="1"/>
        <pt x="898" y="1360" on="0"/>
        <pt x="712" y="1360" on="1"/>
        <pt x="525" y="1360" on="0"/>
        <pt x="418" y="1144" on="1"/>
      </contour>
    </TTGlyph>
    <TTGlyph name="R" xMin="180" yMin="-40" xMax="1288" yMax="1530">
      <contour>
        <pt x="380" y="670" on="1"/>
        <pt x="692" y="670" on="1"/>
        <pt x="880" y="670" on="0"/>
        <pt x="961" y="762" on="1"/>
        <pt x="1054" y="868" on="0"/>
        <pt x="1054" y="1005" on="1"/>
        <pt x="1054" y="1167" on="0"/>
        <pt x="958" y="1267" on="1"/>
        <pt x="868" y="1360" on="0"/>
        <pt x="742" y="1360" on="1"/>
        <pt x="558" y="1360" on="0"/>
        <pt x="448" y="1144" on="1"/>
        <pt x="380" y="1010" on="0"/>
        <pt x="380" y="755" on="1"/>
      </contour>
      <contour>
        <pt x="180" y="-40" on="1"/>
        <pt x="180" y="755" on="1"/>
        <pt x="180" y="1046" on="0"/>
        <pt x="276" y="1222" on="1"/>
        <pt x="444" y="1530" on="0"/>
        <pt x="742" y="1530" on="1"/>
        <pt x="991" y="1530" on="0"/>
        <pt x="1135" y="1346" on="1"/>
        <pt x="1254" y="1194" on="0"/>
        <pt x="1254" y="1005" on="1"/>
        <pt x="1254" y="833" on="0"/>
        <pt x="1133" y="684" on="1"/>
        <pt x="1055" y="588" on="0"/>
        <pt x="939" y="542" on="1"/>
        <pt x="1288" y="43" on="1"/>
        <pt x="1112" y="-40" on="1"/>
        <pt x="1102" y="-40" on="1"/>
        <pt x="725" y="500" on="1"/>
        <pt x="380" y="500" on="1"/>
        <pt x="380" y="50" on="1"/>
        <pt x="190" y="-40" on="1"/>
      </contour>
    </TTGlyph>
    <TTGlyph name="Racute" xMin="180" yMin="-40" xMax="1288" yMax="1966">
      <contour>
        <pt x="380" y="670" on="1"/>
        <pt x="692" y="670" on="1"/>
        <pt x="880" y="670" on="0"/>
        <pt x="961" y="762" on="1"/>
        <pt x="1054" y="868" on="0"/>
        <pt x="1054" y="1005" on="1"/>
        <pt x="1054" y="1167" on="0"/>
        <pt x="958" y="1267" on="1"/>
        <pt x="868" y="1360" on="0"/>
        <pt x="742" y="1360" on="1"/>
        <pt x="558" y="1360" on="0"/>
        <pt x="448" y="1144" on="1"/>
        <pt x="380" y="1010" on="0"/>
        <pt x="380" y="755" on="1"/>
      </contour>
      <contour>
        <pt x="180" y="-40" on="1"/>
        <pt x="180" y="755" on="1"/>
        <pt x="180" y="1046" on="0"/>
        <pt x="276" y="1222" on="1"/>
        <pt x="444" y="1530" on="0"/>
        <pt x="742" y="1530" on="1"/>
        <pt x="991" y="1530" on="0"/>
        <pt x="1135" y="1346" on="1"/>
        <pt x="1254" y="1194" on="0"/>
        <pt x="1254" y="1005" on="1"/>
        <pt x="1254" y="833" on="0"/>
        <pt x="1133" y="684" on="1"/>
        <pt x="1055" y="588" on="0"/>
        <pt x="939" y="542" on="1"/>
        <pt x="1288" y="43" on="1"/>
        <pt x="1112" y="-40" on="1"/>
        <pt x="1102" y="-40" on="1"/>
        <pt x="725" y="500" on="1"/>
        <pt x="380" y="500" on="1"/>
        <pt x="380" y="50" on="1"/>
        <pt x="190" y="-40" on="1"/>
      </contour>
      <contour>
        <pt x="780" y="1966" on="1"/>
        <pt x="790" y="1966" on="1"/>
        <pt x="966" y="1882" on="1"/>
        <pt x="745" y="1566" on="1"/>
        <pt x="735" y="1566" on="1"/>
        <pt x="618" y="1621" on="1"/>
      </contour>
    </TTGlyph>
    <TTGlyph name="Rcaron" xMin="180" yMin="-40" xMax="1288" yMax="1966">
      <contour>
        <pt x="380" y="670" on="1"/>
        <pt x="692" y="670" on="1"/>
        <pt x="880" y="670" on="0"/>
        <pt x="961" y="762" on="1"/>
        <pt x="1054" y="868" on="0"/>
        <pt x="1054" y="1005" on="1"/>
        <pt x="1054" y="1167" on="0"/>
        <pt x="958" y="1267" on="1"/>
        <pt x="868" y="1360" on="0"/>
        <pt x="742" y="1360" on="1"/>
        <pt x="558" y="1360" on="0"/>
        <pt x="448" y="1144" on="1"/>
        <pt x="380" y="1010" on="0"/>
        <pt x="380" y="755" on="1"/>
      </contour>
      <contour>
        <pt x="180" y="-40" on="1"/>
        <pt x="180" y="755" on="1"/>
        <pt x="180" y="1046" on="0"/>
        <pt x="276" y="1222" on="1"/>
        <pt x="444" y="1530" on="0"/>
        <pt x="742" y="1530" on="1"/>
        <pt x="991" y="1530" on="0"/>
        <pt x="1135" y="1346" on="1"/>
        <pt x="1254" y="1194" on="0"/>
        <pt x="1254" y="1005" on="1"/>
        <pt x="1254" y="833" on="0"/>
        <pt x="1133" y="684" on="1"/>
        <pt x="1055" y="588" on="0"/>
        <pt x="939" y="542" on="1"/>
        <pt x="1288" y="43" on="1"/>
        <pt x="1112" y="-40" on="1"/>
        <pt x="1102" y="-40" on="1"/>
        <pt x="725" y="500" on="1"/>
        <pt x="380" y="500" on="1"/>
        <pt x="380" y="50" on="1"/>
        <pt x="190" y="-40" on="1"/>
      </contour>
      <contour>
        <pt x="667" y="1566" on="1"/>
        <pt x="454" y="1911" on="1"/>
        <pt x="570" y="1966" on="1"/>
        <pt x="580" y="1966" on="1"/>
        <pt x="730" y="1758" on="1"/>
        <pt x="878" y="1966" on="1"/>
        <pt x="888" y="1966" on="1"/>
        <pt x="1006" y="1911" on="1"/>
        <pt x="853" y="1650" on="1"/>
        <pt x="677" y="1566" on="1"/>
      </contour>
    </TTGlyph>
    <TTGlyph name="Rcommaaccent" xMin="180" yMin="-450" xMax="1288" yMax="1530">
      <contour>
        <pt x="380" y="670" on="1"/>
        <pt x="692" y="670" on="1"/>
        <pt x="880" y="670" on="0"/>
        <pt x="961" y="762" on="1"/>
        <pt x="1054" y="868" on="0"/>
        <pt x="1054" y="1005" on="1"/>
        <pt x="1054" y="1167" on="0"/>
        <pt x="958" y="1267" on="1"/>
        <pt x="868" y="1360" on="0"/>
        <pt x="742" y="1360" on="1"/>
        <pt x="558" y="1360" on="0"/>
        <pt x="448" y="1144" on="1"/>
        <pt x="380" y="1010" on="0"/>
        <pt x="380" y="755" on="1"/>
      </contour>
      <contour>
        <pt x="180" y="-40" on="1"/>
        <pt x="180" y="755" on="1"/>
        <pt x="180" y="1046" on="0"/>
        <pt x="276" y="1222" on="1"/>
        <pt x="444" y="1530" on="0"/>
        <pt x="742" y="1530" on="1"/>
        <pt x="991" y="1530" on="0"/>
        <pt x="1135" y="1346" on="1"/>
        <pt x="1254" y="1194" on="0"/>
        <pt x="1254" y="1005" on="1"/>
        <pt x="1254" y="833" on="0"/>
        <pt x="1133" y="684" on="1"/>
        <pt x="1055" y="588" on="0"/>
        <pt x="939" y="542" on="1"/>
        <pt x="1288" y="43" on="1"/>
        <pt x="1112" y="-40" on="1"/>
        <pt x="1102" y="-40" on="1"/>
        <pt x="725" y="500" on="1"/>
        <pt x="380" y="500" on="1"/>
        <pt x="380" y="50" on="1"/>
        <pt x="190" y="-40" on="1"/>
      </contour>
      <contour>
        <pt x="596" y="-450" on="1"/>
        <pt x="586" y="-450" on="1"/>
        <pt x="410" y="-366" on="1"/>
        <pt x="631" y="-50" on="1"/>
        <pt x="641" y="-50" on="1"/>
        <pt x="758" y="-105" on="1"/>
      </contour>
    </TTGlyph>
    <TTGlyph name="S" xMin="120" yMin="-20" xMax="1090" yMax="1530">
      <contour>
        <pt x="120" y="288" on="1"/>
        <pt x="120" y="288" on="0"/>
        <pt x="282" y="366" on="1"/>
        <pt x="292" y="366" on="1"/>
        <pt x="400" y="150" on="0"/>
        <pt x="586" y="150" on="1"/>
        <pt x="714" y="150" on="0"/>
        <pt x="815" y="265" on="1"/>
        <pt x="888" y="349" on="0"/>
        <pt x="888" y="478" on="1"/>
        <pt x="888" y="578" on="0"/>
        <pt x="824" y="646" on="1"/>
        <pt x="750" y="725" on="0"/>
        <pt x="604" y="756" on="1"/>
        <pt x="452" y="787" on="0"/>
        <pt x="339" y="868" on="1"/>
        <pt x="201" y="968" on="0"/>
        <pt x="201" y="1132" on="1"/>
        <pt x="201" y="1312" on="0"/>
        <pt x="330" y="1428" on="1"/>
        <pt x="442" y="1530" on="0"/>
        <pt x="616" y="1530" on="1"/>
        <pt x="840" y="1530" on="0"/>
        <pt x="964" y="1302" on="1"/>
        <pt x="806" y="1227" on="1"/>
        <pt x="796" y="1227" on="1"/>
        <pt x="729" y="1360" on="0"/>
        <pt x="616" y="1360" on="1"/>
        <pt x="520" y="1359" on="0"/>
        <pt x="461" y="1299" on="1"/>
        <pt x="401" y="1238" on="0"/>
        <pt x="401" y="1147" on="1"/>
        <pt x="401" y="1067" on="0"/>
        <pt x="454" y="1021" on="1"/>
        <pt x="521" y="963" on="0"/>
        <pt x="661" y="935" on="1"/>
        <pt x="848" y="899" on="0"/>
        <pt x="969" y="779" on="1"/>
        <pt x="1090" y="658" on="0"/>
        <pt x="1090" y="472" on="1"/>
        <pt x="1090" y="282" on="0"/>
        <pt x="946" y="132" on="1"/>
        <pt x="803" y="-20" on="0"/>
        <pt x="586" y="-20" on="1"/>
        <pt x="287" y="-20" on="0"/>
      </contour>
    </TTGlyph>
    <TTGlyph name="Sacute" xMin="120" yMin="-20" xMax="1090" yMax="1966">
      <contour>
        <pt x="120" y="288" on="1"/>
        <pt x="120" y="288" on="0"/>
        <pt x="282" y="366" on="1"/>
        <pt x="292" y="366" on="1"/>
        <pt x="400" y="150" on="0"/>
        <pt x="586" y="150" on="1"/>
        <pt x="714" y="150" on="0"/>
        <pt x="815" y="265" on="1"/>
        <pt x="888" y="349" on="0"/>
        <pt x="888" y="478" on="1"/>
        <pt x="888" y="578" on="0"/>
        <pt x="824" y="646" on="1"/>
        <pt x="750" y="725" on="0"/>
        <pt x="604" y="756" on="1"/>
        <pt x="452" y="787" on="0"/>
        <pt x="339" y="868" on="1"/>
        <pt x="201" y="968" on="0"/>
        <pt x="201" y="1132" on="1"/>
        <pt x="201" y="1312" on="0"/>
        <pt x="330" y="1428" on="1"/>
        <pt x="442" y="1530" on="0"/>
        <pt x="616" y="1530" on="1"/>
        <pt x="840" y="1530" on="0"/>
        <pt x="964" y="1302" on="1"/>
        <pt x="806" y="1227" on="1"/>
        <pt x="796" y="1227" on="1"/>
        <pt x="729" y="1360" on="0"/>
        <pt x="616" y="1360" on="1"/>
        <pt x="520" y="1359" on="0"/>
        <pt x="461" y="1299" on="1"/>
        <pt x="401" y="1238" on="0"/>
        <pt x="401" y="1147" on="1"/>
        <pt x="401" y="1067" on="0"/>
        <pt x="454" y="1021" on="1"/>
        <pt x="521" y="963" on="0"/>
        <pt x="661" y="935" on="1"/>
        <pt x="848" y="899" on="0"/>
        <pt x="969" y="779" on="1"/>
        <pt x="1090" y="658" on="0"/>
        <pt x="1090" y="472" on="1"/>
        <pt x="1090" y="282" on="0"/>
        <pt x="946" y="132" on="1"/>
        <pt x="803" y="-20" on="0"/>
        <pt x="586" y="-20" on="1"/>
        <pt x="287" y="-20" on="0"/>
      </contour>
      <contour>
        <pt x="701" y="1966" on="1"/>
        <pt x="711" y="1966" on="1"/>
        <pt x="887" y="1882" on="1"/>
        <pt x="666" y="1566" on="1"/>
        <pt x="656" y="1566" on="1"/>
        <pt x="539" y="1621" on="1"/>
      </contour>
    </TTGlyph>
    <TTGlyph name="Scaron" xMin="120" yMin="-20" xMax="1090" yMax="1966">
      <contour>
        <pt x="120" y="288" on="1"/>
        <pt x="120" y="288" on="0"/>
        <pt x="282" y="366" on="1"/>
        <pt x="292" y="366" on="1"/>
        <pt x="400" y="150" on="0"/>
        <pt x="586" y="150" on="1"/>
        <pt x="714" y="150" on="0"/>
        <pt x="815" y="265" on="1"/>
        <pt x="888" y="349" on="0"/>
        <pt x="888" y="478" on="1"/>
        <pt x="888" y="578" on="0"/>
        <pt x="824" y="646" on="1"/>
        <pt x="750" y="725" on="0"/>
        <pt x="604" y="756" on="1"/>
        <pt x="452" y="787" on="0"/>
        <pt x="339" y="868" on="1"/>
        <pt x="201" y="968" on="0"/>
        <pt x="201" y="1132" on="1"/>
        <pt x="201" y="1312" on="0"/>
        <pt x="330" y="1428" on="1"/>
        <pt x="442" y="1530" on="0"/>
        <pt x="616" y="1530" on="1"/>
        <pt x="840" y="1530" on="0"/>
        <pt x="964" y="1302" on="1"/>
        <pt x="806" y="1227" on="1"/>
        <pt x="796" y="1227" on="1"/>
        <pt x="729" y="1360" on="0"/>
        <pt x="616" y="1360" on="1"/>
        <pt x="520" y="1359" on="0"/>
        <pt x="461" y="1299" on="1"/>
        <pt x="401" y="1238" on="0"/>
        <pt x="401" y="1147" on="1"/>
        <pt x="401" y="1067" on="0"/>
        <pt x="454" y="1021" on="1"/>
        <pt x="521" y="963" on="0"/>
        <pt x="661" y="935" on="1"/>
        <pt x="848" y="899" on="0"/>
        <pt x="969" y="779" on="1"/>
        <pt x="1090" y="658" on="0"/>
        <pt x="1090" y="472" on="1"/>
        <pt x="1090" y="282" on="0"/>
        <pt x="946" y="132" on="1"/>
        <pt x="803" y="-20" on="0"/>
        <pt x="586" y="-20" on="1"/>
        <pt x="287" y="-20" on="0"/>
      </contour>
      <contour>
        <pt x="508" y="1566" on="1"/>
        <pt x="295" y="1911" on="1"/>
        <pt x="411" y="1966" on="1"/>
        <pt x="421" y="1966" on="1"/>
        <pt x="571" y="1758" on="1"/>
        <pt x="719" y="1966" on="1"/>
        <pt x="729" y="1966" on="1"/>
        <pt x="847" y="1911" on="1"/>
        <pt x="694" y="1650" on="1"/>
        <pt x="518" y="1566" on="1"/>
      </contour>
    </TTGlyph>
    <TTGlyph name="Scedilla" xMin="120" yMin="-450" xMax="1090" yMax="1530">
      <contour>
        <pt x="120" y="288" on="1"/>
        <pt x="282" y="366" on="1"/>
        <pt x="292" y="366" on="1"/>
        <pt x="400" y="150" on="0"/>
        <pt x="586" y="150" on="1"/>
        <pt x="714" y="150" on="0"/>
        <pt x="815" y="265" on="1"/>
        <pt x="888" y="349" on="0"/>
        <pt x="888" y="478" on="1"/>
        <pt x="888" y="578" on="0"/>
        <pt x="824" y="646" on="1"/>
        <pt x="750" y="725" on="0"/>
        <pt x="604" y="756" on="1"/>
        <pt x="449" y="789" on="0"/>
        <pt x="339" y="868" on="1"/>
        <pt x="201" y="968" on="0"/>
        <pt x="201" y="1132" on="1"/>
        <pt x="201" y="1311" on="0"/>
        <pt x="330" y="1428" on="1"/>
        <pt x="443" y="1530" on="0"/>
        <pt x="616" y="1530" on="1"/>
        <pt x="840" y="1530" on="0"/>
        <pt x="964" y="1302" on="1"/>
        <pt x="806" y="1227" on="1"/>
        <pt x="796" y="1227" on="1"/>
        <pt x="728" y="1360" on="0"/>
        <pt x="616" y="1360" on="1"/>
        <pt x="519" y="1360" on="0"/>
        <pt x="461" y="1299" on="1"/>
        <pt x="401" y="1238" on="0"/>
        <pt x="401" y="1147" on="1"/>
        <pt x="401" y="1067" on="0"/>
        <pt x="454" y="1021" on="1"/>
        <pt x="521" y="963" on="0"/>
        <pt x="661" y="935" on="1"/>
        <pt x="851" y="897" on="0"/>
        <pt x="969" y="779" on="1"/>
        <pt x="1090" y="658" on="0"/>
        <pt x="1090" y="472" on="1"/>
        <pt x="1090" y="285" on="0"/>
        <pt x="946" y="132" on="1"/>
        <pt x="833" y="12" on="0"/>
        <pt x="673" y="-13" on="1"/>
        <pt x="746" y="-98" on="0"/>
        <pt x="746" y="-206" on="1"/>
        <pt x="746" y="-343" on="0"/>
        <pt x="637" y="-450" on="1"/>
        <pt x="627" y="-450" on="1"/>
        <pt x="437" y="-360" on="1"/>
        <pt x="571" y="-273" on="0"/>
        <pt x="571" y="-152" on="1"/>
        <pt x="571" y="-88" on="0"/>
        <pt x="525" y="-17" on="1"/>
        <pt x="270" y="12" on="0"/>
      </contour>
    </TTGlyph>
    <TTGlyph name="Scircumflex" xMin="120" yMin="-20" xMax="1090" yMax="1966">
      <contour>
        <pt x="120" y="288" on="1"/>
        <pt x="120" y="288" on="0"/>
        <pt x="282" y="366" on="1"/>
        <pt x="292" y="366" on="1"/>
        <pt x="400" y="150" on="0"/>
        <pt x="586" y="150" on="1"/>
        <pt x="714" y="150" on="0"/>
        <pt x="815" y="265" on="1"/>
        <pt x="888" y="349" on="0"/>
        <pt x="888" y="478" on="1"/>
        <pt x="888" y="578" on="0"/>
        <pt x="824" y="646" on="1"/>
        <pt x="750" y="725" on="0"/>
        <pt x="604" y="756" on="1"/>
        <pt x="452" y="787" on="0"/>
        <pt x="339" y="868" on="1"/>
        <pt x="201" y="968" on="0"/>
        <pt x="201" y="1132" on="1"/>
        <pt x="201" y="1312" on="0"/>
        <pt x="330" y="1428" on="1"/>
        <pt x="442" y="1530" on="0"/>
        <pt x="616" y="1530" on="1"/>
        <pt x="840" y="1530" on="0"/>
        <pt x="964" y="1302" on="1"/>
        <pt x="806" y="1227" on="1"/>
        <pt x="796" y="1227" on="1"/>
        <pt x="729" y="1360" on="0"/>
        <pt x="616" y="1360" on="1"/>
        <pt x="520" y="1359" on="0"/>
        <pt x="461" y="1299" on="1"/>
        <pt x="401" y="1238" on="0"/>
        <pt x="401" y="1147" on="1"/>
        <pt x="401" y="1067" on="0"/>
        <pt x="454" y="1021" on="1"/>
        <pt x="521" y="963" on="0"/>
        <pt x="661" y="935" on="1"/>
        <pt x="848" y="899" on="0"/>
        <pt x="969" y="779" on="1"/>
        <pt x="1090" y="658" on="0"/>
        <pt x="1090" y="472" on="1"/>
        <pt x="1090" y="282" on="0"/>
        <pt x="946" y="132" on="1"/>
        <pt x="803" y="-20" on="0"/>
        <pt x="586" y="-20" on="1"/>
        <pt x="287" y="-20" on="0"/>
      </contour>
      <contour>
        <pt x="330" y="1621" on="1"/>
        <pt x="483" y="1882" on="1"/>
        <pt x="659" y="1966" on="1"/>
        <pt x="669" y="1966" on="1"/>
        <pt x="882" y="1621" on="1"/>
        <pt x="766" y="1566" on="1"/>
        <pt x="756" y="1566" on="1"/>
        <pt x="606" y="1774" on="1"/>
        <pt x="458" y="1566" on="1"/>
        <pt x="448" y="1566" on="1"/>
      </contour>
    </TTGlyph>
    <TTGlyph name="Scommaaccent" xMin="120" yMin="-450" xMax="1090" yMax="1530">
      <contour>
        <pt x="120" y="288" on="1"/>
        <pt x="120" y="288" on="0"/>
        <pt x="282" y="366" on="1"/>
        <pt x="292" y="366" on="1"/>
        <pt x="400" y="150" on="0"/>
        <pt x="586" y="150" on="1"/>
        <pt x="714" y="150" on="0"/>
        <pt x="815" y="265" on="1"/>
        <pt x="888" y="349" on="0"/>
        <pt x="888" y="478" on="1"/>
        <pt x="888" y="578" on="0"/>
        <pt x="824" y="646" on="1"/>
        <pt x="750" y="725" on="0"/>
        <pt x="604" y="756" on="1"/>
        <pt x="452" y="787" on="0"/>
        <pt x="339" y="868" on="1"/>
        <pt x="201" y="968" on="0"/>
        <pt x="201" y="1132" on="1"/>
        <pt x="201" y="1312" on="0"/>
        <pt x="330" y="1428" on="1"/>
        <pt x="442" y="1530" on="0"/>
        <pt x="616" y="1530" on="1"/>
        <pt x="840" y="1530" on="0"/>
        <pt x="964" y="1302" on="1"/>
        <pt x="806" y="1227" on="1"/>
        <pt x="796" y="1227" on="1"/>
        <pt x="729" y="1360" on="0"/>
        <pt x="616" y="1360" on="1"/>
        <pt x="520" y="1359" on="0"/>
        <pt x="461" y="1299" on="1"/>
        <pt x="401" y="1238" on="0"/>
        <pt x="401" y="1147" on="1"/>
        <pt x="401" y="1067" on="0"/>
        <pt x="454" y="1021" on="1"/>
        <pt x="521" y="963" on="0"/>
        <pt x="661" y="935" on="1"/>
        <pt x="848" y="899" on="0"/>
        <pt x="969" y="779" on="1"/>
        <pt x="1090" y="658" on="0"/>
        <pt x="1090" y="472" on="1"/>
        <pt x="1090" y="282" on="0"/>
        <pt x="946" y="132" on="1"/>
        <pt x="803" y="-20" on="0"/>
        <pt x="586" y="-20" on="1"/>
        <pt x="287" y="-20" on="0"/>
      </contour>
      <contour>
        <pt x="501" y="-450" on="1"/>
        <pt x="491" y="-450" on="1"/>
        <pt x="315" y="-366" on="1"/>
        <pt x="536" y="-50" on="1"/>
        <pt x="546" y="-50" on="1"/>
        <pt x="663" y="-105" on="1"/>
      </contour>
    </TTGlyph>
    <TTGlyph name="Sigma" xMin="150" yMin="0" xMax="1118" yMax="1510">
      <contour>
        <pt x="343" y="0" on="1"/>
        <pt x="150" y="0" on="0"/>
        <pt x="150" y="134" on="1"/>
        <pt x="150" y="218" on="0"/>
        <pt x="262" y="362" on="1"/>
        <pt x="585" y="774" on="1"/>
        <pt x="293" y="1148" on="1"/>
        <pt x="181" y="1292" on="0"/>
        <pt x="181" y="1376" on="1"/>
        <pt x="181" y="1510" on="0"/>
        <pt x="374" y="1510" on="1"/>
        <pt x="942" y="1510" on="1"/>
        <pt x="942" y="1500" on="1"/>
        <pt x="867" y="1340" on="1"/>
        <pt x="374" y="1340" on="1"/>
        <pt x="817" y="774" on="1"/>
        <pt x="343" y="170" on="1"/>
        <pt x="810" y="170" on="1"/>
        <pt x="928" y="170" on="0"/>
        <pt x="958" y="287" on="1"/>
        <pt x="958" y="287" on="0"/>
        <pt x="968" y="287" on="1"/>
        <pt x="1118" y="216" on="1"/>
        <pt x="1058" y="0" on="0"/>
        <pt x="810" y="0" on="1"/>
      </contour>
    </TTGlyph>
    <TTGlyph name="T" xMin="5" yMin="-40" xMax="1061" yMax="1510">
      <contour>
        <pt x="433" y="-40" on="1"/>
        <pt x="434" y="1340" on="1"/>
        <pt x="313" y="1340" on="1"/>
        <pt x="194" y="1340" on="0"/>
        <pt x="165" y="1223" on="1"/>
        <pt x="155" y="1223" on="1"/>
        <pt x="5" y="1294" on="1"/>
        <pt x="64" y="1510" on="0"/>
        <pt x="313" y="1510" on="1"/>
        <pt x="1061" y="1510" on="1"/>
        <pt x="1061" y="1500" on="1"/>
        <pt x="986" y="1340" on="1"/>
        <pt x="634" y="1340" on="1"/>
        <pt x="633" y="50" on="1"/>
        <pt x="443" y="-40" on="1"/>
      </contour>
    </TTGlyph>
    <TTGlyph name="Tbar" xMin="5" yMin="-40" xMax="1061" yMax="1510">
      <contour>
        <pt x="433" y="-40" on="1"/>
        <pt x="433" y="558" on="1"/>
        <pt x="245" y="558" on="1"/>
        <pt x="245" y="568" on="1"/>
        <pt x="320" y="728" on="1"/>
        <pt x="434" y="728" on="1"/>
        <pt x="434" y="1340" on="1"/>
        <pt x="313" y="1340" on="1"/>
        <pt x="194" y="1340" on="0"/>
        <pt x="165" y="1223" on="1"/>
        <pt x="155" y="1223" on="1"/>
        <pt x="5" y="1294" on="1"/>
        <pt x="64" y="1510" on="0"/>
        <pt x="313" y="1510" on="1"/>
        <pt x="1061" y="1510" on="1"/>
        <pt x="1061" y="1500" on="1"/>
        <pt x="986" y="1340" on="1"/>
        <pt x="634" y="1340" on="1"/>
        <pt x="634" y="728" on="1"/>
        <pt x="821" y="728" on="1"/>
        <pt x="821" y="718" on="1"/>
        <pt x="746" y="558" on="1"/>
        <pt x="633" y="558" on="1"/>
        <pt x="633" y="50" on="1"/>
        <pt x="443" y="-40" on="1"/>
      </contour>
    </TTGlyph>
    <TTGlyph name="Tcaron" xMin="5" yMin="-40" xMax="1061" yMax="1966">
      <contour>
        <pt x="433" y="-40" on="1"/>
        <pt x="434" y="1340" on="1"/>
        <pt x="313" y="1340" on="1"/>
        <pt x="194" y="1340" on="0"/>
        <pt x="165" y="1223" on="1"/>
        <pt x="155" y="1223" on="1"/>
        <pt x="5" y="1294" on="1"/>
        <pt x="64" y="1510" on="0"/>
        <pt x="313" y="1510" on="1"/>
        <pt x="1061" y="1510" on="1"/>
        <pt x="1061" y="1500" on="1"/>
        <pt x="986" y="1340" on="1"/>
        <pt x="634" y="1340" on="1"/>
        <pt x="633" y="50" on="1"/>
        <pt x="443" y="-40" on="1"/>
      </contour>
      <contour>
        <pt x="448" y="1566" on="1"/>
        <pt x="235" y="1911" on="1"/>
        <pt x="351" y="1966" on="1"/>
        <pt x="361" y="1966" on="1"/>
        <pt x="511" y="1758" on="1"/>
        <pt x="659" y="1966" on="1"/>
        <pt x="669" y="1966" on="1"/>
        <pt x="787" y="1911" on="1"/>
        <pt x="634" y="1650" on="1"/>
        <pt x="458" y="1566" on="1"/>
      </contour>
    </TTGlyph>
    <TTGlyph name="Tcommaaccent" xMin="5" yMin="-450" xMax="1061" yMax="1510">
      <contour>
        <pt x="433" y="-40" on="1"/>
        <pt x="434" y="1340" on="1"/>
        <pt x="313" y="1340" on="1"/>
        <pt x="194" y="1340" on="0"/>
        <pt x="165" y="1223" on="1"/>
        <pt x="155" y="1223" on="1"/>
        <pt x="5" y="1294" on="1"/>
        <pt x="64" y="1510" on="0"/>
        <pt x="313" y="1510" on="1"/>
        <pt x="1061" y="1510" on="1"/>
        <pt x="1061" y="1500" on="1"/>
        <pt x="986" y="1340" on="1"/>
        <pt x="634" y="1340" on="1"/>
        <pt x="633" y="52" on="1"/>
        <pt x="779" y="-59" on="0"/>
        <pt x="779" y="-206" on="1"/>
        <pt x="779" y="-343" on="0"/>
        <pt x="670" y="-450" on="1"/>
        <pt x="660" y="-450" on="1"/>
        <pt x="470" y="-360" on="1"/>
        <pt x="604" y="-273" on="0"/>
        <pt x="604" y="-152" on="1"/>
        <pt x="604" y="-77" on="0"/>
        <pt x="541" y="6" on="1"/>
        <pt x="443" y="-40" on="1"/>
      </contour>
    </TTGlyph>
    <TTGlyph name="Thorn" xMin="200" yMin="-40" xMax="1274" yMax="1550">
      <contour>
        <pt x="400" y="558" on="1"/>
        <pt x="400" y="473" on="1"/>
        <pt x="712" y="473" on="1"/>
        <pt x="900" y="473" on="0"/>
        <pt x="981" y="565" on="1"/>
        <pt x="1074" y="671" on="0"/>
        <pt x="1074" y="808" on="1"/>
        <pt x="1074" y="970" on="0"/>
        <pt x="978" y="1070" on="1"/>
        <pt x="888" y="1163" on="0"/>
        <pt x="762" y="1163" on="1"/>
        <pt x="578" y="1163" on="0"/>
        <pt x="468" y="947" on="1"/>
        <pt x="400" y="813" on="0"/>
      </contour>
      <contour>
        <pt x="200" y="-40" on="1"/>
        <pt x="200" y="1460" on="1"/>
        <pt x="390" y="1550" on="1"/>
        <pt x="400" y="1550" on="1"/>
        <pt x="400" y="1173" on="1"/>
        <pt x="547" y="1333" on="0"/>
        <pt x="762" y="1333" on="1"/>
        <pt x="1011" y="1333" on="0"/>
        <pt x="1155" y="1149" on="1"/>
        <pt x="1274" y="997" on="0"/>
        <pt x="1274" y="808" on="1"/>
        <pt x="1274" y="636" on="0"/>
        <pt x="1153" y="487" on="1"/>
        <pt x="1003" y="303" on="0"/>
        <pt x="712" y="303" on="1"/>
        <pt x="400" y="303" on="1"/>
        <pt x="400" y="50" on="1"/>
        <pt x="210" y="-40" on="1"/>
      </contour>
    </TTGlyph>
    <TTGlyph name="U" xMin="150" yMin="-20" xMax="1274" yMax="1550">
      <contour>
        <pt x="1274" y="1550" on="1"/>
        <pt x="1274" y="755" on="1"/>
        <pt x="1274" y="464" on="0"/>
        <pt x="1178" y="288" on="1"/>
        <pt x="1010" y="-20" on="0"/>
        <pt x="712" y="-20" on="1"/>
        <pt x="413" y="-20" on="0"/>
        <pt x="246" y="288" on="1"/>
        <pt x="150" y="464" on="0"/>
        <pt x="150" y="755" on="1"/>
        <pt x="150" y="1041" on="0"/>
        <pt x="246" y="1222" on="1"/>
        <pt x="381" y="1476" on="0"/>
        <pt x="598" y="1550" on="1"/>
        <pt x="608" y="1550" on="1"/>
        <pt x="683" y="1401" on="1"/>
        <pt x="505" y="1317" on="0"/>
        <pt x="418" y="1144" on="1"/>
        <pt x="350" y="1011" on="0"/>
        <pt x="350" y="755" on="1"/>
        <pt x="350" y="501" on="0"/>
        <pt x="418" y="366" on="1"/>
        <pt x="526" y="150" on="0"/>
        <pt x="712" y="150" on="1"/>
        <pt x="897" y="150" on="0"/>
        <pt x="1006" y="366" on="1"/>
        <pt x="1074" y="501" on="0"/>
        <pt x="1074" y="755" on="1"/>
        <pt x="1074" y="1460" on="1"/>
        <pt x="1264" y="1550" on="1"/>
      </contour>
    </TTGlyph>
    <TTGlyph name="Uacute" xMin="150" yMin="-20" xMax="1274" yMax="1966">
      <contour>
        <pt x="1274" y="1550" on="1"/>
        <pt x="1274" y="755" on="1"/>
        <pt x="1274" y="464" on="0"/>
        <pt x="1178" y="288" on="1"/>
        <pt x="1010" y="-20" on="0"/>
        <pt x="712" y="-20" on="1"/>
        <pt x="413" y="-20" on="0"/>
        <pt x="246" y="288" on="1"/>
        <pt x="150" y="464" on="0"/>
        <pt x="150" y="755" on="1"/>
        <pt x="150" y="1041" on="0"/>
        <pt x="246" y="1222" on="1"/>
        <pt x="381" y="1476" on="0"/>
        <pt x="598" y="1550" on="1"/>
        <pt x="608" y="1550" on="1"/>
        <pt x="683" y="1401" on="1"/>
        <pt x="505" y="1317" on="0"/>
        <pt x="418" y="1144" on="1"/>
        <pt x="350" y="1011" on="0"/>
        <pt x="350" y="755" on="1"/>
        <pt x="350" y="501" on="0"/>
        <pt x="418" y="366" on="1"/>
        <pt x="526" y="150" on="0"/>
        <pt x="712" y="150" on="1"/>
        <pt x="897" y="150" on="0"/>
        <pt x="1006" y="366" on="1"/>
        <pt x="1074" y="501" on="0"/>
        <pt x="1074" y="755" on="1"/>
        <pt x="1074" y="1460" on="1"/>
        <pt x="1264" y="1550" on="1"/>
      </contour>
      <contour>
        <pt x="917" y="1966" on="1"/>
        <pt x="927" y="1966" on="1"/>
        <pt x="1103" y="1882" on="1"/>
        <pt x="882" y="1566" on="1"/>
        <pt x="872" y="1566" on="1"/>
        <pt x="755" y="1621" on="1"/>
      </contour>
    </TTGlyph>
    <TTGlyph name="Ubreve" xMin="150" yMin="-20" xMax="1274" yMax="1947">
      <contour>
        <pt x="1274" y="1550" on="1"/>
        <pt x="1274" y="755" on="1"/>
        <pt x="1274" y="464" on="0"/>
        <pt x="1178" y="288" on="1"/>
        <pt x="1010" y="-20" on="0"/>
        <pt x="712" y="-20" on="1"/>
        <pt x="413" y="-20" on="0"/>
        <pt x="246" y="288" on="1"/>
        <pt x="150" y="464" on="0"/>
        <pt x="150" y="755" on="1"/>
        <pt x="150" y="1041" on="0"/>
        <pt x="246" y="1222" on="1"/>
        <pt x="381" y="1476" on="0"/>
        <pt x="598" y="1550" on="1"/>
        <pt x="608" y="1550" on="1"/>
        <pt x="683" y="1401" on="1"/>
        <pt x="505" y="1317" on="0"/>
        <pt x="418" y="1144" on="1"/>
        <pt x="350" y="1011" on="0"/>
        <pt x="350" y="755" on="1"/>
        <pt x="350" y="501" on="0"/>
        <pt x="418" y="366" on="1"/>
        <pt x="526" y="150" on="0"/>
        <pt x="712" y="150" on="1"/>
        <pt x="897" y="150" on="0"/>
        <pt x="1006" y="366" on="1"/>
        <pt x="1074" y="501" on="0"/>
        <pt x="1074" y="755" on="1"/>
        <pt x="1074" y="1460" on="1"/>
        <pt x="1264" y="1550" on="1"/>
      </contour>
      <contour>
        <pt x="568" y="1788" on="1"/>
        <pt x="568" y="1798" on="1"/>
        <pt x="642" y="1947" on="1"/>
        <pt x="714" y="1813" on="0"/>
        <pt x="914" y="1813" on="0"/>
        <pt x="986" y="1947" on="1"/>
        <pt x="1062" y="1798" on="1"/>
        <pt x="1062" y="1788" on="1"/>
        <pt x="960" y="1638" on="0"/>
        <pt x="812" y="1638" on="1"/>
        <pt x="658" y="1638" on="0"/>
      </contour>
    </TTGlyph>
    <TTGlyph name="Ucircumflex" xMin="150" yMin="-20" xMax="1274" yMax="1966">
      <contour>
        <pt x="1274" y="1550" on="1"/>
        <pt x="1274" y="755" on="1"/>
        <pt x="1274" y="464" on="0"/>
        <pt x="1178" y="288" on="1"/>
        <pt x="1010" y="-20" on="0"/>
        <pt x="712" y="-20" on="1"/>
        <pt x="413" y="-20" on="0"/>
        <pt x="246" y="288" on="1"/>
        <pt x="150" y="464" on="0"/>
        <pt x="150" y="755" on="1"/>
        <pt x="150" y="1041" on="0"/>
        <pt x="246" y="1222" on="1"/>
        <pt x="381" y="1476" on="0"/>
        <pt x="598" y="1550" on="1"/>
        <pt x="608" y="1550" on="1"/>
        <pt x="683" y="1401" on="1"/>
        <pt x="505" y="1317" on="0"/>
        <pt x="418" y="1144" on="1"/>
        <pt x="350" y="1011" on="0"/>
        <pt x="350" y="755" on="1"/>
        <pt x="350" y="501" on="0"/>
        <pt x="418" y="366" on="1"/>
        <pt x="526" y="150" on="0"/>
        <pt x="712" y="150" on="1"/>
        <pt x="897" y="150" on="0"/>
        <pt x="1006" y="366" on="1"/>
        <pt x="1074" y="501" on="0"/>
        <pt x="1074" y="755" on="1"/>
        <pt x="1074" y="1460" on="1"/>
        <pt x="1264" y="1550" on="1"/>
      </contour>
      <contour>
        <pt x="534" y="1621" on="1"/>
        <pt x="687" y="1882" on="1"/>
        <pt x="863" y="1966" on="1"/>
        <pt x="873" y="1966" on="1"/>
        <pt x="1086" y="1621" on="1"/>
        <pt x="970" y="1566" on="1"/>
        <pt x="960" y="1566" on="1"/>
        <pt x="810" y="1774" on="1"/>
        <pt x="662" y="1566" on="1"/>
        <pt x="652" y="1566" on="1"/>
      </contour>
    </TTGlyph>
    <TTGlyph name="Udieresis" xMin="150" yMin="-20" xMax="1274" yMax="1925">
      <contour>
        <pt x="1274" y="1550" on="1"/>
        <pt x="1274" y="755" on="1"/>
        <pt x="1274" y="464" on="0"/>
        <pt x="1178" y="288" on="1"/>
        <pt x="1010" y="-20" on="0"/>
        <pt x="712" y="-20" on="1"/>
        <pt x="413" y="-20" on="0"/>
        <pt x="246" y="288" on="1"/>
        <pt x="150" y="464" on="0"/>
        <pt x="150" y="755" on="1"/>
        <pt x="150" y="1041" on="0"/>
        <pt x="246" y="1222" on="1"/>
        <pt x="381" y="1476" on="0"/>
        <pt x="598" y="1550" on="1"/>
        <pt x="608" y="1550" on="1"/>
        <pt x="683" y="1401" on="1"/>
        <pt x="505" y="1317" on="0"/>
        <pt x="418" y="1144" on="1"/>
        <pt x="350" y="1011" on="0"/>
        <pt x="350" y="755" on="1"/>
        <pt x="350" y="501" on="0"/>
        <pt x="418" y="366" on="1"/>
        <pt x="526" y="150" on="0"/>
        <pt x="712" y="150" on="1"/>
        <pt x="897" y="150" on="0"/>
        <pt x="1006" y="366" on="1"/>
        <pt x="1074" y="501" on="0"/>
        <pt x="1074" y="755" on="1"/>
        <pt x="1074" y="1460" on="1"/>
        <pt x="1264" y="1550" on="1"/>
      </contour>
      <contour>
        <pt x="842" y="1752" on="0"/>
        <pt x="842" y="1853" on="0"/>
        <pt x="912" y="1925" on="0"/>
        <pt x="1012" y="1925" on="0"/>
        <pt x="1082" y="1853" on="0"/>
        <pt x="1082" y="1752" on="0"/>
        <pt x="1012" y="1680" on="0"/>
        <pt x="912" y="1680" on="0"/>
      </contour>
      <contour>
        <pt x="542" y="1752" on="0"/>
        <pt x="542" y="1853" on="0"/>
        <pt x="612" y="1925" on="0"/>
        <pt x="712" y="1925" on="0"/>
        <pt x="782" y="1853" on="0"/>
        <pt x="782" y="1752" on="0"/>
        <pt x="712" y="1680" on="0"/>
        <pt x="612" y="1680" on="0"/>
      </contour>
    </TTGlyph>
    <TTGlyph name="Ugrave" xMin="150" yMin="-20" xMax="1274" yMax="1966">
      <contour>
        <pt x="1274" y="1550" on="1"/>
        <pt x="1274" y="755" on="1"/>
        <pt x="1274" y="464" on="0"/>
        <pt x="1178" y="288" on="1"/>
        <pt x="1010" y="-20" on="0"/>
        <pt x="712" y="-20" on="1"/>
        <pt x="413" y="-20" on="0"/>
        <pt x="246" y="288" on="1"/>
        <pt x="150" y="464" on="0"/>
        <pt x="150" y="755" on="1"/>
        <pt x="150" y="1041" on="0"/>
        <pt x="246" y="1222" on="1"/>
        <pt x="381" y="1476" on="0"/>
        <pt x="598" y="1550" on="1"/>
        <pt x="608" y="1550" on="1"/>
        <pt x="683" y="1401" on="1"/>
        <pt x="505" y="1317" on="0"/>
        <pt x="418" y="1144" on="1"/>
        <pt x="350" y="1011" on="0"/>
        <pt x="350" y="755" on="1"/>
        <pt x="350" y="501" on="0"/>
        <pt x="418" y="366" on="1"/>
        <pt x="526" y="150" on="0"/>
        <pt x="712" y="150" on="1"/>
        <pt x="897" y="150" on="0"/>
        <pt x="1006" y="366" on="1"/>
        <pt x="1074" y="501" on="0"/>
        <pt x="1074" y="755" on="1"/>
        <pt x="1074" y="1460" on="1"/>
        <pt x="1264" y="1550" on="1"/>
      </contour>
      <contour>
        <pt x="696" y="1966" on="1"/>
        <pt x="706" y="1966" on="1"/>
        <pt x="868" y="1621" on="1"/>
        <pt x="751" y="1566" on="1"/>
        <pt x="741" y="1566" on="1"/>
        <pt x="520" y="1882" on="1"/>
      </contour>
    </TTGlyph>
    <TTGlyph name="Uhungarumlaut" xMin="150" yMin="-20" xMax="1274" yMax="1966">
      <contour>
        <pt x="1274" y="1550" on="1"/>
        <pt x="1274" y="755" on="1"/>
        <pt x="1274" y="464" on="0"/>
        <pt x="1178" y="288" on="1"/>
        <pt x="1010" y="-20" on="0"/>
        <pt x="712" y="-20" on="1"/>
        <pt x="413" y="-20" on="0"/>
        <pt x="246" y="288" on="1"/>
        <pt x="150" y="464" on="0"/>
        <pt x="150" y="755" on="1"/>
        <pt x="150" y="1041" on="0"/>
        <pt x="246" y="1222" on="1"/>
        <pt x="381" y="1476" on="0"/>
        <pt x="598" y="1550" on="1"/>
        <pt x="608" y="1550" on="1"/>
        <pt x="683" y="1401" on="1"/>
        <pt x="505" y="1317" on="0"/>
        <pt x="418" y="1144" on="1"/>
        <pt x="350" y="1011" on="0"/>
        <pt x="350" y="755" on="1"/>
        <pt x="350" y="501" on="0"/>
        <pt x="418" y="366" on="1"/>
        <pt x="526" y="150" on="0"/>
        <pt x="712" y="150" on="1"/>
        <pt x="897" y="150" on="0"/>
        <pt x="1006" y="366" on="1"/>
        <pt x="1074" y="501" on="0"/>
        <pt x="1074" y="755" on="1"/>
        <pt x="1074" y="1460" on="1"/>
        <pt x="1264" y="1550" on="1"/>
      </contour>
      <contour>
        <pt x="1033" y="1966" on="1"/>
        <pt x="1043" y="1966" on="1"/>
        <pt x="1219" y="1882" on="1"/>
        <pt x="998" y="1566" on="1"/>
        <pt x="988" y="1566" on="1"/>
        <pt x="871" y="1621" on="1"/>
      </contour>
      <contour>
        <pt x="756" y="1966" on="1"/>
        <pt x="766" y="1966" on="1"/>
        <pt x="942" y="1882" on="1"/>
        <pt x="721" y="1566" on="1"/>
        <pt x="711" y="1566" on="1"/>
        <pt x="594" y="1621" on="1"/>
      </contour>
    </TTGlyph>
    <TTGlyph name="Umacron" xMin="150" yMin="-20" xMax="1274" yMax="1820">
      <contour>
        <pt x="1274" y="1550" on="1"/>
        <pt x="1274" y="755" on="1"/>
        <pt x="1274" y="464" on="0"/>
        <pt x="1178" y="288" on="1"/>
        <pt x="1010" y="-20" on="0"/>
        <pt x="712" y="-20" on="1"/>
        <pt x="413" y="-20" on="0"/>
        <pt x="246" y="288" on="1"/>
        <pt x="150" y="464" on="0"/>
        <pt x="150" y="755" on="1"/>
        <pt x="150" y="1041" on="0"/>
        <pt x="246" y="1222" on="1"/>
        <pt x="381" y="1476" on="0"/>
        <pt x="598" y="1550" on="1"/>
        <pt x="608" y="1550" on="1"/>
        <pt x="683" y="1401" on="1"/>
        <pt x="505" y="1317" on="0"/>
        <pt x="418" y="1144" on="1"/>
        <pt x="350" y="1011" on="0"/>
        <pt x="350" y="755" on="1"/>
        <pt x="350" y="501" on="0"/>
        <pt x="418" y="366" on="1"/>
        <pt x="526" y="150" on="0"/>
        <pt x="712" y="150" on="1"/>
        <pt x="897" y="150" on="0"/>
        <pt x="1006" y="366" on="1"/>
        <pt x="1074" y="501" on="0"/>
        <pt x="1074" y="755" on="1"/>
        <pt x="1074" y="1460" on="1"/>
        <pt x="1264" y="1550" on="1"/>
      </contour>
      <contour>
        <pt x="567" y="1638" on="1"/>
        <pt x="567" y="1648" on="1"/>
        <pt x="648" y="1820" on="1"/>
        <pt x="1106" y="1820" on="1"/>
        <pt x="1106" y="1810" on="1"/>
        <pt x="1025" y="1638" on="1"/>
      </contour>
    </TTGlyph>
    <TTGlyph name="Uogonek" xMin="150" yMin="-450" xMax="1274" yMax="1550">
      <contour>
        <pt x="1274" y="1550" on="1"/>
        <pt x="1274" y="755" on="1"/>
        <pt x="1274" y="465" on="0"/>
        <pt x="1178" y="288" on="1"/>
        <pt x="1100" y="144" on="0"/>
        <pt x="993" y="68" on="1"/>
        <pt x="888" y="-44" on="0"/>
        <pt x="888" y="-152" on="1"/>
        <pt x="888" y="-273" on="0"/>
        <pt x="1022" y="-360" on="1"/>
        <pt x="832" y="-450" on="1"/>
        <pt x="822" y="-450" on="1"/>
        <pt x="713" y="-343" on="0"/>
        <pt x="713" y="-206" on="1"/>
        <pt x="713" y="-101" on="0"/>
        <pt x="786" y="-15" on="1"/>
        <pt x="750" y="-20" on="0"/>
        <pt x="712" y="-20" on="1"/>
        <pt x="413" y="-20" on="0"/>
        <pt x="246" y="288" on="1"/>
        <pt x="150" y="465" on="0"/>
        <pt x="150" y="755" on="1"/>
        <pt x="150" y="1041" on="0"/>
        <pt x="246" y="1222" on="1"/>
        <pt x="381" y="1476" on="0"/>
        <pt x="598" y="1550" on="1"/>
        <pt x="608" y="1550" on="1"/>
        <pt x="683" y="1401" on="1"/>
        <pt x="506" y="1317" on="0"/>
        <pt x="418" y="1144" on="1"/>
        <pt x="350" y="1010" on="0"/>
        <pt x="350" y="755" on="1"/>
        <pt x="350" y="501" on="0"/>
        <pt x="418" y="366" on="1"/>
        <pt x="526" y="150" on="0"/>
        <pt x="712" y="150" on="1"/>
        <pt x="897" y="150" on="0"/>
        <pt x="1006" y="366" on="1"/>
        <pt x="1074" y="501" on="0"/>
        <pt x="1074" y="755" on="1"/>
        <pt x="1074" y="1460" on="1"/>
        <pt x="1264" y="1550" on="1"/>
      </contour>
    </TTGlyph>
    <TTGlyph name="Uring" xMin="150" yMin="-20" xMax="1274" yMax="1966">
      <contour>
        <pt x="1274" y="1550" on="1"/>
        <pt x="1274" y="755" on="1"/>
        <pt x="1274" y="464" on="0"/>
        <pt x="1178" y="288" on="1"/>
        <pt x="1010" y="-20" on="0"/>
        <pt x="712" y="-20" on="1"/>
        <pt x="413" y="-20" on="0"/>
        <pt x="246" y="288" on="1"/>
        <pt x="150" y="464" on="0"/>
        <pt x="150" y="755" on="1"/>
        <pt x="150" y="1041" on="0"/>
        <pt x="246" y="1222" on="1"/>
        <pt x="381" y="1476" on="0"/>
        <pt x="598" y="1550" on="1"/>
        <pt x="608" y="1550" on="1"/>
        <pt x="683" y="1401" on="1"/>
        <pt x="505" y="1317" on="0"/>
        <pt x="418" y="1144" on="1"/>
        <pt x="350" y="1011" on="0"/>
        <pt x="350" y="755" on="1"/>
        <pt x="350" y="501" on="0"/>
        <pt x="418" y="366" on="1"/>
        <pt x="526" y="150" on="0"/>
        <pt x="712" y="150" on="1"/>
        <pt x="897" y="150" on="0"/>
        <pt x="1006" y="366" on="1"/>
        <pt x="1074" y="501" on="0"/>
        <pt x="1074" y="755" on="1"/>
        <pt x="1074" y="1460" on="1"/>
        <pt x="1264" y="1550" on="1"/>
      </contour>
      <contour>
        <pt x="885" y="1588" on="0"/>
        <pt x="725" y="1588" on="0"/>
        <pt x="670" y="1637" on="1"/>
        <pt x="608" y="1692" on="0"/>
        <pt x="608" y="1777" on="1"/>
        <pt x="608" y="1860" on="0"/>
        <pt x="670" y="1917" on="1"/>
        <pt x="723" y="1966" on="0"/>
        <pt x="805" y="1966" on="1"/>
        <pt x="885" y="1966" on="0"/>
        <pt x="940" y="1917" on="1"/>
        <pt x="1002" y="1862" on="0"/>
        <pt x="1002" y="1692" on="0"/>
        <pt x="940" y="1637" on="1"/>
      </contour>
      <contour>
        <pt x="805" y="1862" on="1"/>
        <pt x="771" y="1862" on="0"/>
        <pt x="731" y="1820" on="0"/>
        <pt x="731" y="1777" on="1"/>
        <pt x="731" y="1731" on="0"/>
        <pt x="752" y="1712" on="1"/>
        <pt x="774" y="1692" on="0"/>
        <pt x="804" y="1692" on="1"/>
        <pt x="835" y="1692" on="0"/>
        <pt x="857" y="1714" on="1"/>
        <pt x="877" y="1733" on="0"/>
        <pt x="877" y="1777" on="1"/>
        <pt x="877" y="1822" on="0"/>
        <pt x="855" y="1843" on="1"/>
        <pt x="835" y="1862" on="0"/>
      </contour>
    </TTGlyph>
    <TTGlyph name="Utilde" xMin="150" yMin="-20" xMax="1274" yMax="1924">
      <contour>
        <pt x="1274" y="1550" on="1"/>
        <pt x="1274" y="755" on="1"/>
        <pt x="1274" y="464" on="0"/>
        <pt x="1178" y="288" on="1"/>
        <pt x="1010" y="-20" on="0"/>
        <pt x="712" y="-20" on="1"/>
        <pt x="413" y="-20" on="0"/>
        <pt x="246" y="288" on="1"/>
        <pt x="150" y="464" on="0"/>
        <pt x="150" y="755" on="1"/>
        <pt x="150" y="1041" on="0"/>
        <pt x="246" y="1222" on="1"/>
        <pt x="381" y="1476" on="0"/>
        <pt x="598" y="1550" on="1"/>
        <pt x="608" y="1550" on="1"/>
        <pt x="683" y="1401" on="1"/>
        <pt x="505" y="1317" on="0"/>
        <pt x="418" y="1144" on="1"/>
        <pt x="350" y="1011" on="0"/>
        <pt x="350" y="755" on="1"/>
        <pt x="350" y="501" on="0"/>
        <pt x="418" y="366" on="1"/>
        <pt x="526" y="150" on="0"/>
        <pt x="712" y="150" on="1"/>
        <pt x="897" y="150" on="0"/>
        <pt x="1006" y="366" on="1"/>
        <pt x="1074" y="501" on="0"/>
        <pt x="1074" y="755" on="1"/>
        <pt x="1074" y="1460" on="1"/>
        <pt x="1264" y="1550" on="1"/>
      </contour>
      <contour>
        <pt x="571" y="1638" on="1"/>
        <pt x="571" y="1924" on="0"/>
        <pt x="712" y="1924" on="1"/>
        <pt x="776" y="1924" on="0"/>
        <pt x="849" y="1854" on="1"/>
        <pt x="900" y="1805" on="0"/>
        <pt x="924" y="1805" on="1"/>
        <pt x="958" y="1805" on="0"/>
        <pt x="958" y="1877" on="1"/>
        <pt x="1068" y="1924" on="1"/>
        <pt x="1074" y="1924" on="1"/>
        <pt x="1074" y="1638" on="0"/>
        <pt x="933" y="1638" on="1"/>
        <pt x="869" y="1638" on="0"/>
        <pt x="796" y="1708" on="1"/>
        <pt x="745" y="1757" on="0"/>
        <pt x="721" y="1757" on="1"/>
        <pt x="687" y="1757" on="0"/>
        <pt x="687" y="1685" on="1"/>
        <pt x="577" y="1638" on="1"/>
      </contour>
    </TTGlyph>
    <TTGlyph name="V" xMin="200" yMin="-20" xMax="1324" yMax="1550">
      <contour>
        <pt x="200" y="1460" on="1"/>
        <pt x="390" y="1550" on="1"/>
        <pt x="400" y="1550" on="1"/>
        <pt x="400" y="755" on="1"/>
        <pt x="400" y="478" on="0"/>
        <pt x="468" y="366" on="1"/>
        <pt x="599" y="150" on="0"/>
        <pt x="762" y="150" on="1"/>
        <pt x="946" y="150" on="0"/>
        <pt x="1056" y="366" on="1"/>
        <pt x="1124" y="501" on="0"/>
        <pt x="1124" y="755" on="1"/>
        <pt x="1124" y="1011" on="0"/>
        <pt x="1056" y="1144" on="1"/>
        <pt x="967" y="1318" on="0"/>
        <pt x="791" y="1401" on="1"/>
        <pt x="791" y="1401" on="0"/>
        <pt x="866" y="1550" on="1"/>
        <pt x="876" y="1550" on="1"/>
        <pt x="1093" y="1476" on="0"/>
        <pt x="1228" y="1222" on="1"/>
        <pt x="1324" y="1041" on="0"/>
        <pt x="1324" y="755" on="1"/>
        <pt x="1324" y="464" on="0"/>
        <pt x="1228" y="288" on="1"/>
        <pt x="1061" y="-20" on="0"/>
        <pt x="762" y="-20" on="1"/>
        <pt x="464" y="-20" on="0"/>
        <pt x="296" y="288" on="1"/>
        <pt x="200" y="464" on="0"/>
        <pt x="200" y="755" on="1"/>
      </contour>
    </TTGlyph>
    <TTGlyph name="W" xMin="150" yMin="-20" xMax="2198" yMax="1550">
      <contour>
        <pt x="1274" y="1550" on="1"/>
        <pt x="1274" y="755" on="1"/>
        <pt x="1274" y="501" on="0"/>
        <pt x="1342" y="366" on="1"/>
        <pt x="1451" y="150" on="0"/>
        <pt x="1821" y="150" on="0"/>
        <pt x="1930" y="366" on="1"/>
        <pt x="1998" y="501" on="0"/>
        <pt x="1998" y="755" on="1"/>
        <pt x="1998" y="1011" on="0"/>
        <pt x="1930" y="1144" on="1"/>
        <pt x="1841" y="1318" on="0"/>
        <pt x="1665" y="1401" on="1"/>
        <pt x="1740" y="1550" on="1"/>
        <pt x="1750" y="1550" on="1"/>
        <pt x="1967" y="1476" on="0"/>
        <pt x="2102" y="1222" on="1"/>
        <pt x="2198" y="1041" on="0"/>
        <pt x="2198" y="755" on="1"/>
        <pt x="2198" y="465" on="0"/>
        <pt x="2102" y="288" on="1"/>
        <pt x="1935" y="-20" on="0"/>
        <pt x="1636" y="-20" on="1"/>
        <pt x="1342" y="-20" on="0"/>
        <pt x="1174" y="281" on="1"/>
        <pt x="1006" y="-20" on="0"/>
        <pt x="712" y="-20" on="1"/>
        <pt x="413" y="-20" on="0"/>
        <pt x="246" y="288" on="1"/>
        <pt x="150" y="465" on="0"/>
        <pt x="150" y="755" on="1"/>
        <pt x="150" y="1041" on="0"/>
        <pt x="246" y="1222" on="1"/>
        <pt x="381" y="1476" on="0"/>
        <pt x="598" y="1550" on="1"/>
        <pt x="608" y="1550" on="1"/>
        <pt x="683" y="1401" on="1"/>
        <pt x="506" y="1317" on="0"/>
        <pt x="418" y="1144" on="1"/>
        <pt x="350" y="1010" on="0"/>
        <pt x="350" y="755" on="1"/>
        <pt x="350" y="501" on="0"/>
        <pt x="418" y="366" on="1"/>
        <pt x="526" y="150" on="0"/>
        <pt x="712" y="150" on="1"/>
        <pt x="897" y="150" on="0"/>
        <pt x="1006" y="366" on="1"/>
        <pt x="1074" y="501" on="0"/>
        <pt x="1074" y="755" on="1"/>
        <pt x="1074" y="1460" on="1"/>
        <pt x="1264" y="1550" on="1"/>
      </contour>
    </TTGlyph>
    <TTGlyph name="Wacute" xMin="150" yMin="-20" xMax="2198" yMax="1966">
      <contour>
        <pt x="1274" y="1550" on="1"/>
        <pt x="1274" y="755" on="1"/>
        <pt x="1274" y="501" on="0"/>
        <pt x="1342" y="366" on="1"/>
        <pt x="1451" y="150" on="0"/>
        <pt x="1821" y="150" on="0"/>
        <pt x="1930" y="366" on="1"/>
        <pt x="1998" y="501" on="0"/>
        <pt x="1998" y="755" on="1"/>
        <pt x="1998" y="1011" on="0"/>
        <pt x="1930" y="1144" on="1"/>
        <pt x="1841" y="1318" on="0"/>
        <pt x="1665" y="1401" on="1"/>
        <pt x="1740" y="1550" on="1"/>
        <pt x="1750" y="1550" on="1"/>
        <pt x="1967" y="1476" on="0"/>
        <pt x="2102" y="1222" on="1"/>
        <pt x="2198" y="1041" on="0"/>
        <pt x="2198" y="755" on="1"/>
        <pt x="2198" y="465" on="0"/>
        <pt x="2102" y="288" on="1"/>
        <pt x="1935" y="-20" on="0"/>
        <pt x="1636" y="-20" on="1"/>
        <pt x="1342" y="-20" on="0"/>
        <pt x="1174" y="281" on="1"/>
        <pt x="1006" y="-20" on="0"/>
        <pt x="712" y="-20" on="1"/>
        <pt x="413" y="-20" on="0"/>
        <pt x="246" y="288" on="1"/>
        <pt x="150" y="465" on="0"/>
        <pt x="150" y="755" on="1"/>
        <pt x="150" y="1041" on="0"/>
        <pt x="246" y="1222" on="1"/>
        <pt x="381" y="1476" on="0"/>
        <pt x="598" y="1550" on="1"/>
        <pt x="608" y="1550" on="1"/>
        <pt x="683" y="1401" on="1"/>
        <pt x="506" y="1317" on="0"/>
        <pt x="418" y="1144" on="1"/>
        <pt x="350" y="1010" on="0"/>
        <pt x="350" y="755" on="1"/>
        <pt x="350" y="501" on="0"/>
        <pt x="418" y="366" on="1"/>
        <pt x="526" y="150" on="0"/>
        <pt x="712" y="150" on="1"/>
        <pt x="897" y="150" on="0"/>
        <pt x="1006" y="366" on="1"/>
        <pt x="1074" y="501" on="0"/>
        <pt x="1074" y="755" on="1"/>
        <pt x="1074" y="1460" on="1"/>
        <pt x="1264" y="1550" on="1"/>
      </contour>
      <contour>
        <pt x="1253" y="1966" on="1"/>
        <pt x="1263" y="1966" on="1"/>
        <pt x="1439" y="1882" on="1"/>
        <pt x="1218" y="1566" on="1"/>
        <pt x="1208" y="1566" on="1"/>
        <pt x="1091" y="1621" on="1"/>
      </contour>
    </TTGlyph>
    <TTGlyph name="Wcircumflex" xMin="150" yMin="-20" xMax="2198" yMax="1966">
      <contour>
        <pt x="1274" y="1550" on="1"/>
        <pt x="1274" y="755" on="1"/>
        <pt x="1274" y="501" on="0"/>
        <pt x="1342" y="366" on="1"/>
        <pt x="1451" y="150" on="0"/>
        <pt x="1821" y="150" on="0"/>
        <pt x="1930" y="366" on="1"/>
        <pt x="1998" y="501" on="0"/>
        <pt x="1998" y="755" on="1"/>
        <pt x="1998" y="1011" on="0"/>
        <pt x="1930" y="1144" on="1"/>
        <pt x="1841" y="1318" on="0"/>
        <pt x="1665" y="1401" on="1"/>
        <pt x="1740" y="1550" on="1"/>
        <pt x="1750" y="1550" on="1"/>
        <pt x="1967" y="1476" on="0"/>
        <pt x="2102" y="1222" on="1"/>
        <pt x="2198" y="1041" on="0"/>
        <pt x="2198" y="755" on="1"/>
        <pt x="2198" y="465" on="0"/>
        <pt x="2102" y="288" on="1"/>
        <pt x="1935" y="-20" on="0"/>
        <pt x="1636" y="-20" on="1"/>
        <pt x="1342" y="-20" on="0"/>
        <pt x="1174" y="281" on="1"/>
        <pt x="1006" y="-20" on="0"/>
        <pt x="712" y="-20" on="1"/>
        <pt x="413" y="-20" on="0"/>
        <pt x="246" y="288" on="1"/>
        <pt x="150" y="465" on="0"/>
        <pt x="150" y="755" on="1"/>
        <pt x="150" y="1041" on="0"/>
        <pt x="246" y="1222" on="1"/>
        <pt x="381" y="1476" on="0"/>
        <pt x="598" y="1550" on="1"/>
        <pt x="608" y="1550" on="1"/>
        <pt x="683" y="1401" on="1"/>
        <pt x="506" y="1317" on="0"/>
        <pt x="418" y="1144" on="1"/>
        <pt x="350" y="1010" on="0"/>
        <pt x="350" y="755" on="1"/>
        <pt x="350" y="501" on="0"/>
        <pt x="418" y="366" on="1"/>
        <pt x="526" y="150" on="0"/>
        <pt x="712" y="150" on="1"/>
        <pt x="897" y="150" on="0"/>
        <pt x="1006" y="366" on="1"/>
        <pt x="1074" y="501" on="0"/>
        <pt x="1074" y="755" on="1"/>
        <pt x="1074" y="1460" on="1"/>
        <pt x="1264" y="1550" on="1"/>
      </contour>
      <contour>
        <pt x="903" y="1621" on="1"/>
        <pt x="1056" y="1882" on="1"/>
        <pt x="1232" y="1966" on="1"/>
        <pt x="1242" y="1966" on="1"/>
        <pt x="1455" y="1621" on="1"/>
        <pt x="1339" y="1566" on="1"/>
        <pt x="1329" y="1566" on="1"/>
        <pt x="1179" y="1774" on="1"/>
        <pt x="1031" y="1566" on="1"/>
        <pt x="1021" y="1566" on="1"/>
      </contour>
    </TTGlyph>
    <TTGlyph name="Wdieresis" xMin="150" yMin="-20" xMax="2198" yMax="1925">
      <contour>
        <pt x="1274" y="1550" on="1"/>
        <pt x="1274" y="755" on="1"/>
        <pt x="1274" y="501" on="0"/>
        <pt x="1342" y="366" on="1"/>
        <pt x="1451" y="150" on="0"/>
        <pt x="1821" y="150" on="0"/>
        <pt x="1930" y="366" on="1"/>
        <pt x="1998" y="501" on="0"/>
        <pt x="1998" y="755" on="1"/>
        <pt x="1998" y="1011" on="0"/>
        <pt x="1930" y="1144" on="1"/>
        <pt x="1841" y="1318" on="0"/>
        <pt x="1665" y="1401" on="1"/>
        <pt x="1740" y="1550" on="1"/>
        <pt x="1750" y="1550" on="1"/>
        <pt x="1967" y="1476" on="0"/>
        <pt x="2102" y="1222" on="1"/>
        <pt x="2198" y="1041" on="0"/>
        <pt x="2198" y="755" on="1"/>
        <pt x="2198" y="465" on="0"/>
        <pt x="2102" y="288" on="1"/>
        <pt x="1935" y="-20" on="0"/>
        <pt x="1636" y="-20" on="1"/>
        <pt x="1342" y="-20" on="0"/>
        <pt x="1174" y="281" on="1"/>
        <pt x="1006" y="-20" on="0"/>
        <pt x="712" y="-20" on="1"/>
        <pt x="413" y="-20" on="0"/>
        <pt x="246" y="288" on="1"/>
        <pt x="150" y="465" on="0"/>
        <pt x="150" y="755" on="1"/>
        <pt x="150" y="1041" on="0"/>
        <pt x="246" y="1222" on="1"/>
        <pt x="381" y="1476" on="0"/>
        <pt x="598" y="1550" on="1"/>
        <pt x="608" y="1550" on="1"/>
        <pt x="683" y="1401" on="1"/>
        <pt x="506" y="1317" on="0"/>
        <pt x="418" y="1144" on="1"/>
        <pt x="350" y="1010" on="0"/>
        <pt x="350" y="755" on="1"/>
        <pt x="350" y="501" on="0"/>
        <pt x="418" y="366" on="1"/>
        <pt x="526" y="150" on="0"/>
        <pt x="712" y="150" on="1"/>
        <pt x="897" y="150" on="0"/>
        <pt x="1006" y="366" on="1"/>
        <pt x="1074" y="501" on="0"/>
        <pt x="1074" y="755" on="1"/>
        <pt x="1074" y="1460" on="1"/>
        <pt x="1264" y="1550" on="1"/>
      </contour>
      <contour>
        <pt x="1228" y="1752" on="0"/>
        <pt x="1228" y="1853" on="0"/>
        <pt x="1298" y="1925" on="0"/>
        <pt x="1398" y="1925" on="0"/>
        <pt x="1468" y="1853" on="0"/>
        <pt x="1468" y="1752" on="0"/>
        <pt x="1398" y="1680" on="0"/>
        <pt x="1298" y="1680" on="0"/>
      </contour>
      <contour>
        <pt x="928" y="1752" on="0"/>
        <pt x="928" y="1853" on="0"/>
        <pt x="998" y="1925" on="0"/>
        <pt x="1098" y="1925" on="0"/>
        <pt x="1168" y="1853" on="0"/>
        <pt x="1168" y="1752" on="0"/>
        <pt x="1098" y="1680" on="0"/>
        <pt x="998" y="1680" on="0"/>
      </contour>
    </TTGlyph>
    <TTGlyph name="Wgrave" xMin="150" yMin="-20" xMax="2198" yMax="1966">
      <contour>
        <pt x="1274" y="1550" on="1"/>
        <pt x="1274" y="755" on="1"/>
        <pt x="1274" y="501" on="0"/>
        <pt x="1342" y="366" on="1"/>
        <pt x="1451" y="150" on="0"/>
        <pt x="1821" y="150" on="0"/>
        <pt x="1930" y="366" on="1"/>
        <pt x="1998" y="501" on="0"/>
        <pt x="1998" y="755" on="1"/>
        <pt x="1998" y="1011" on="0"/>
        <pt x="1930" y="1144" on="1"/>
        <pt x="1841" y="1318" on="0"/>
        <pt x="1665" y="1401" on="1"/>
        <pt x="1740" y="1550" on="1"/>
        <pt x="1750" y="1550" on="1"/>
        <pt x="1967" y="1476" on="0"/>
        <pt x="2102" y="1222" on="1"/>
        <pt x="2198" y="1041" on="0"/>
        <pt x="2198" y="755" on="1"/>
        <pt x="2198" y="465" on="0"/>
        <pt x="2102" y="288" on="1"/>
        <pt x="1935" y="-20" on="0"/>
        <pt x="1636" y="-20" on="1"/>
        <pt x="1342" y="-20" on="0"/>
        <pt x="1174" y="281" on="1"/>
        <pt x="1006" y="-20" on="0"/>
        <pt x="712" y="-20" on="1"/>
        <pt x="413" y="-20" on="0"/>
        <pt x="246" y="288" on="1"/>
        <pt x="150" y="465" on="0"/>
        <pt x="150" y="755" on="1"/>
        <pt x="150" y="1041" on="0"/>
        <pt x="246" y="1222" on="1"/>
        <pt x="381" y="1476" on="0"/>
        <pt x="598" y="1550" on="1"/>
        <pt x="608" y="1550" on="1"/>
        <pt x="683" y="1401" on="1"/>
        <pt x="506" y="1317" on="0"/>
        <pt x="418" y="1144" on="1"/>
        <pt x="350" y="1010" on="0"/>
        <pt x="350" y="755" on="1"/>
        <pt x="350" y="501" on="0"/>
        <pt x="418" y="366" on="1"/>
        <pt x="526" y="150" on="0"/>
        <pt x="712" y="150" on="1"/>
        <pt x="897" y="150" on="0"/>
        <pt x="1006" y="366" on="1"/>
        <pt x="1074" y="501" on="0"/>
        <pt x="1074" y="755" on="1"/>
        <pt x="1074" y="1460" on="1"/>
        <pt x="1264" y="1550" on="1"/>
      </contour>
      <contour>
        <pt x="1051" y="1966" on="1"/>
        <pt x="1061" y="1966" on="1"/>
        <pt x="1223" y="1621" on="1"/>
        <pt x="1106" y="1566" on="1"/>
        <pt x="1096" y="1566" on="1"/>
        <pt x="875" y="1882" on="1"/>
      </contour>
    </TTGlyph>
    <TTGlyph name="X" xMin="100" yMin="-40" xMax="1178" yMax="1550">
      <contour>
        <pt x="274" y="-40" on="1"/>
        <pt x="100" y="42" on="1"/>
        <pt x="507" y="730" on="1"/>
        <pt x="331" y="841" on="0"/>
        <pt x="237" y="996" on="1"/>
        <pt x="100" y="1225" on="0"/>
        <pt x="100" y="1460" on="1"/>
        <pt x="290" y="1550" on="1"/>
        <pt x="300" y="1550" on="1"/>
        <pt x="300" y="1261" on="0"/>
        <pt x="421" y="1076" on="1"/>
        <pt x="495" y="963" on="0"/>
        <pt x="600" y="886" on="1"/>
        <pt x="993" y="1550" on="1"/>
        <pt x="1003" y="1550" on="1"/>
        <pt x="1178" y="1467" on="1"/>
        <pt x="767" y="774" on="1"/>
        <pt x="946" y="656" on="0"/>
        <pt x="1039" y="511" on="1"/>
        <pt x="1178" y="291" on="0"/>
        <pt x="1178" y="50" on="1"/>
        <pt x="988" y="-40" on="1"/>
        <pt x="978" y="-40" on="1"/>
        <pt x="978" y="241" on="0"/>
        <pt x="863" y="432" on="1"/>
        <pt x="806" y="530" on="0"/>
        <pt x="674" y="618" on="1"/>
        <pt x="284" y="-40" on="1"/>
      </contour>
    </TTGlyph>
    <TTGlyph name="Y" xMin="120" yMin="-40" xMax="1172" yMax="1550">
      <contour>
        <pt x="972" y="-40" on="1"/>
        <pt x="972" y="530" on="1"/>
        <pt x="846" y="384" on="0"/>
        <pt x="657" y="384" on="1"/>
        <pt x="399" y="384" on="0"/>
        <pt x="239" y="588" on="1"/>
        <pt x="120" y="740" on="0"/>
        <pt x="120" y="954" on="1"/>
        <pt x="120" y="1184" on="0"/>
        <pt x="241" y="1342" on="1"/>
        <pt x="342" y="1474" on="0"/>
        <pt x="468" y="1550" on="1"/>
        <pt x="478" y="1550" on="1"/>
        <pt x="553" y="1401" on="1"/>
        <pt x="466" y="1342" on="0"/>
        <pt x="413" y="1264" on="1"/>
        <pt x="320" y="1127" on="0"/>
        <pt x="320" y="954" on="1"/>
        <pt x="320" y="776" on="0"/>
        <pt x="517" y="554" on="0"/>
        <pt x="657" y="554" on="1"/>
        <pt x="792" y="554" on="0"/>
        <pt x="883" y="658" on="1"/>
        <pt x="972" y="760" on="0"/>
        <pt x="972" y="894" on="1"/>
        <pt x="972" y="1460" on="1"/>
        <pt x="1162" y="1550" on="1"/>
        <pt x="1172" y="1550" on="1"/>
        <pt x="1172" y="50" on="1"/>
        <pt x="982" y="-40" on="1"/>
      </contour>
    </TTGlyph>
    <TTGlyph name="Yacute" xMin="120" yMin="-40" xMax="1172" yMax="1966">
      <contour>
        <pt x="972" y="-40" on="1"/>
        <pt x="972" y="530" on="1"/>
        <pt x="846" y="384" on="0"/>
        <pt x="657" y="384" on="1"/>
        <pt x="399" y="384" on="0"/>
        <pt x="239" y="588" on="1"/>
        <pt x="120" y="740" on="0"/>
        <pt x="120" y="954" on="1"/>
        <pt x="120" y="1184" on="0"/>
        <pt x="241" y="1342" on="1"/>
        <pt x="342" y="1474" on="0"/>
        <pt x="468" y="1550" on="1"/>
        <pt x="478" y="1550" on="1"/>
        <pt x="553" y="1401" on="1"/>
        <pt x="466" y="1342" on="0"/>
        <pt x="413" y="1264" on="1"/>
        <pt x="320" y="1127" on="0"/>
        <pt x="320" y="954" on="1"/>
        <pt x="320" y="776" on="0"/>
        <pt x="517" y="554" on="0"/>
        <pt x="657" y="554" on="1"/>
        <pt x="792" y="554" on="0"/>
        <pt x="883" y="658" on="1"/>
        <pt x="972" y="760" on="0"/>
        <pt x="972" y="894" on="1"/>
        <pt x="972" y="1460" on="1"/>
        <pt x="1162" y="1550" on="1"/>
        <pt x="1172" y="1550" on="1"/>
        <pt x="1172" y="50" on="1"/>
        <pt x="982" y="-40" on="1"/>
      </contour>
      <contour>
        <pt x="817" y="1966" on="1"/>
        <pt x="827" y="1966" on="1"/>
        <pt x="1003" y="1882" on="1"/>
        <pt x="782" y="1566" on="1"/>
        <pt x="772" y="1566" on="1"/>
        <pt x="655" y="1621" on="1"/>
      </contour>
    </TTGlyph>
    <TTGlyph name="Ycircumflex" xMin="120" yMin="-40" xMax="1172" yMax="1966">
      <contour>
        <pt x="972" y="-40" on="1"/>
        <pt x="972" y="530" on="1"/>
        <pt x="846" y="384" on="0"/>
        <pt x="657" y="384" on="1"/>
        <pt x="399" y="384" on="0"/>
        <pt x="239" y="588" on="1"/>
        <pt x="120" y="740" on="0"/>
        <pt x="120" y="954" on="1"/>
        <pt x="120" y="1184" on="0"/>
        <pt x="241" y="1342" on="1"/>
        <pt x="342" y="1474" on="0"/>
        <pt x="468" y="1550" on="1"/>
        <pt x="478" y="1550" on="1"/>
        <pt x="553" y="1401" on="1"/>
        <pt x="466" y="1342" on="0"/>
        <pt x="413" y="1264" on="1"/>
        <pt x="320" y="1127" on="0"/>
        <pt x="320" y="954" on="1"/>
        <pt x="320" y="776" on="0"/>
        <pt x="517" y="554" on="0"/>
        <pt x="657" y="554" on="1"/>
        <pt x="792" y="554" on="0"/>
        <pt x="883" y="658" on="1"/>
        <pt x="972" y="760" on="0"/>
        <pt x="972" y="894" on="1"/>
        <pt x="972" y="1460" on="1"/>
        <pt x="1162" y="1550" on="1"/>
        <pt x="1172" y="1550" on="1"/>
        <pt x="1172" y="50" on="1"/>
        <pt x="982" y="-40" on="1"/>
      </contour>
      <contour>
        <pt x="470" y="1621" on="1"/>
        <pt x="623" y="1882" on="1"/>
        <pt x="799" y="1966" on="1"/>
        <pt x="809" y="1966" on="1"/>
        <pt x="1022" y="1621" on="1"/>
        <pt x="906" y="1566" on="1"/>
        <pt x="896" y="1566" on="1"/>
        <pt x="746" y="1774" on="1"/>
        <pt x="598" y="1566" on="1"/>
        <pt x="588" y="1566" on="1"/>
      </contour>
    </TTGlyph>
    <TTGlyph name="Ydieresis" xMin="120" yMin="-40" xMax="1172" yMax="1925">
      <contour>
        <pt x="972" y="-40" on="1"/>
        <pt x="972" y="530" on="1"/>
        <pt x="846" y="384" on="0"/>
        <pt x="657" y="384" on="1"/>
        <pt x="399" y="384" on="0"/>
        <pt x="239" y="588" on="1"/>
        <pt x="120" y="740" on="0"/>
        <pt x="120" y="954" on="1"/>
        <pt x="120" y="1184" on="0"/>
        <pt x="241" y="1342" on="1"/>
        <pt x="342" y="1474" on="0"/>
        <pt x="468" y="1550" on="1"/>
        <pt x="478" y="1550" on="1"/>
        <pt x="553" y="1401" on="1"/>
        <pt x="466" y="1342" on="0"/>
        <pt x="413" y="1264" on="1"/>
        <pt x="320" y="1127" on="0"/>
        <pt x="320" y="954" on="1"/>
        <pt x="320" y="776" on="0"/>
        <pt x="517" y="554" on="0"/>
        <pt x="657" y="554" on="1"/>
        <pt x="792" y="554" on="0"/>
        <pt x="883" y="658" on="1"/>
        <pt x="972" y="760" on="0"/>
        <pt x="972" y="894" on="1"/>
        <pt x="972" y="1460" on="1"/>
        <pt x="1162" y="1550" on="1"/>
        <pt x="1172" y="1550" on="1"/>
        <pt x="1172" y="50" on="1"/>
        <pt x="982" y="-40" on="1"/>
      </contour>
      <contour>
        <pt x="768" y="1752" on="0"/>
        <pt x="768" y="1853" on="0"/>
        <pt x="838" y="1925" on="0"/>
        <pt x="938" y="1925" on="0"/>
        <pt x="1008" y="1853" on="0"/>
        <pt x="1008" y="1752" on="0"/>
        <pt x="938" y="1680" on="0"/>
        <pt x="838" y="1680" on="0"/>
      </contour>
      <contour>
        <pt x="468" y="1752" on="0"/>
        <pt x="468" y="1853" on="0"/>
        <pt x="538" y="1925" on="0"/>
        <pt x="638" y="1925" on="0"/>
        <pt x="708" y="1853" on="0"/>
        <pt x="708" y="1752" on="0"/>
        <pt x="638" y="1680" on="0"/>
        <pt x="538" y="1680" on="0"/>
      </contour>
    </TTGlyph>
    <TTGlyph name="Ygrave" xMin="120" yMin="-40" xMax="1172" yMax="1966">
      <contour>
        <pt x="972" y="-40" on="1"/>
        <pt x="972" y="530" on="1"/>
        <pt x="846" y="384" on="0"/>
        <pt x="657" y="384" on="1"/>
        <pt x="399" y="384" on="0"/>
        <pt x="239" y="588" on="1"/>
        <pt x="120" y="740" on="0"/>
        <pt x="120" y="954" on="1"/>
        <pt x="120" y="1184" on="0"/>
        <pt x="241" y="1342" on="1"/>
        <pt x="342" y="1474" on="0"/>
        <pt x="468" y="1550" on="1"/>
        <pt x="478" y="1550" on="1"/>
        <pt x="553" y="1401" on="1"/>
        <pt x="466" y="1342" on="0"/>
        <pt x="413" y="1264" on="1"/>
        <pt x="320" y="1127" on="0"/>
        <pt x="320" y="954" on="1"/>
        <pt x="320" y="776" on="0"/>
        <pt x="517" y="554" on="0"/>
        <pt x="657" y="554" on="1"/>
        <pt x="792" y="554" on="0"/>
        <pt x="883" y="658" on="1"/>
        <pt x="972" y="760" on="0"/>
        <pt x="972" y="894" on="1"/>
        <pt x="972" y="1460" on="1"/>
        <pt x="1162" y="1550" on="1"/>
        <pt x="1172" y="1550" on="1"/>
        <pt x="1172" y="50" on="1"/>
        <pt x="982" y="-40" on="1"/>
      </contour>
      <contour>
        <pt x="696" y="1966" on="1"/>
        <pt x="706" y="1966" on="1"/>
        <pt x="868" y="1621" on="1"/>
        <pt x="751" y="1566" on="1"/>
        <pt x="741" y="1566" on="1"/>
        <pt x="520" y="1882" on="1"/>
      </contour>
    </TTGlyph>
    <TTGlyph name="Z" xMin="120" yMin="0" xMax="1088" yMax="1510">
      <contour>
        <pt x="313" y="0" on="1"/>
        <pt x="120" y="0" on="0"/>
        <pt x="120" y="134" on="1"/>
        <pt x="120" y="247" on="0"/>
        <pt x="216" y="391" on="1"/>
        <pt x="822" y="1340" on="1"/>
        <pt x="187" y="1340" on="1"/>
        <pt x="187" y="1350" on="1"/>
        <pt x="262" y="1510" on="1"/>
        <pt x="822" y="1510" on="1"/>
        <pt x="1020" y="1510" on="0"/>
        <pt x="1020" y="1374" on="1"/>
        <pt x="1020" y="1272" on="0"/>
        <pt x="919" y="1119" on="1"/>
        <pt x="313" y="170" on="1"/>
        <pt x="780" y="170" on="1"/>
        <pt x="898" y="170" on="0"/>
        <pt x="928" y="287" on="1"/>
        <pt x="938" y="287" on="1"/>
        <pt x="1088" y="216" on="1"/>
        <pt x="1028" y="0" on="0"/>
        <pt x="780" y="0" on="1"/>
      </contour>
    </TTGlyph>
</ttFont>
